<mxfile host="Electron" agent="Mozilla/5.0 (Windows NT 10.0; Win64; x64) AppleWebKit/537.36 (KHTML, like Gecko) draw.io/27.0.5 Chrome/134.0.6998.205 Electron/35.3.0 Safari/537.36" version="27.0.5">
  <diagram name="Page-1" id="hOXPh5I4ZGsASqB1omPU">
    <mxGraphModel dx="496" dy="306" grid="1" gridSize="10" guides="1" tooltips="1" connect="1" arrows="1" fold="1" page="1" pageScale="1" pageWidth="850" pageHeight="1100" math="1" shadow="0">
      <root>
        <mxCell id="0" />
        <mxCell id="1" parent="0" />
        <mxCell id="WOx4rIqFdnK--00V2V1H-9" style="rounded=0;orthogonalLoop=1;jettySize=auto;html=1;exitX=1;exitY=0.5;exitDx=0;exitDy=0;labelBackgroundColor=none;strokeColor=#A8201A;fontColor=default;" edge="1" parent="1" source="WOx4rIqFdnK--00V2V1H-1" target="WOx4rIqFdnK--00V2V1H-6">
          <mxGeometry relative="1" as="geometry" />
        </mxCell>
        <mxCell id="WOx4rIqFdnK--00V2V1H-1" value="&lt;font style=&quot;font-size: 24px;&quot;&gt;2&lt;/font&gt;" style="whiteSpace=wrap;html=1;aspect=fixed;labelBackgroundColor=none;fillColor=#FAE5C7;strokeColor=#0F8B8D;fontColor=#143642;" vertex="1" parent="1">
          <mxGeometry x="155" y="220" width="40" height="40" as="geometry" />
        </mxCell>
        <mxCell id="WOx4rIqFdnK--00V2V1H-40" style="rounded=0;orthogonalLoop=1;jettySize=auto;html=1;exitX=1;exitY=0.5;exitDx=0;exitDy=0;entryX=0;entryY=0.5;entryDx=0;entryDy=0;labelBackgroundColor=none;strokeColor=#A8201A;fontColor=default;" edge="1" parent="1" source="WOx4rIqFdnK--00V2V1H-2" target="WOx4rIqFdnK--00V2V1H-38">
          <mxGeometry relative="1" as="geometry" />
        </mxCell>
        <mxCell id="WOx4rIqFdnK--00V2V1H-41" style="rounded=0;orthogonalLoop=1;jettySize=auto;html=1;entryX=0;entryY=0.5;entryDx=0;entryDy=0;labelBackgroundColor=none;strokeColor=#A8201A;fontColor=default;" edge="1" parent="1" source="WOx4rIqFdnK--00V2V1H-2" target="WOx4rIqFdnK--00V2V1H-39">
          <mxGeometry relative="1" as="geometry" />
        </mxCell>
        <mxCell id="WOx4rIqFdnK--00V2V1H-2" value="&lt;font style=&quot;font-size: 24px;&quot;&gt;3&lt;/font&gt;" style="ellipse;whiteSpace=wrap;html=1;aspect=fixed;labelBackgroundColor=none;fillColor=#FAE5C7;strokeColor=#0F8B8D;fontColor=#143642;" vertex="1" parent="1">
          <mxGeometry x="160" y="420" width="40" height="40" as="geometry" />
        </mxCell>
        <mxCell id="WOx4rIqFdnK--00V2V1H-24" style="rounded=0;orthogonalLoop=1;jettySize=auto;html=1;exitX=1;exitY=0.5;exitDx=0;exitDy=0;entryX=0;entryY=0.5;entryDx=0;entryDy=0;labelBackgroundColor=none;strokeColor=#A8201A;fontColor=default;" edge="1" parent="1" source="WOx4rIqFdnK--00V2V1H-4" target="WOx4rIqFdnK--00V2V1H-1">
          <mxGeometry relative="1" as="geometry" />
        </mxCell>
        <mxCell id="WOx4rIqFdnK--00V2V1H-4" value="&lt;font style=&quot;font-size: 24px;&quot;&gt;1&lt;/font&gt;" style="whiteSpace=wrap;html=1;aspect=fixed;labelBackgroundColor=none;fillColor=#FAE5C7;strokeColor=#0F8B8D;fontColor=#143642;" vertex="1" parent="1">
          <mxGeometry x="60" y="290" width="40" height="40" as="geometry" />
        </mxCell>
        <mxCell id="WOx4rIqFdnK--00V2V1H-6" value="&lt;font style=&quot;font-size: 24px;&quot;&gt;4&lt;/font&gt;" style="ellipse;whiteSpace=wrap;html=1;aspect=fixed;labelBackgroundColor=none;fillColor=#FAE5C7;strokeColor=#0F8B8D;fontColor=#143642;" vertex="1" parent="1">
          <mxGeometry x="260" y="170" width="40" height="40" as="geometry" />
        </mxCell>
        <mxCell id="WOx4rIqFdnK--00V2V1H-13" value="&lt;font style=&quot;font-size: 9px;&quot;&gt;A1&lt;/font&gt;" style="text;html=1;align=center;verticalAlign=middle;whiteSpace=wrap;rounded=0;labelBackgroundColor=none;fontColor=#143642;" vertex="1" parent="1">
          <mxGeometry x="200" y="210" width="25" height="20" as="geometry" />
        </mxCell>
        <mxCell id="WOx4rIqFdnK--00V2V1H-17" value="" style="endArrow=none;html=1;rounded=0;exitX=1;exitY=0;exitDx=0;exitDy=0;labelBackgroundColor=none;strokeColor=#A8201A;fontColor=default;" edge="1" parent="1" source="WOx4rIqFdnK--00V2V1H-6">
          <mxGeometry width="50" height="50" relative="1" as="geometry">
            <mxPoint x="300" y="190" as="sourcePoint" />
            <mxPoint x="360" y="160" as="targetPoint" />
            <Array as="points">
              <mxPoint x="320" y="160" />
            </Array>
          </mxGeometry>
        </mxCell>
        <mxCell id="WOx4rIqFdnK--00V2V1H-18" value="" style="endArrow=none;html=1;rounded=0;exitX=1;exitY=1;exitDx=0;exitDy=0;labelBackgroundColor=none;strokeColor=#A8201A;fontColor=default;" edge="1" parent="1" source="WOx4rIqFdnK--00V2V1H-6">
          <mxGeometry width="50" height="50" relative="1" as="geometry">
            <mxPoint x="300" y="204" as="sourcePoint" />
            <mxPoint x="360" y="220" as="targetPoint" />
            <Array as="points">
              <mxPoint x="320" y="220" />
            </Array>
          </mxGeometry>
        </mxCell>
        <mxCell id="WOx4rIqFdnK--00V2V1H-21" value="&lt;font style=&quot;font-size: 6px; line-height: 110%;&quot;&gt;P(S1)=0.4&lt;/font&gt;" style="text;html=1;align=center;verticalAlign=middle;whiteSpace=wrap;rounded=0;labelBackgroundColor=none;fontColor=#143642;" vertex="1" parent="1">
          <mxGeometry x="320" y="158" width="40" height="10" as="geometry" />
        </mxCell>
        <mxCell id="WOx4rIqFdnK--00V2V1H-25" style="rounded=0;orthogonalLoop=1;jettySize=auto;html=1;exitX=1;exitY=0.5;exitDx=0;exitDy=0;entryX=0;entryY=0.5;entryDx=0;entryDy=0;labelBackgroundColor=none;strokeColor=#A8201A;fontColor=default;" edge="1" parent="1" source="WOx4rIqFdnK--00V2V1H-4" target="WOx4rIqFdnK--00V2V1H-2">
          <mxGeometry relative="1" as="geometry">
            <mxPoint x="110" y="320" as="sourcePoint" />
            <mxPoint x="165" y="250" as="targetPoint" />
          </mxGeometry>
        </mxCell>
        <mxCell id="WOx4rIqFdnK--00V2V1H-28" value="&lt;font style=&quot;font-size: 6px; line-height: 110%;&quot;&gt;P(S2)=0.6&lt;/font&gt;" style="text;html=1;align=center;verticalAlign=middle;whiteSpace=wrap;rounded=0;labelBackgroundColor=none;fontColor=#143642;" vertex="1" parent="1">
          <mxGeometry x="320" y="208" width="40" height="10" as="geometry" />
        </mxCell>
        <mxCell id="WOx4rIqFdnK--00V2V1H-32" value="&lt;font style=&quot;font-size: 9px;&quot;&gt;400&lt;/font&gt;" style="text;html=1;align=center;verticalAlign=middle;whiteSpace=wrap;rounded=0;labelBackgroundColor=none;fontColor=#143642;" vertex="1" parent="1">
          <mxGeometry x="360" y="148" width="20" height="20" as="geometry" />
        </mxCell>
        <mxCell id="WOx4rIqFdnK--00V2V1H-34" value="&lt;font style=&quot;font-size: 9px;&quot;&gt;-100&lt;/font&gt;" style="text;html=1;align=center;verticalAlign=middle;whiteSpace=wrap;rounded=0;labelBackgroundColor=none;fontColor=#143642;" vertex="1" parent="1">
          <mxGeometry x="360" y="208" width="20" height="20" as="geometry" />
        </mxCell>
        <mxCell id="WOx4rIqFdnK--00V2V1H-58" style="rounded=0;orthogonalLoop=1;jettySize=auto;html=1;entryX=0;entryY=0.5;entryDx=0;entryDy=0;exitX=1;exitY=0.5;exitDx=0;exitDy=0;labelBackgroundColor=none;strokeColor=#A8201A;fontColor=default;" edge="1" parent="1" source="WOx4rIqFdnK--00V2V1H-38" target="WOx4rIqFdnK--00V2V1H-44">
          <mxGeometry relative="1" as="geometry" />
        </mxCell>
        <mxCell id="WOx4rIqFdnK--00V2V1H-38" value="&lt;font style=&quot;font-size: 24px;&quot;&gt;6&lt;/font&gt;" style="whiteSpace=wrap;html=1;aspect=fixed;labelBackgroundColor=none;fillColor=#FAE5C7;strokeColor=#0F8B8D;fontColor=#143642;" vertex="1" parent="1">
          <mxGeometry x="240" y="360" width="40" height="40" as="geometry" />
        </mxCell>
        <mxCell id="WOx4rIqFdnK--00V2V1H-39" value="&lt;font style=&quot;font-size: 24px;&quot;&gt;7&lt;/font&gt;" style="whiteSpace=wrap;html=1;aspect=fixed;labelBackgroundColor=none;fillColor=#FAE5C7;strokeColor=#0F8B8D;fontColor=#143642;" vertex="1" parent="1">
          <mxGeometry x="240" y="518" width="40" height="40" as="geometry" />
        </mxCell>
        <mxCell id="WOx4rIqFdnK--00V2V1H-42" value="&lt;font&gt;P(Pred_S1) = 0.36&lt;/font&gt;" style="text;html=1;align=center;verticalAlign=middle;whiteSpace=wrap;rounded=0;fontSize=5;rotation=305;labelBackgroundColor=none;fontColor=#143642;" vertex="1" parent="1">
          <mxGeometry x="187" y="400" width="55" height="20" as="geometry" />
        </mxCell>
        <mxCell id="WOx4rIqFdnK--00V2V1H-44" value="&lt;font style=&quot;font-size: 24px;&quot;&gt;8&lt;/font&gt;" style="ellipse;whiteSpace=wrap;html=1;aspect=fixed;labelBackgroundColor=none;fillColor=#FAE5C7;strokeColor=#0F8B8D;fontColor=#143642;" vertex="1" parent="1">
          <mxGeometry x="320" y="320" width="40" height="40" as="geometry" />
        </mxCell>
        <mxCell id="WOx4rIqFdnK--00V2V1H-46" value="" style="endArrow=none;html=1;rounded=0;exitX=1;exitY=0;exitDx=0;exitDy=0;labelBackgroundColor=none;strokeColor=#A8201A;fontColor=default;" edge="1" parent="1" source="WOx4rIqFdnK--00V2V1H-44">
          <mxGeometry width="50" height="50" relative="1" as="geometry">
            <mxPoint x="360" y="340" as="sourcePoint" />
            <mxPoint x="420" y="310" as="targetPoint" />
            <Array as="points">
              <mxPoint x="380" y="310" />
            </Array>
          </mxGeometry>
        </mxCell>
        <mxCell id="WOx4rIqFdnK--00V2V1H-47" value="" style="endArrow=none;html=1;rounded=0;exitX=1;exitY=1;exitDx=0;exitDy=0;labelBackgroundColor=none;strokeColor=#A8201A;fontColor=default;" edge="1" parent="1" source="WOx4rIqFdnK--00V2V1H-44">
          <mxGeometry width="50" height="50" relative="1" as="geometry">
            <mxPoint x="360" y="354" as="sourcePoint" />
            <mxPoint x="420" y="370" as="targetPoint" />
            <Array as="points">
              <mxPoint x="380" y="370" />
            </Array>
          </mxGeometry>
        </mxCell>
        <mxCell id="WOx4rIqFdnK--00V2V1H-50" value="&lt;font style=&quot;line-height: 110%;&quot;&gt;P(S1|Pred_S1)=0.67&lt;/font&gt;" style="text;html=1;align=center;verticalAlign=middle;whiteSpace=wrap;rounded=0;fontSize=5;labelBackgroundColor=none;fontColor=#143642;" vertex="1" parent="1">
          <mxGeometry x="380" y="308" width="40" height="10" as="geometry" />
        </mxCell>
        <mxCell id="WOx4rIqFdnK--00V2V1H-51" value="&lt;span style=&quot;font-size: 5px;&quot;&gt;P(S2|Pred_S1)=0.33&lt;/span&gt;" style="text;html=1;align=center;verticalAlign=middle;whiteSpace=wrap;rounded=0;labelBackgroundColor=none;fontColor=#143642;" vertex="1" parent="1">
          <mxGeometry x="380" y="358" width="40" height="10" as="geometry" />
        </mxCell>
        <mxCell id="WOx4rIqFdnK--00V2V1H-54" value="&lt;font style=&quot;font-size: 9px;&quot;&gt;400&lt;/font&gt;" style="text;html=1;align=center;verticalAlign=middle;whiteSpace=wrap;rounded=0;labelBackgroundColor=none;fontColor=#143642;" vertex="1" parent="1">
          <mxGeometry x="420" y="298" width="20" height="20" as="geometry" />
        </mxCell>
        <mxCell id="WOx4rIqFdnK--00V2V1H-55" value="&lt;font style=&quot;font-size: 9px;&quot;&gt;-100&lt;/font&gt;" style="text;html=1;align=center;verticalAlign=middle;whiteSpace=wrap;rounded=0;labelBackgroundColor=none;fontColor=#143642;" vertex="1" parent="1">
          <mxGeometry x="420" y="358" width="20" height="20" as="geometry" />
        </mxCell>
        <mxCell id="WOx4rIqFdnK--00V2V1H-60" value="&lt;font style=&quot;font-size: 9px;&quot;&gt;A1&lt;/font&gt;" style="text;html=1;align=center;verticalAlign=middle;whiteSpace=wrap;rounded=0;labelBackgroundColor=none;fontColor=#143642;" vertex="1" parent="1">
          <mxGeometry x="280" y="350" width="25" height="20" as="geometry" />
        </mxCell>
        <mxCell id="WOx4rIqFdnK--00V2V1H-64" value="&lt;font&gt;P(Pred_S2) = 0.64&lt;/font&gt;" style="text;html=1;align=center;verticalAlign=middle;whiteSpace=wrap;rounded=0;fontSize=5;rotation=58;labelBackgroundColor=none;fontColor=#143642;" vertex="1" parent="1">
          <mxGeometry x="181" y="483" width="55" height="20" as="geometry" />
        </mxCell>
        <mxCell id="WOx4rIqFdnK--00V2V1H-66" style="rounded=0;orthogonalLoop=1;jettySize=auto;html=1;entryX=0;entryY=0.5;entryDx=0;entryDy=0;exitX=1;exitY=0.5;exitDx=0;exitDy=0;labelBackgroundColor=none;strokeColor=#A8201A;fontColor=default;" edge="1" parent="1" target="WOx4rIqFdnK--00V2V1H-68">
          <mxGeometry relative="1" as="geometry">
            <mxPoint x="280" y="540" as="sourcePoint" />
          </mxGeometry>
        </mxCell>
        <mxCell id="WOx4rIqFdnK--00V2V1H-68" value="&lt;font style=&quot;font-size: 24px;&quot;&gt;11&lt;/font&gt;" style="ellipse;whiteSpace=wrap;html=1;aspect=fixed;labelBackgroundColor=none;fillColor=#FAE5C7;strokeColor=#0F8B8D;fontColor=#143642;" vertex="1" parent="1">
          <mxGeometry x="320" y="560" width="40" height="40" as="geometry" />
        </mxCell>
        <mxCell id="WOx4rIqFdnK--00V2V1H-71" value="" style="endArrow=none;html=1;rounded=0;exitX=1;exitY=0;exitDx=0;exitDy=0;labelBackgroundColor=none;strokeColor=#A8201A;fontColor=default;" edge="1" parent="1" source="WOx4rIqFdnK--00V2V1H-68">
          <mxGeometry width="50" height="50" relative="1" as="geometry">
            <mxPoint x="360" y="566" as="sourcePoint" />
            <mxPoint x="420" y="550" as="targetPoint" />
            <Array as="points">
              <mxPoint x="386" y="550" />
            </Array>
          </mxGeometry>
        </mxCell>
        <mxCell id="WOx4rIqFdnK--00V2V1H-72" value="" style="endArrow=none;html=1;rounded=0;exitX=1;exitY=1;exitDx=0;exitDy=0;labelBackgroundColor=none;strokeColor=#A8201A;fontColor=default;" edge="1" parent="1" source="WOx4rIqFdnK--00V2V1H-68">
          <mxGeometry width="50" height="50" relative="1" as="geometry">
            <mxPoint x="360" y="594" as="sourcePoint" />
            <mxPoint x="420" y="610" as="targetPoint" />
            <Array as="points">
              <mxPoint x="386" y="610" />
            </Array>
          </mxGeometry>
        </mxCell>
        <mxCell id="WOx4rIqFdnK--00V2V1H-75" value="&lt;span style=&quot;font-size: 5px;&quot;&gt;P(S1|Pred_S2)=0.25&lt;/span&gt;" style="text;html=1;align=center;verticalAlign=middle;whiteSpace=wrap;rounded=0;labelBackgroundColor=none;fontColor=#143642;" vertex="1" parent="1">
          <mxGeometry x="380" y="548" width="40" height="10" as="geometry" />
        </mxCell>
        <mxCell id="WOx4rIqFdnK--00V2V1H-76" value="&lt;span style=&quot;font-size: 5px;&quot;&gt;P(S2|Pred_S2)=0.75&lt;/span&gt;" style="text;html=1;align=center;verticalAlign=middle;whiteSpace=wrap;rounded=0;labelBackgroundColor=none;fontColor=#143642;" vertex="1" parent="1">
          <mxGeometry x="380" y="598" width="40" height="10" as="geometry" />
        </mxCell>
        <mxCell id="WOx4rIqFdnK--00V2V1H-79" value="&lt;font style=&quot;font-size: 9px;&quot;&gt;0&lt;/font&gt;" style="text;html=1;align=center;verticalAlign=middle;whiteSpace=wrap;rounded=0;labelBackgroundColor=none;fontColor=#143642;" vertex="1" parent="1">
          <mxGeometry x="420" y="538" width="20" height="20" as="geometry" />
        </mxCell>
        <mxCell id="WOx4rIqFdnK--00V2V1H-80" value="&lt;font style=&quot;font-size: 9px;&quot;&gt;100&lt;/font&gt;" style="text;html=1;align=center;verticalAlign=middle;whiteSpace=wrap;rounded=0;labelBackgroundColor=none;fontColor=#143642;" vertex="1" parent="1">
          <mxGeometry x="420" y="598" width="20" height="20" as="geometry" />
        </mxCell>
        <mxCell id="WOx4rIqFdnK--00V2V1H-82" value="&lt;font style=&quot;font-size: 9px;&quot;&gt;A2&lt;/font&gt;" style="text;html=1;align=center;verticalAlign=middle;whiteSpace=wrap;rounded=0;labelBackgroundColor=none;fontColor=#143642;" vertex="1" parent="1">
          <mxGeometry x="280" y="550" width="25" height="20" as="geometry" />
        </mxCell>
        <mxCell id="WOx4rIqFdnK--00V2V1H-87" value="&lt;font style=&quot;font-size: 9px;&quot;&gt;NHR&lt;/font&gt;" style="text;html=1;align=center;verticalAlign=middle;whiteSpace=wrap;rounded=0;labelBackgroundColor=none;fontColor=#143642;" vertex="1" parent="1">
          <mxGeometry x="100" y="260" width="25" height="20" as="geometry" />
        </mxCell>
        <mxCell id="WOx4rIqFdnK--00V2V1H-88" value="&lt;font style=&quot;font-size: 9px;&quot;&gt;HR&lt;/font&gt;" style="text;html=1;align=center;verticalAlign=middle;whiteSpace=wrap;rounded=0;labelBackgroundColor=none;fontColor=#143642;" vertex="1" parent="1">
          <mxGeometry x="100" y="353" width="25" height="20" as="geometry" />
        </mxCell>
        <mxCell id="WOx4rIqFdnK--00V2V1H-90" value="&lt;font&gt;-100&lt;/font&gt;" style="text;html=1;align=center;verticalAlign=middle;whiteSpace=wrap;rounded=0;labelBackgroundColor=none;fontColor=#143642;fontSize=15;" vertex="1" parent="1">
          <mxGeometry x="130" y="350" width="25" height="20" as="geometry" />
        </mxCell>
        <mxCell id="WOx4rIqFdnK--00V2V1H-285" value="&lt;font style=&quot;font-size: 10px;&quot;&gt;100&lt;/font&gt;" style="text;html=1;align=center;verticalAlign=middle;whiteSpace=wrap;rounded=0;fontColor=#143642;" vertex="1" parent="1">
          <mxGeometry x="145" y="194" width="60" height="30" as="geometry" />
        </mxCell>
        <mxCell id="WOx4rIqFdnK--00V2V1H-288" value="" style="shape=image;verticalLabelPosition=bottom;labelBackgroundColor=default;verticalAlign=top;aspect=fixed;imageAspect=0;image=data:image/png,iVBORw0KGgoAAAANSUhEUgAAAgsAAAB2CAIAAADJHkevAAAgAElEQVR4Ae2d+1cTydb3n3+1clnJColAEsBk4OEyWYloxEF0uGTAeBQGdLwQUBGORyaSE87AgIADg4IojCIYY5yQQJ+Q7ofDfk+tevtGkwSIw84vVCrV1VWf2l3fXbfmfwT8IAEkgASQABKQI/A/cpEYhwSQABJAAkhAQIVAI0ACSAAJIAF5AqgQ8lwwFgkgASSABFAh0AaQABJAAkhAngAqhDwXjEUCSAAJIAFUCLQBJIAEkAASkCeACiHPBWORABJAAkgAFQJtAAkgASSABOQJoELIc8FYJIAEkAASQIVAG0ACSAAJIAF5AqgQ8lwwFgkgASSABFAh0AaQABJAAkhAngAqhDwXjEUCSAAJIAFUCLQBJIAEkAASkCeACiHPBWORABJAAkgAFQJtAAkgASSABOQJoELIc8FYJIAEkAASQIVAG0ACSAAJIAF5AkWhEHNzc729vdlsVr6M+cVubW319fWl0+n8svnKrn79+nVnZ2cqlfrKyv3VFvdIbVgQhEePHq2srHy1eHIpeCwWa2tri8ViuVz8l7imGAicvEKMj49XV1dvbm6qtOn29nY0Gu3q6goGgzMzM5lMRhCEN2/evHjxQuUq+Ckej3u93ng8fmDKE0+QzWYTiUQ8Hn/16tWnT5/yKQ/P86FQ6Ny5cygS+WDUeK0WG85kMjMzM8FgsKurKxqNbm9vC4IQi8Wi0aiWu7S2tk5OTmpJebJpeJ7/888/4/H427dv19bW8iyMFrB53qLILz9xAgVQiI6ODqL80ev1DQ0Nv/32G8/z0sZ49eqVw+GYn5+X/gQx2Wz20aNHZrPZ6/U+efIkFAq59z/RaNRut8/OzipdSONVFGJlZcVqtSqXndhstp6enuMZf+zs7Ph8PiiMwWDQUjVaR9lAJpNpa2sLBAIgqLJp8o989uxZVVVVIpGQZrW+vn7r1q1AINDd3b26uiprANlsdnZ2NhgMBgKBhw8fJpNJaT7HEDM1NaXT6VQswW63P3r0iOM4aWEOtGGe5ycnJ61Wq9vtfrz/8Xg8paWl0WjU7XaPjIxI85TGKCkEazay5TcajX6/f3V1VZrnUcSwvYHGqqkUg+f5+/fv+3y+InR0ksnkgwcPtra2lMqvxf45jgPfNxAIhMNh8BvYDE+cQAEUQhAEnud//vlnQv7Tpc7Pz0OXynFcLBb7+9//brFY9Hr9gwcP2JoLgpBOpxsbGzs6OnZ3d0U/wddMJtPZ2VlSUjIxMUH7l0wmEwgECCFOp1OLo62iEHCXL1++1NXVEUICgUAikchms+AHrays+P1+Qkh1dfXxDHV5nl9cXLRarXa7vSB3XF1dLSsrC4fDsnjzj1xdXS0tLXU6naIhGs/zAwMDJpPpxx9/XFxcfPjwYUlJyc2bN0ValUqlLly44HA4RkdHFxYW2tvbS0pKfv311/wLllsO79+/LysrI4SEQqE///yT53kY1c3Pz9fU1BBCLly4IHIXDrRhiuLhw4d0HhVGeDqdzmKxLC8vaymtkkLAtdlstre3lxBy9uzZ1dVVULJ0Or25uXn79m2j0WgymY5tCLK+vl5ZWWmxWJaWlrRUTT1NIpFwu919fX20B1BPf9S/chz3/v37e/fuWa1WqeXD3Wmjq9v/5uam2+2uqamZnJx8/vy53+93OBzSucSTJVAYhRAEAQzU6/WKHiFBEIaGhgghdrt9Y2ODbb+xsTGr1aryhIyPjxuNRmkH9+HDh7KyMr/fL+vTsbcQBOFAhYDcdDrdxMSE6NpEIuFyuQght2/fFv10RF9nZ2cNBoPGqh1YBp7nr1275na7ZX38Ay9XT5DJZC5fvgxSLVKIiYkJk8kUCoXoUx2JRIxG48DAAM1zd3e3s7PTZrO9evUKImHQY7PZXr9+TZNpDLx58+b333/XmFgp2cLCgslkku213759a7PZdDrd2NgYe/mBNry8vGyxWKQd3J7vWVtb63a7v3z5wmaoFFZXiN3d3ebmZkJIW1sbZQ5ZgQ0QQurr64/HE19bWztz5oz2qilVmcYPDQ2VlpYe2zCI3lca6O/vJ4SYTKaGhgaDwaCkEFrsH3yLqqoqOsGeSqU8Ho/L5ZJ6hydIoDAKQYe6wWBQinV8fBzGv6wXk0ql6uvrz58/r9TLQwJZbzqdTnu93rt370rvJY05UCFghuHMmTPSadN0Ou3xeAghssonvVf+MSC0vb29+WcFOSwsLJjNZlG/VpDMw+FweXm5yWQSPSfQcGVlZR8+fKA3gg7R5XJRrVpcXDSbzc3NzewIEvroa9euibo5mo9SoH//o/SrxvjBwUFCiGzXFovF7HY7IaS1tZXmdqAN7+7uXrlyRcmbbm1tvXr1qsaaqitEIpGoqKgghMhO7Ny9e5cQIqt8tC4FDITDYUKIqGXzyR98uGPz0rQUFYRfZPlwoUb7Hxsb0+l0oicd0A0NDYnKcIIECqMQKm44HV6YTKaFhQVac+ggZA0a0sAigezjCvKrcab+QIVQGf1AvQpr7pSANMBxnN/vL8giBM0cuuZCDUpotuvr67W1taOjoxaLRfScQC/v8XjY0SQ4uexADbCLZB6Aa5w/pIURBCF/hVBxwwVBgEoRQthH+kAbho5b1vkQBKG1tVXF/tnaQWLWwRL9qjL6ofUSabYohwJ+DQaDSlqV212gCrJdQW4Z5n+VikJosX/aKOPj42xh4FqpP3qCBAqjEOpuuNfrlQ5y+/v7lXwrQDY9Pa3X681ms3Qde2dnZ2hoSOOqprpCqI9+JiYmdPufo/DBWcuAMPSPhX2SeZ5va2srbJ6ZTKalpWV4eFj2ORkZGZEddbW2ttIeFrSQENLf389yiMfjTqdT5EywCZTC+SuEuhsO0wtms3lxcZGW4UAbpnNT0pnSbDb75MmTPaGluakH1McQKqOfT58+OZ1OQsiVK1fY4Zr67XL+FTySHFpQ/Y79/f0Fz1P9juq/ylo+XKLF/r98+eJ2uwkhItWHbGWf1pMiUBiFUHHDZ2ZmjPsfVi2hgxD5nqImoRuNTCZTIBCYnZ1Vmo8SXSj6qq4QKqMfjuMuXrxICGG3UsRiMY/HYzQaGxoaYrHYb7/95na7rVZrVVWVaImJ47jR0VG3222xWEpKSlwul3ThLhaLBQIBi8ViNpsbGhqePn1qMBh8Pt/Ozo6oFvl8HRwc1Ol0U1NT+WTCXhsOh5uamjiOk31OwIWU+kGgEDBLQ58QWYWQPjns3WXD+SuEihsOS4Wwl4EutmuxYao6er2+ubl5cnIy55UAFYWgDql0EUIQhOHhYZ1Ox673FNaG0+l0T0+PzWazWCyVlZXhcPjMmTMVFRV0OlG2vQ4bCT7o4ODgYS88ovSylg/30mL/sFQjtXPIVnY+8KQIFEAhqD8oXYR48+ZNRUWFyWQaHR1l51uhg5B2Imxz0oVQuodPp9OdPXt2fHyczYq9RDasrhCwMiydB+A47tatWzqdzufzff78GXLe3d2FTWlLS0sWi8Vms9XW1v7xxx8zMzNlZWXsnPLa2prL5XI4HDMzM7A56unTpzU1Ney4Z25urrS09OrVq+l0OpvN3r9/HzZcsvMYtEbsrtBnz57t7OxEo1HR+jBNLApMTk4SQgr1dG1sbHz77bewbCj7nIASSBuXjYexgtIYQhovqpH0a/4KAa6fdCojnU5fvXpVp9O1tbVt7x9igLtrsWGe5/v6+qgBQ8Butw8NDVGlkdZFNkZFIajciuaseJ5//vy5zWYrLS2dm5uDbAtrw2DnHo8nFovxPA/7EZRmZfOxYbC0jo4OWTjHHylr+VAM1s7ZgrHxcLmSQkjjBUE4KQIFUAhww2FiIfDfT3t7+9mzZ/V6fWNjo3QTAqz7HTg5nkwmr1y5otfr2WdMp9OxW2KgDTY2Ni5duiTrJqsrBIx+bDYbHB2A4jc1NZlMJqvVKtoCv7a25vV6v3z5AroCu27o80nNd3Nzs6qqivXaBEFYWlr65ptvaJ++dybOZrPV1dVRzYB9U7LOfiqVunz5cldX155Pmkql7t+/73a7v/32270RPWuCSmHQM1nhUbpEKT6TybS3tw8PD0MC2eeEfRLYfNj4YlMI6oY7HI7/mvB//vp8PqPR6HQ6//nPf9K9qlApjTbMcVxPT4/RaGRtmBDS2dlJ53wymczAwIDL5TKbzUo+kIpCwOhHr9dfvHiRFr61tdVut+v1etGx5ALaMNj53m4FOlfGcdz58+dl3ZE8bRhoF3D1m7XMHMKylg/5sHbO5szG56AQJ0WgAAoBwx+z2TwwMBBlPjMzM0pjagDEbgthUYrCHMfNzs7+8MMPsFddtNvkxo0bZWVl33zzjazwqu92pYsQPp+PKfh/gmtra6IeQRCEcDgM4ySY9oUtN7u7u319fV6v9927d4Ig0KEPu/UC/FDaKcBKOyGEnZ4GC5BOQcKuUPbgG3Rn0hGbiBv9qoU2dFJer/fNmzf0QmkgEon4/X66BC37nLBPApsDG19sCkGng9ra2lhL+OWXXzY2NmTHrFqo0upnMpmlpaWenh6n0wkjRTps5Xm+p6cnEonwPM9x3PXr1/V6/bNnz+i1EFBRCLDG0tLSJ0+esIV/8eKFdGK2UDYMZkkXlqCQsPdPumCQvw2DwUgHpiwlGMTU19fPzMyw8UcRlrV8uBFr5+yt2Xi4XNplKcVDP+Z0OtUJsLcrVLgACgFueG1trUaXlo6YNCoErSqdipHO08FEimjZBy5UGUPQ0Q/bU9PbKQWgg2a35bApYX8LIaSxsREcOp/PZ7FYrl+/TucopqenDQaDSAxgXCJdhFhbWysvLxdt3Orv79deZi19GV31URnYbW5ufvvtt+xhBdnnhH0SWDJsfM4K8fbt22+++cYh+ZTsfyTRjoqKCulOB7ZUEAY3XNq1SVPSGC1UaWIaYKdiwFwTiURVVdWlS5dAd2FhWTrZpaQQdPRzKP86fxuGRXgRMZhely5C5G/DWhSCyryUHuUvCEIymTx37pzUVGRjGhoa6AiJzUTW8iEBa+fsJWw8XH4qFIK64bKrZCwgNqz+dG1tbYVCIVm9gT69UAoBox9pbmxRpWGYVqI+oCgBTGdTh25ycvLjx4+iSWd4M4GoL767v2ldOhcE4vf06VP2Rvfv34chCxupFFanDVfFYjHX/tnA69evy7rM4AZeuHDh1atX8f9+nj9/brFY7Hb7yspKPB4Hj1Vp2wI8IeAWwI4X6XoDVQ5ZsYchGry66r9F+H9/+/Y/osh4PJ5IJETwZSmBG36oXbbqVDmOGxoaEh0RhVvTukMdNzY27HY77VXhrI90E4eSQtBuUbTmL1tNGpm/DQMxUV8MJ5+kWpW/DWtRCDo0v3jxonTwROtO334mtRZpDLxkgV5LA9D60maim/ulzj5r/9Q3Fdk5ZCvbI2khQItXwEC+YwhaVe0urSAI4GuwS7tslZaXl8+dOyerEDAVI7JLQRByG0PkMPqhW+OlFgBVgG2Rot6frR10AYQQ9igArPbLLkLAoCSfDV1gdnSZhC0MG+Y4Tul5EARhZ2enpaVF5GfZbDZCiF6vLy8vdzgcMNCBUz9SPvCEgARSz1fUr8FjIPJM2UIqhfNZqaaFkXZtSrc70IY/ffrk8XjYM4M0K5iKYT2Mrf0PJIC+W2rhSgqRw+gnfxuG8xmEENEjDNt4pHsi8rdhMAzpCJtShUAmk9HoE4guPOxXFYXQYv8iL4HeHbIVzS7ArxoJ0KwKFchXIeDEgKzoqRRRXQ/3tmQozVlN78/PSP3cHBSC9tSHGv0IggCjBKVlAFAIlQk0el/WfWAXIeLx+JUrV+jLGODlVPS9cnq9vqenR4tfTPnD/JWoL6a/5hMA7CJPCqxc1MfBWJOdmgNQIoww2XUoXx7Kn49C0BMDh0KkbsOzs7NOp1NWIWB+RsnPhTfNSPdiKCkEYDwssTxtmCoES4xdhEin0x0dHXSLSv42DD6lymOVjxnncK2KQmixfzilJD1XCLMaUu+KeiTHTyBfhcjNDQdjEnUi0E7ATnQ0CX6CAwoVFRXSwXsOCpHb6If6m+zxDtbCoDsW+VaCIHz+/LmlpeX9+/fUOFiFiEQi9CTExMSE6HATz/Pv3r27d++e2+3W6/XsoetsNjs1NSU6isGWRxAEGPsrFViU+FBfZRUCNrSwPrIgCLBTi33rBnSUosEWeADH/NaN3NxwFRuGM97SlzjBOy6vX79usVhevnwpRQ0HL9hdCTSNrEJQazzU6IdepWQSB9owVFA0Sfjy5UuLxQLTZcvLy+fPn2c3qqjYMM/zS0tL6svLsB+PHXZTMicSUFEIjfYPpi7ykOAVdtK3bsBmSIvFcvwEclQIjuPgFfDV1dWEkEuXLsGcr3T/j2z7QS8p6kQgJd08WltbyyoBbAeyWCyy7/7UrhD0/fUPHjzQ6XRms3lqaioej9P9ObIFppHqE7j0hbXsFkCe5+fm5txu99DQEEzxwylC2OzE83w0GoW3wl29evXf//731atXp6en6R1FAdAS8N3u3r178eJFp9PJio0oPUyMHnaQJ82EjaEMBwYGCCGlpaWwOEEnf6GC9HV1PM8PDQ3p9Xq6TZb2leyZ+XQ67ff7c3tHWw5jCJiPjsVi169fJ4SUlZW9fv2arqaw9ZUNq9gwPSHkcDjYY5JwyMZkMlFLYHPe3t5ubW2VvgEX0ogUIp1Ox+PxhYWF0tJSQkhPT088Hof30bJ5yoYLYsPwWl/qyiwuLsLmWo/Hk0ql+vr6ZLs5KA9rw8+ePfP7/W63mx2OSIsdDofZAag0wfHEQL8Xj8cjkQi85HFiYkK63KXF/sHfZTuKz58/w782kD1seFIEclSIGzduiPZ3E0LoapuW1lKq8PLyckVFxdzcXFtbm8FgcLvd7e3tLS0tFoulrq6OjltFt9CuEO/evYOHSlR+6eSp6BbwFTxflRcOwnChsbGxpKSkpaWlqanJZrNduHCBLTnP848fP7ZYLHv5uFyu5ubmjx8/BgIBk8nkdrt/+OEHOol08+ZN0fgAnBfq/cGclYpCQG+lNGsnW8cDI+lEmYghLQZU0Gw2NzU1RSKRQCBgNBrv3LlD6wW3SKVSLS0tZrO5t7c3HA7X1dWxZ7sOLAabIAeFePHihfSYguxSEHsjNqxkw58+fXK5XGNjY3fu3IE3gLbuf0pLSysrK+fm5qR7AWAeJhQKgY/15s0bKrdwR1YhMplMU1OTCD7ZP/yv5TR+QWxYEISpqSmbzebxeGpra/fedfrHH3+EQiGDwVBTU9PY2EgHEAfaMMxZqStEMBiUnZ1nm+MYwtDPSMmLPDCN9h+LxfZezWC1WgcHB0dGRiorK10ul/T9oVCvkyKQo0Lk3xgwySMaZAmC8PbtW7qf8uPHj6Ojo11dXbdu3ZI9oECLoV0h6CW5BcB9Fj29slltbW3B1gilxOCP0AV5yJldK97a2rpw4YLIYqanp9l5tgMVAjizhzNkS3sUkclkEnbfh8NhejBQdCOYfAiFQt3d3XNzcyIJESVW+ZqDQqjkpvEnJRve2NiYn58HGUgmk9FoNBgMdnd3v3z5UraCPM8/ePDg8ePHcMnOzg78qxK2GKxCsPE5hAtow7AyzI5dtra22LViLTZ8oELAui4dr+RQ5RO5RIv9Z7PZ5eXlW/uf5eVlpTmYEyRwYgqxu7vb0dHBTkzn04rHphD5FPKw166srNhsNva/LCSTSY/Hw87VHKgQ4XB4b8fR27dvD3v3ryv94P7nmMtcEBvmef7p06dVVVX0OLTX621sbBSNBgqoEMdJSYsNH6gQCwsLFotFZer1OGt0Ivc6QQInphBwbs5qtR5qm6y0eW7cuOFwOEwmE/xnD4fDwXag6meqpbkVVUw4HG5pafnuu+/OnTv35MmTR48ewb+xZOco1BUCXlVPz3IXVe3+GoVZXl7O04bpS9zYuQvplpWvVCG02LC6QsD/2GhsbNS4UvjXsCu2FidL4CQVAv4XY3V1tezKDMson7DKmep8sj2Ga/emszmO43l+Y2Pjl19+kX2JgrpChMNhl8tF/4nVMZT5tN3ieGwY+lC6zPMVQdZiw+oKMT8/73A46D8i/IrqXqiiniyBk1QIQRBSqZTP55OebygU3K96DKEFgopCbGxsuN1uuqatJTdMkwOBY7Dhr1chNPJsbW2VXalOpVJer5edaNWY4V8m2YkTOGGFAJG4dOnS06dP2cmTAjbw1zuGOBDC1NTU999/b7FYGhoaQqEQuySeSqWamppQHg5kWJAEqVTqSG34L6wQKysr7e3tZWVlZ8+e3XuzId24AW9Y6ezsHBgYOKKeoSBNf6SZwA63kyVw8goBppBMJo/IDnieT6fTR5T5kdpHPplzHMc+bPlkhddqIZDJZI7OhuGtJ7L7oLSU7StNc9RIix9LMRAoCoUo/qbCEiIBJIAETiEBVIhT2OhYZSSABJCAJgKoEJowYSIkgASQwCkkgApxChsdq4wEkAAS0EQAFUITJkyEBJAAEjiFBFAhTmGjY5WRABJAApoIoEJowoSJkAASQAKnkAAqxClsdKwyEkACSEATAVQITZgwERJAAkjgFBJAhTiFjY5VRgJIAAloIoAKoQkTJkICSAAJnEICqBCnsNGxykgACSABTQRQITRhwkRIAAkggVNIABXiFDY6VhkJIAEkoIkAKoQmTJgICSABJHAKCaBCnMJGxyojASSABDQRQIXQhAkTIQEkgAROIQFUiFPY6FhlJIAEkIAmAqgQmjBhIiSABJDAKSSACnEKGx2rjASQABLQRAAVQhMmTIQEkAASOIUEUCFOYaNjlZEAEkACmgigQmjChImQABJAAqeQACrEKWx0rDISQAJIQBMBVAhNmDAREkACSOAUEkCFOIWNjlVGAkgACWgigAqhCRMmQgJIAAmcQgKoEKew0bHKSAAJIAFNBFAhNGHCREgACSCBU0gAFSLfRl9fX79161YgEOju7l5dXeV5/lA5spf/8ccf7LWJRKK2tnZsbCwu90kkEtlslk2fZ/jDhw9Op3NqakqaTzweHxgYCAQCwWDw999/V7ovW5ccUEjve9iYbDY7OzsbDAYDgcDDhw+TyaT2HJLJ5JMnT6COk5OT29vb0mt5nn/37h00961bt5aXl5VQSK89nphkMvngwYOtrS3Z22nkw3FcNBrt6uoKBALhcFgWhWz+BY/keX55ebm7uxuer5cvX8oC397ehgJ3dXWFw2Fpu3McNzIy8ubNm0wmA4XkeX5jY+PRo0fSxAWvxVedISpE7s3H8/zAwIDJZPrxxx8XFxcfPnxYUlJy8+ZNaoXqWXMc193dbbFYgsFgNBq9c+eO3W6fnZ2lVy0vL1ssFqLwcTqd8XicJs4zwHHcxYsXCSGTk5OirMbHx81mc3t7+8LCwujoqMPhaG5uTqVSbLI8UbBZ5RxOpVIXLlxwOByjo6MLCwvt7e0lJSW//vqrlgx//fXXsrIyaIjBwUGr1WqxWCYmJli9z2QyN2/edDqdjx49ikajgUBAr9fX1tZubGxoucWRpuE47v379/fu3bNarUqGoZHP5uam2+2uqamZnJx8/vy53+93OBwrKytHWn7ZzLe3t9va2qqqqtrb21tbW61WKyGkoaEhFoux6VdWVioqKr7//vtIJDIyMlJZWWk0Gh8+fMhqSTqd9nq98CTZbLby8nK9Xk8I+f77709Q/9haFG0YFSL3ppmYmDCZTKFQiPYjkUjEaDQODAwcmGkmkwkEAjab7dWrV4Ig8Dx/48YNnU7X3Ny8u7sLl09OTiqoA9HpdOx9D7zdgQnC4bBOp5MqxOvXr202WyAQoLL38uVLi8XS2dlJyykIQj4oRGXLZDKRSCSdTovi1b/u7u52dnZSnoIgZDKZtrY2m832+vVr9WtXV1fLy8tDoRCt49jYmE6ns1gsy8vL9Nrh4WG73T4/Pw8xu7u7V65cIYR4vd7DlpbmWZBAf38/IcRkMjU0NBgMBlmF0MgnnU43NjZWVVVtbm5C2VKplMfjcblcon65ICVXyYTn+evXr3d0dHAcB8k+f/5cX19PCPH5fNRBSSQSbrf72rVrtKNfXFw0m80Gg2F8fJzmzyoEPFPw5NLMaUoMiAigQoiAaP2aSqXq6+vLyso+fPhAr9kb3dfW1rpcrr0JIhopGxgYGNDpdENDQ/Drzs6Oz+cjhPj9fmq1g4ODfr9/c3NTNMl08+bNixcv0mSy+R8qcn193eVynTlzRqQQ0AmaTKaFhQWa4e7ubnNzs81me/v2LUTmiYLmDIF4PO71eg87PIJ+gdVXQRAWFhZMJtO1a9eohIvuBV9HRkYI+Y/ojo2NQQwdvd29exdiOI7z+/2EELvdTgcN0DVbLJalpSXZnI85EootqxAa+YA09vb2siUPh8OEEGqr7E9HF/7w4UNZWVlNTc2bN2/oXaanpw0GA9tSs7OzBoOBEHL79m1IFo/HnU4nIeTq1au03UEhbty40b3/mZqaohpDM8eALAFUCFksB0dC7+PxeFj/EXpPnU43MTGhksXGxobdbhepy8LCQjAYZJ+Hjo6OcDgsymdmZqa6upq6eKJfc/iayWRaWlpCoRAMw9lZJnhK7Xa7yH/s7e0lhPT398Pt8kEhLXBuCgFFoh06ZAvldzqdnz59kt6IxkxMTOj2P1KFoHXkeb6trU1JIdihBs32+AMqCqGFD1gvIYT1vqnQHvNQCSSNENLS0kLni2jv39HRAXiplksVorW1lTYBKARr2/QnDKgTQIVQ56P4Kzie0semtbWVECLywkS5wLUidRGlyWazIyMja2trbPzm5mZ1dbXoAWYT5BAOh8NNTU2JREKqEOCgSX1S8J2pw54PCmmBc1AI6uDTDh2yhQ5FNAaS3jGbzS7sf2hPBJphMBimp6dp+nQ6PTk5ub6+DjFUM7QMGWkmRxpQUgiNfL58+eJ2u0XjSEEQIFuRQ3OkFREEAbwodq/BlH4AAAtLSURBVHAgCAJVCNr78zy/srIyMzNDh9RUM9hBDypEzu2FCpEjumAwKDsHDQpBLViaO8/zV69ehVFwPB4PBAIOh6O6unp0dJRaufQqmFgPBAJ9fX107Cyb7FCRe/1dbW3t6uoqnahl/Szo+pUUgqpjzihki5qDQtCuTVYhpF2e7H1pZCaTuXz5MiGEXX2hv9LA+vp6eXm50WgsrGDT/HMIKCmERj5ra2vSmUaqEKJVmRyKd9hL0um0aMMeDApVPDCe5/v6+sj/v1YhCAJViGQy+a9//SscDhfhPrTD8jme9KdFIXie//PPP0UT+upf1ftrUALaS9LWUoqnCWhf7PF4Lly48Pvvv3McFw6HLRaLdI8QvUoQhPHx8ZqamgNXONhL1MOZTKa9vX14eJg+QqLOFMYKSgpB45WqrBSvXqocFIK6lkoKIYqXLUA2m00kEu/fv4dNSi0tLbJT1RzHxePx+fn5mpoak8n0+PHjAgq2bMG0RyophEY+1PtmvQSqECLbEJWq4M+XKH/4CsskZrN5cXGRTQB339zcvH37ttFolO53gofO6/VWV1ffu3fv0aNHTqfT5XKJxuhsnhgGAqdFIWKxWH19veMwn59//lnFSpS6P6V4mlUikaioqCCEiLZb3L59mxBy//592R4H9mzQyVaaWz6BSCTy3XffgRBS3WJ7h1OlEIlEwuPxOByOkpISn8/38uVL2YaYnZ11OBx2u91isfztb3877Ip6Pu114LUnqBAFf76klU0mk3V1dbK7+HZ2dlpaWhwOh81mq66unpycpBOGkA+YN7szCoaAx79HS1qvIo85LQpR8GZQUgKleFoA6tC53e4vX77Q+KmpKZ1Ox26VoT8JgjA8PGw2m9k9ReyvovC7d+/OnTv3008/0e2bogQwz1tfX093gqJCUESZTKavr0+n0+1txt+WOzcHKWHzpclkGh0dldUSSMbzfCQSqa+vn5mZobc4osAJKsQR1Yhmy/P8/fv3dTpdZ2enilXzPP/kyRODweDz+T5//kwv393dnZ+fZx83uixfWK+L3vEvE0CFyLEplZRAKZ7eBnbEija20rG8TqeTnmqG7aTSPUU0T1Ggo6MDxijs+Ts2TSaT+eGHH9hzG8evENlstru7Wzqog8n98vJy6U9tbW2yU39UdEWzSUrxLArZcCKRcLlchJDr16+r9P6w+dJoNKr0/nTIKHIIRPedn5+vqKiQVlk2pqurS5bDX1ghxsfHTSbT7du3VeQBkHIcd/78eULIgTvCYf2strZW6Qi6qI1O51dUiBzbHbYPKq1DqKxU06MPojRKs8CCIMDOP+2mDIctSktLV1dXZas3MTFRWVkZjUZjsRgsxqyvrzc0NBBCRkdH9zpWeGZgIzxdb6BZwewTrXvOKLa2tqRLQSsrKw0NDSsrK9KflJ5kKrpKCsFOndFaqASog3nmzBmVqWq6cMqeYhFlC2fQDuywYHlDWmXZGCUOSgqhkQ+tjggXZHv8K9WU5OzsbFlZ2dDQkIpa08SCIIBBGgwG6iGl0+nnz5+zG9MFQVCaRGWzwvBpUYhMJjM7OxvV/Pnll1/Up5ih96S9JLUkGEOo73YFH1+7Qoh6ZHovpQAs3ImeBzbx8PCwyDml7yGw2WwOh+PGjRt0I7ySQtDdrvmgYEsF4RxWqmmHLqsQ6rtdeZ4fHh4+e/bs8PAw2wFBOxqNxhcvXgiCkEql9tqrtraWff8EHaNUV1ervN4nk8kkEokDnV8pisPGKCmERj5USGQVQn23a8GfL1r3V69elZWVRSIR2jqzs7Ngn4IgTE1NnT17tre3l8ULzwsh5B//+IcgCBzHXbp0SSrSqBAUskrgtChEMpns6ekJHOYjne1hOcLTKJo6gPHBgSfmYEuGz+fb2dmheS4tLVksFml3Rh9vFUeVZpJzgHZ2bO/w6dOnPXmQ+tGgcLQ7zgeFtMA5KAT1B4PBIJvhysoKvKdI5cQc3eLJCiFlbrVaQRJg4y8hhNV16nSLmpItw3GGlRRCIx96wmNkZIQtNqyQSZ0hNk3Bny/IfHNz83//939F+4n7+/vhaCTdxSsa38AYgk7YptNpj8cj3Zt+4IQwW8FTGz4tClHwBobpTlHvCfPX7BGqTCbT2dlpMBh++ukn6gTBaSA2GWxmlRoxuw+V7ZsKXh1ZheB5/tq1a+xoHTyy8+fPs2/d0IhCY5lzU4i3b9/abDaRiE7vv6SBfesGvL3OZDLRjWqggoSQ+vp6ur2VetM0Es7QiQ5wwWFyUaTGah5FMhWF0MgHiImEdmho6PjfuiEIwufPn30+X1dX18zMzObm5szMTDQajUQitbW18K4BunjG7u+g6k4j4eUxgUCAnRWAa3U6Hez2Porm+GvkiQqRezvOzMwYjUZ6hI3n+aGhIb1ez9oc7XkrKirYowwDAwN6vZ6+fS+VSvl8PvbFc7RYdKnziBQinU7H4/GFhYW9Tp8QMjw8vFdmOtO9urpaWlp6+fJlOoqfnp42Go2iJVwtKGiN1AO5KQS86M1sNtM366XTab/fL1qMgT4UTlTBAA4urKqqYl+9HolEDAYD2xyw25jd3QRvBpQezlKv3VH8StcwIpGIyWSCt9LG43F2aksjH3jFb3l5OT06/vnzZ/f+h7Xeo6iFKE94ImTfXMmOs4eHh61W62+//UYvhzdLik4yvnr1qrq6mu7c43l+bGwMtjxRt4DmgAGWACoES+NwYZ7nHz9+bDabm5qaIpFIIBAwGo137tyhnSkchJaOISC+p6fHaDT6/f729vbKysrS0tK5uTlpCag/S99FI02TTwydtGWfRlaNpqamrFZrXV1dOBzu7e01m81sRwm31oJCYyFzUwhYKmhpaTGbzb29veFwuK6uTopUOoYQBGF7ezsYDJpMJp/PFwgE/H6/Xq+vrKxk+x1BEN69e1dXV2ez2VpaWgKBgNvt1ul0ly5dYndVaqxjYZMpvQNYNPeSSqUO5CMIQiwW2ztxZrVaBwcH4WXaJ3KyjI7PWLOEMDtwz2QyoVDIYrHU1tYGAoHm5maTyWS1Wtl1C3h38t6+DKvV2tTUFAgEvF6vwWC4fPmyyupRYdvo680NFSLftksmk+FwOBgMyv7rEvXcP378ODIyEgwGlf5lDVy+tLQUCoXY3dzq2Rb81+3t7cnJyWAwODIy8vHjR6X880FB88xZIaAjePfuXSgU6u7unpubY6Wa5q8USCQS0Wg0GAyGQiGlVzJks9m1tbXHjx93dXWNjo6qoFC6y8nGw39AOpBPNptdXl6+tf9RQnGyFRHdPZVKTU1NdXd337p167ffflNqd7DPrq6ukZGRjY0NOusryg2/sgRQIVgaGD55AolEorGx8ZjnNE6+2lgCJFCUBFAhirJZsFBIAAkggSIggApRBI2ARUACSAAJFCUBVIiibBYsFBJAAkigCAigQhRBI2ARkAASQAJFSQAVoiibBQuFBJAAEigCAqgQRdAIWAQkgASQQFESQIUoymbBQiEBJIAEioAAKkQRNAIWAQkgASRQlARQIYqyWbBQSAAJIIEiIIAKUQSNgEVAAkgACRQlAVSIomwWLBQSQAJIoAgIoEIUQSNgEZAAEkACRUkAFaIomwULhQSQABIoAgKoEEXQCFgEJIAEkEBREkCFKMpmwUIhASSABIqAACpEETQCFgEJIAEkUJQEUCGKslmwUEgACSCBIiCAClEEjYBFQAJIAAkUJQFUiKJsFiwUEkACSKAICKBCFEEjYBGQABJAAkVJABWiKJsFC4UEkAASKAICqBBF0AhYBCSABJBAURJAhSjKZsFCIQEkgASKgAAqRBE0AhYBCSABJFCUBFAhirJZsFBIAAkggSIg8H9smSggiLrD7wAAAABJRU5ErkJggg==;" vertex="1" parent="1">
          <mxGeometry x="370" y="325" width="132.97" height="30" as="geometry" />
        </mxCell>
        <mxCell id="WOx4rIqFdnK--00V2V1H-296" value="" style="shape=image;verticalLabelPosition=bottom;labelBackgroundColor=default;verticalAlign=top;aspect=fixed;imageAspect=0;image=data:image/png,iVBORw0KGgoAAAANSUhEUgAAAe0AAAB/CAIAAABNDw1QAAAgAElEQVR4Ae2d+1MTSdfH3391cqmkQmK4JLDJwnKpVLII4qJggCgbH4WNoq4QL1yWWjYPbHgkC4IKAgICKgZDCGCCqZCZ1+XU09XP3BhyWRw9+UE7k57uM5/u+fbp0z3D/3H4QQJIAAkgATUT+D81G4+2IwEkgASQAIc6jp0ACSABJKBuAqjj6m4/tB4JIAEkgDqOfQAJIAEkoG4CqOPqbj+0HgkgASSAOo59AAkgASSgbgKo4+puP7QeCSABJIA6jn0ACSABJKBuAqjj6m4/tB4JIAEkgDqOfQAJIAEkoG4CqOPqbj+0HgkgASSAOo59AAkgASSgbgKo4+puP7QeCSABJIA6jn0ACSABJKBuAqjj6m4/tB4JIAEkgDqOfQAJIAEkoG4CqOPqbj+0HgkgASSAOo59AAkgASSgbgKo4+puP7QeCSABJIA6jn0ACSABJKBuAqjj6m4/tB4JIAEkgDqOfQAJIAEkoG4CqOPqbj+0HgkgASSAOo59AAkgASSgbgKo4+puP7QeCSABJIA6jn0ACSABJKBuAqjj6m4/tB4JIAEkgDqOfQAJIAEkoG4CqOPqbj+0HgkgASSAOo59AAkgASSgbgJflo4fHh7+61//Wl1dLRLUcDg8MzNTpMK/zGKz2WxPT8/09PSXad4XYtXu7u7Vq1djsViR7Hn8+PHa2lqRCv8yi43FYh0dHcVD+o9d9eDg4PDwMMuy/1iNOVT0Bel4Mpn88ccfBwYGZJCxLPv27dvbt2/7fL5gMPjhwweO4zKZTCgUSqVSJ15///HnxGxfQoZUKhWPx7e3txcXF4+OjvIxaXt7u7q6enJyMp9CvuJzlfDJZDKzs7N+v7+7uzscDh8eHnIcF4vFwuGwEjJerzcSiSjJebZ5WJbd39+Px+Pr6+ubm5t5GjM5OVldXb29vZ1nOWd7uhJdOlsLOY4rpI5/+vTJ4/Ew0h+9Xt/c3LyxsSG87Ewm4/P5Ll26lMlkhL/CkWg02tDQYDabe3t7Q6HQlStXTCbTr7/+evXq1QsXLqTTaakTyXEZHZ+entZoNNK2M+Xl5Y8fP1ZSC6ku5wRtTHNzc/6VLi0t2e325eXlnE0SPTGbzc7Nzfn9fp/P9+jRo4ODA9FsxT64trZmNptl2s5isfT29oqO9Mlk0uPx3Lp1S8p7YFk2EomYzWan0zl0/HG5XFarNRwOO53OkZERJVcno+NdXV0ylmu12oaGhhcvXkiZp6R25XloYxRemkzhLMvev3/f4/Ekk0mZbDn/lM1mx8bGZCY68Xg8GAz6fD6/3//y5ctsNita19bWFriGPT09GxsbQtTRaNTpdH7JnlAhdRwYZbPZQCDAMMx33323sbEBGpRKpba3t/v6+vR6vcFgEPomU1NTVqt1ZWVFFDTHca9evbJarT/99BMtFsvLyxaLhWGY/v5+qRPp4zI6DtnevXtXWlrKMMzAwMD+/j7LstlsNpFIzM/P19TUMAzT1NQkKgd0LQVJp9Ppzs5OhmHu3buXf4Esy16/fr2uro6ml2exyWSyqampoqJibGxsYWGhs7OzpKTkr7/+yrPYnE/f29urq6tjGMbn8yUSiWw2C97l2tpac3MzwzDV1dXCaX4wGKyqqoKJnbBqlmWDwaDBYHj06BFRAZZlBwYGNBqNyWSS6bF0aTI6znEcy7J//PEHwzAWi2V+fh46WDqdjsViv/32m8lk0mq1Dx8+pAssXnpra6uystJkMr169Sr/WhKJhNPplBkmc6gim83G4/FwOAy3pFBMoMzJyUmj0djZ2bmwsDA2NlZRUdHa2sobUUj7/vLLL4uLi48ePSopKbl586bQmxweHi4vL9/a2srB4H/glMLr+NHRUWtrK8MwHR0dvJGNZdmff/6ZYZj6+noaaDKZrK+v7+rqkgogpFIpt9stKkOBQECn083NzSmBdaKOLywsGAwG0ftzfX3dYrFoNJrx8XEldeWZJ51ONzc3K7+0E6tbX18/d+7c8PDwiTmVZDg6Orp27ZrFYiE+fiaT6ejosFgsOSxvxGIxqbtRiTGQ5/3796WlpRqNZmpqindWIpFwOBwMw/T19dE/RaPR8vJyGSdgZWXFZDIJZejjx4+1tbVOp3Nvb48uUCotr+Mcx4Hr43a7hV7C4OAgw/w9HYxGo1LlF/D45ubmuXPnlF/aiVUPDg5arVbRWfiJ5wozQItotdrq6mqr1cowjGjPWV1dtVgsPp+PKPLS0pLJZLp27RotMlNTUwaDgY7lTkxM6PX6YDDIqxq60PXr13maxst2Vl8Lr+OJRMJutzMMIzovu3fvHsMwPKEcHx/X6/UyK5Dj4+MajUbUM41EIuXl5UI/SxToiTr+4MEDhmFEO3EsFisvL2cYxuv1ihZe2IOgSqWlpe/fvy9IyTC+8kbQnEteXFw0Go2tra30XQGj4M8//3zavh6JRPKnCsGoc+fOCQO7qVTK5XIxDMMTyr6+vs/zufX1dVEOR0dHbW1tUp6p1+ttb29XeKXyOk4Ckn6/X2jJ5OQkBF5EBUuYP88joVCIYRhey+ZTJvRk3giaT4FwLvh2ojoODWcwGBYWFkhF0P/p5gb3kXeLwQjtcDgSiQQ5FxKBQOAfG015VZ/4tfA6LuPSEledZgfQRaWTWA9hO9GBIRKJKI8gy+s4MU84k+A4Dq6LYZhAIEAMK15ibm5Op9MpvzQlloRCoUI5+OA/8kZWuGNtNtvOzo4Se0iegui4jEsLhvHkCW5jGcLgkYgODBzHeb1e0Q5JLopOyOs4mCc6kyCuOk+V6MILm/b7/VJOWG4VwW0lf4PnULKMjgNPoXsHPYRMv+COdrlc9BwIrBVtC8ivvNFzuKicTym8jsu4tDs7OzabjWGYtrY24sfBQRnX5tOnT42NjQzDiK6Cvnz5UjiPlsIhr+PyM4n+/n6GYYxG4+LiolT5BTwOfa6wYwbMSfMvE2I+wmWJeDxus9lyUJz8dVzepZ2amtIcf+iYGNDgDUV0C5JIWigUoo9zHJfNZkdHR5VHS+V1XH4m4Xa7haFInj2F+greaA4tKG9Af39/wcuU0XHwgWw2Wzwepw2DW5hMNUZGRoRTNBihRd01UCpyOl3ymacLrOPyLu3w8LBGo6GDqhzHAXQySIoSIcvosEMgGo0qnM/ySpPXcZmZBCzXwBoaRNxYlh0aGrJYLEajcWhoKJVKXb9+3Ww2m0ym3t5eEpUDA968efN5L63ZbLZYLAaDobe3l7cFJZvN/vnnn999953p+BMMBpuamjQaTWH3fcNA5fF4Pn36xCNzqq97e3tOp1NKx0WnuvLl56/jMi5tOp2+cOECwzC8jRNwG8sEK8i4rtVqW1tbI5EIvagjf0W8X+V1XGYmMTs7qz/+kM0SmUymt7fXZDKZzebp6end3d1Lly6Zjz9DQ0P0fcGy7NLSUnNzs8lkslgsJSUlg4ODZLUWLEylUr29vRaLxWQyVVZWhkKhc+fO2e12YVSBd0Wn+goD1YMHD051lnxmGR2HlpXScRJbg5kH+Uqq83q9ouFT8BUKDofUm0+iwDpO7nDe7INl2adPn1osFqvV+uzZM9riE28njuPm5+eNRiO9PctgMPh8vt3dXbqoE9PyOg6WCCeAqVSqvb1do9F0dHQcHm8c5jhuZWWlsbFxf3+/vb1dr9dbrdb79+/v7e3Btg2y1p/JZO7evavT6bq7u2GvCGyrGB0dJdYeHh7CCuHTp09Zlt3a2qqqqmIYho4+kcwcx5HdVD09PW/evFG+ixm6fv4dEfxuGR2XH5Xpa4F0/joO3oAwBpJOp2/fvq3RaDweD6+3+P1+3joNzzCWZW/dukX3OlhvHBwc5I3TvBOFX2V0nExuhMHx169f2+12g8EwNjZGBHpycrK9vX1/f9/lchkMhrKysomJiQ8fPnzujXQkATqVwWC4f/8+dNo3b97Y7fbnz58T8zY3Nx0Oh8vlisViLMvCEh8v+kQycxxH9ufdvXs3Ho+vra29ePGCziCVhqlPV1eXVIYcjsvoOPjdUjpOjoNeS+m48Di46mazWWanYw4XUpBTCqzj4NJqtdoLFy74/vvxer3l5eVarVb0+a579+6dGLSFPbywPE3fVw6Hg7fCmc1mZ2dnPR6PqEMho+NkJlFRUfFfw//+3+Px6PV6m832559/0r6M3+8fGRkhNyGsg8NIQFqabFCj181Zlm1vbydKBxvnNRoNPXmHLQqijvNff/31/fffP336NJ1Or62tud3u8vJy+lyZbgFVSw0PMifyfvoCdRxcWovF0tHRQZqvpaXFYDCYzWbhxn9AIdR93pWm0+ne3l69Xk/3OoZheNseXrx4UV9fb7VaYaM6GexJaTI6DjMJmOATyzs7O7/77jutVtvY2Ejv9Ein0xcvXpybmwOHSaPRwM4KcC3JCE06Fb0TAxZ7yfxje3u7qqqqrKyMRIfS6fT58+cZhhE6zizLDg4O1tfXr62tpdPpp0+f1tXV2Ww2eiGRXKwwAXsEChuROBMdv3fvXsEDREJcORwpsI5DcNxqtY6Ojoapz/Pnz3mRBGKr1+uVd4tITpZlo9HoyMhIfX09ubWI459IJBoaGiorK0tLS8mQS86FhIyOk0l0R0cHZXj4yZMnwjDOx48fm5qaNjc34SyyCL6+vl5fXx8MBsFfg2kEvcYN85KqqiqyOW9qakqv19fW1n4OTRJrYVePMJC9urpaVVVFtvrB6qvNZhPu0CBF8RJKaO/u7ra1tXV3d0uFEb40HSfBcY/HQ7ddOBze3NykR19CA1RAqp+QbJDIZDKvXr3q7e212WzwsBg9AMzOznZ3d6fTaZZlnzx5YjQa29raeA67jI5DzMFoNAaDQdr42dlZIf/37983Njbu7e3Bo09kW8Xs7Gx1dfXExAS47aFQSKPR0HuTIKBfU1MDfg9sG+VFgUHoRXVqamqK92RmKBQSzlx53MhX6DCiHi7Jw3Hc27dvf/zxxzt37vDo0XlI+kx0HDx9MhYSY848UUgdJy7tqQZeJcoixLT13+CDcL+a1+uVuj9ldBxmEqKdWFg7OQJniXZQ2IfDMIzVagUnEeYlDoeDzEaJB0RLNvj4osFxv9/P218Rj8dbW1vpMYDYJppQQhsGY5lNCznreDwed7vdFYIPLBsIDv994I8//hC9EPogcWkVzks4jjuVjpO66OADuZm7urpsNhvMtVmW7ejoEM4vZXQcZhK8gZzUKJWA3YGiG6tgHw7DMHa7HRz8y5cvWyyWhoaGt2/fQoGwhMvr7bBznDj1pGrokLywz8rKSmdnJ9mtQDKLJhTqOCyDCemJlok6TmMppI4Tl5YEDeiapNLyyjJ9/BE9F26AQuk4iNdp98xBIIXXxcFaslRAHPzl5WWe4IJXxeu4MAkVRj+g4/7www/7+/sEyMbGxsDAAPl6YkKeNpwOUwS9Xj87OytaIOxqkImPE43jnQ4Px8YFn7GxsdbWVsHhvw9ITePoksGlVTirgxPldTydTg8ODoo+d0OuHa4RRmt60BV12aR0nMwkRBWZvkZeWmZ3IMixRqMJBALg4K+vr9Nb6ziOE91UBhvVhU4YqPDFixdpN/n58+fKR02FOh4MBjUajcKHhmR0HAY5oTMHTUO8LqnlZal1To7jRBuX1zRn8rWQOp6bSwvLTWRhkKYA3o1Ud7l3/EgRiauQE3Pwx3ObScBZoltNYTXSZrPxNJoYCYlIJAJLZ3SUH5bshMFx4uDns2nH6/WS8D3PGPrrx+MPfYROE1y8ARtuV56XR58olc5znTMHlxZ8THphkLZtZ2fH5XKJPoEFwQc6rpJOp+E1AFCC3+8XNrqUjucwk+A4DsYSqXELFhVpC+lLgzRIFW+zL4wNwuA4OPgajcbtdodCIdGVJ2EV9BHoGMIuTeeB9xPs7+/zhhxeHvJVRsdBiKR0nAxUIPdE1knJAIeeIpOf+vv76TGbHD/zRCF1HAar07q0MkMcuLSiOg4RCdGhOwcdJxvbecIk3zxgntQNA31X6maDkkHHeT0JxifoRo8fP6Z3tsBLZsiaW2Vl5amWzkG8hP1b/jJFf4VW401EYHpx2g7AcVw+Ok7u59O6tDJTk7m5OZvNJqrjEJGQei/bhw8fqqqqGhsbeWIkpeOwsV2+kwj5yz86Dzou38ogVXRvp4PjqVSqq6uLXl+dnJw0GAyk431+XR3teQgt5B0Bg4VTZ162U30l7S6c/MHtLLwxIW5DrhpA8aL8MEOScs5O3ON0qksoYOaC6Tjx0chwp9BKmM0J3WrY22cymeiHhkiZsK/2/v37ZD8W+SkHHc9tJgFn8Z4HI2aAaAqf6mZZ9vfff4fHlKEn0TqeTCZdLheM+alUqrm5efF/Hzs6PDyMRCKXL18uKSlhGIaEy2OxWCAQ6O7ulnk3HtyrUgYTy5UkQM5I7XDKzMyMTqf7h5/Lz82l5ThOZqMUuF30Q0NwgfC6MZPJtLS0JKQEv1ZVVQnf1Cql4znMJDiOA0eS500Te8C9EE41MpnMnTt3YL0BhmGiaBzHwetHIDi+srJy/vx53irrwcFBKBQ6f/48CDoZwjc2NvzHH1r3iTGQePXqlclkknnkipdfyVcZHYf3OPFmReD5kS0JHMfBEZ7cw3tUyAIybQnscRKCpfOcVboAOg5vyl5YWIB9gb29vfF4HF4WqOSqQMtIt6BPgeizXq/nvW0OtqIL314G5yrXcQjXxmKx69evw37t1dVVhTFZjuNkguNgCQSa6bcspVIpv99fX18P7gw8okI2tBwcHDQ1Nen1elD/+fn51tZWqQAxKD64XbFYrK+vL51Ov3v3rqqq6t///jeNkaRB8k7rt5LT6QRoltFonJ+fh+Mw6ojOkOgTRdM5+OPkTdkPHz7UaDRGo3F6ejoej/McYdHq4CD4wkIHAgZghmEqKirocB9sRTcYDIODg0LvAYZn2IstrJSn4+l0Gt7xXV1dzTDMxYsX4/E4HZwRlkAfkQmOQ7ZgMKjVaumJbCwWu3jx4qVLl0CdNzY2rFYr8ZAWFxdhZ7DL5Uomk7du3RocHKRrpNPRaNRut4Pzsbq6+vDhw2w2u7CwUFFRIbUNEfbPKH/umq6OlyZLLK9fv4aH0X755ZdYLMZrerhA+gnwmZkZvV7Pe9EVuIPkDoXtlVqtVvR1chDOor0unm1n+DVfHc9kMi0tLWTCRRInxsLINUvRgeC4z+ebmZmxWq0lJSUtLS0+n6+mpsZoNA4MDEgJnHIdf/78Odm/SCxXHv+6evWqTqebkf4DQ/A+0pKSkpqams7Ozs8zuLKyMt5e5lgs1tDQYLPZmpuby8vLJyYmlpaWLBZLZWUlvcVwbW3t5s2bBBokvF4vONfwgmyIsQQCASn4EHmnb29egaf6mkwmL1++bDQaA4FAKBSqq6sTPuSlsMAcdPzt27fC5wlE9z5L2SA1qu3s7DgcjvHxcXiAy2azeY8/Vqu1srLy2bNnQhHnOG5ycrKlpQUe9do5/tD18nT8xo0bpL+RhHCjCF0CScNrKmi/kvxEEplMBnY6u91uuB2qqqp4D0BMT09bLBaXy1VbW9vQ0PDmzZuBgQGdTldTU9PY2Eic8enp6Yf/+8pccIRhNtDf3w9mw3Rc6kkfv98vXLcn1p4qAeFKAo1O0NMLjuOmp6fNZnNdXV0oFAoEAkajkX6ODyqFp7KNRmNLS8vExITP59Pr9Xfv3qVXdIl5EB0SjZuTPGeVyFfHC2J3IBDgzW5g1vPkyRMQ60wm8+LFi9u3b8NfYyGdTLR25Touerryg+l0Wsm0I5PJJBIJmTkKuJaJRIL0HvDXaNcyFArxpiwwK4T4zOHh4cLCApwu3JtIrqjgL2yDP880MDDQ09Pz7NkzYj+pUWEiBx1XWLJMNpAeXniU47hoNDo/Pw9ifXBwEA6H/X5/T0/P0tKS1AUuLy9fvXqVdMuHDx/yXqjA03EZq5T8lEqlPns/J+aEXvRZ+KQyQ8+k+/DHjx/pfghv6eJNWeAdFRB02tvbW15eZlkWJjG8LgoWgqNGfP8TzS5gBghCwiN7Uq+Y5zgOQkZ+vz8UCsm8oD8UCv1jr1c6LYQvQschtCIzlTvVVf1jOn4qq/LM3NXVRQdeWZYdHx//4YcfeJsHPnz44HQ6RSewcDvlELzO03Ilp09PT/t8PiU5C5sHlu9kZlRKqtvc3HQ6nZcvXyabtcl2cnJ6YXWcFFvsBCz60e+lyWazd+/eFS7zrqys2O128nQbbdjCwoLJZMoTMl3gmaRh1D9//rxUGOBMrCKVfhE6fnR01NXVJfpnIoihJyYSiYTL5SorK9NqtfCnVb7//nveq6VlngM6sfwzzPDx48fz58/39fVVVVX19vZOTExcuXJFGIrNZDLXr18Ph8OiE//x8fHc/sjDGV54sauGEAEdRT1tjSSYTk/whXtFVKrj79+/93g8N2/edDqdv/76K6xztrW1kZkH4Eomk21tbbwFefgJNssKN/CclvOZ519cXLRYLKIe0pnbVuC/z5nP9WxvbzscDtHlhXyK5Z2rUh2HCTLEmp4/fy76qgAIicI7yN69e8d70O7g4KC+vp5+2waPzDf7dXl5ubS0VOqJp0JhUamOp1Ip+INHyWRydnY2Eonw5n8cxyWTyZ6ens3NzaOjo3fv3vGIzc/PV1RU0G+S4GVQxddMJnPp0iX6LUlfmtlfhD8OUCYnJysqKmR2L+XPTqU6fuKFwzp7JBKJx+Nv3rzhbccs9p+7PdG8LzkDvMusurpaqFAFNFulOn4igUwm09fXt7i4GI/Hl5eXf/vtN/qUZDLpdru/Au9hYmLC6XQKt5PSF3u26S9Ix2HRv6mpifd+0QIC+lp1nLfxhrdRd3Jy8uLFi7y5cAGpqr0o+GO7ws0MBbyur1XHR0dH4cVhEFYiL0nnOC6TyVy7di0YDIpG+QrItthFLS8vu93uL1nEv6C4CmmMjx8/Fm8lIX38IXV9CwmWZQ8ODqQ2WnwLBJRcY7Epffr06Vtrgkwmc3BwoHYRh7cgFE+RlHROJXm+LH9cicWYBwkgASSABGgCqOM0DUwjASSABNRHAHVcfW2GFiMBJIAEaAKo4zQNTCMBJIAE1EcAdVx9bYYWIwEkgARoAqjjNA1MIwEkgATURwB1XH1thhYjASSABGgCqOM0DUwjASSABNRHAHVcfW2GFiMBJIAEaAKo4zQNTCMBJIAE1EcAdVx9bYYWIwEkgARoAqjjNA1MIwEkgATURwB1XH1thhYjASSABGgCqOM0DUwjASSABNRHAHVcfW2GFiMBJIAEaAKo4zQNTCMBJIAE1EcAdVx9bYYWIwEkgARoAqjjNA1MIwEkgATURwB1XH1thhYjASSABGgCqOM0DUwjASSABNRHAHVcfW2GFiMBJIAEaAKo4zQNTCMBJIAE1EcAdVx9bYYWIwEkgARoAqjjNA1MIwEkgATURwB1XH1thhYjASSABGgCqOM0DUwjASSABNRHAHVcfW2GFiMBJIAEaAKo4zQNTCMBJIAE1EcAdVx9bYYWIwEkgARoAqjjNI3Cp7e2tm7fvu3z+Xp6ejY2NliWVVhHKpUaHR31HX9GR0cPDg54J6bT6ZGRkdevX2cyGfiJZdloNPr48WNhZt65Cr+m0+lwONzd3e3z+UKh0OHhocITC5gtHo8Hg0Gfz+f3+1++fJnNZpUU/uDBg59++undu3dxsU8qlYJCQqHQ/Px8Op0mZSYSieHh4a2tLXKkIIloNDo0NERXRBerkHNuKOiKCpJWwvYf6JwFuZavphDU8WI1JcuywWDQYDD88ssvi4uLjx49KikpuXnzJpFdmYqfPXtWXl7e0tLi8/lcLpdGozEYDENDQ/QwkEql3G43c/yxWCxlZWVarZZhmCtXrhREcLe3t51OZ01NTSQSefr0aXNzc0VFxdramozZBf9pcnLSaDR2dnYuLCyMjY1VVFS0trYmk8kTK/J6vUBG9N/+/n4ogWQrKSkpLy/X6/UMw7hcrt3d3ROrUJIhlUqtr6/7/X6DweB2u8n4QZ+rkHPOKOi6CpIm0GTYFrtzFuRCvqZCUMeL1ZpTU1MGg2FgYICI78TEhF6vDwaD8lVubGw4HI7FxUXIxrLs6OioTqfT6/WTk5PkXPpWgTsKqpNy+siJShKpVKqxsbGqqmp7exvyJ5NJl8vlcDhisZiSEug8r1+/fvnyJX1ESXp1ddVisfh8PjLyLS0tmUyma9euHR0dyZQgJEMrDn1RPEnSarV+v19UbWWqk/oJCrdYLHV1dQzDiOq4Qs45o5CyLefjCtkKsxWwc+Zs/Fd8Iup4URo3mUzW19eXlpa+f/+eVPDx48fa2lqHw5FIJMhBYSIQCBgMhr6+PqJf6XT6/PnzDMPU19cTbxRulRs3bvQcf6anp8lPwjJPe2R8fFyj0QQCAfrEUCjEMMzg4CB9UEm6//ijJCfJc3R01NbWZjAYFhYW6IOtra0Wi2V9fZ0cFCYSiUR1dXU4HObFVBYXFysrK2dnZ8kpXq+3vb399u3bfr8/HA7Ltws567SJSCQipeNKOOeD4rSmnphfIduids4TjfwGM6COF6XRFxYWDAaDy+Winbujo6PW1laNRjM1NSVVazabvXz5MsMwRqORuOQcx/X39zMMYzabSWQDbpVIJCJVVM7HwU6GYWj3n+M4uChRv1K+rhx0/P3796WlpeXl5Tz3PxAIMAxDAiOi9a6trTU2Nn4eNelf0+l0S0sLPT3iOM7r9coXRZeQc1pKxxVyzgdFzjZLnaiQbfE6p5Rh3/hx1PGidICRkRFRFwzm2jw/l2dBX18fwzDl5eXRaJT8BDpuMplWVlbgYPFulb29PafTyTAMb5BYWVkxmUy8SQaxUCaRg47Pzc3pdDqbzRaPx+mSgUNra6tMaOXNmzfDw8N0BpZlBwYGfvzxR96U5Wx1XCHnfFDQ6AqSVsi2eJ2zIFfx9eXTH5oAAAhMSURBVBWCOl6UNvX7/TI67vV6ZWrNZrOJRIJ25DmOAz+U1lByqxwcHPznP/8JhUIrKysKt3PI1M5x3Obm5rlz56R0nB5L5Mshv+ag4zAQSun4aecEy8vL1dXVwl0ooOOHh4ezs7NjY2MvXrwgsSxifP4JKX9cIefCosj/cngliLItXufk1Y5fgQDq+N8cWJbd39/nhVPlv8ovJ4LfLZQbqePy3RGi7QzDtLW1ETcTbhW3211dXf3rr78+fvzYZrM5HI7NzU350k78FfxuKR0XHj+xwBx0HPxuKR0XHpexIZlMejwe0bC+1+ttaGhwOBy9vb2jo6M1NTVWq/XZs2cypeXwk5SOK+ScDwrwCeR7Mv1rIpE41UgmxbZ4nTMH/t/CKajjf7dyLBarr6+vOM3njz/+kOkfUnotdVymKI7jQqGQRqOhN1pwHAe3SldXFxlRtra2ysrKcttSQhugUF/oU+TTZ6vjw8PDFRUVdJCKWOv1ej0eD9luf3BwUFdXZ7FYVldXSZ78E2eo4ysrKw6HQ3m/ttvt8/Pzyi9Zim3xOqdy276pnKjjRWluKb2WOi5jRDQatdvtVqv11atXdLajo6P5+fm9vT1ykKyb9fX1kYO8BMuyExMT9fX19LYNXp6vSccTiYTT6ZSKp3/eyEg2VgIEiF/R8x4eHI7jdnd329rauru7edF2YU44coY6LmVSQY7LsM2tcxbEqm+zENTxorS7lF5LHZcyAuatdrtdYbQE4vK1tbW83Rqk/EQiYbfbGYZxOp30GEAycByXs46vr69///33Qu+v5PgjPC7j/eUTTKCvBTb23bt3jz4ok4ZgNL0OIcz84MED2JA+MjIi/FV45GvV8dOyPbFzCtHhEYUEUMcVgjpdNnDrpOLj8uucpKbDw8MrV67U1tby9t5BhlQq9fTpU95yqJT8kTLhwROGYS5cuEACMuRXSMBGN2EcHPRdZp0zk8kkEgk63grpW8cf4XGZaCzsVRfGweEChWB5lwBfYec1wzChUEiYIZ1OP3/+nLcfBjRX5ho5jpuamtIff2TmNHR1UjqukHNBUND2FCQtzza3zlkQw77NQlDH/273TCYzNzcXVvx58uQJ7/7n9R6494RyA/64/L5DKCqTyfh8Pjp6++nTJ5/PB4/ApNPpixcvCuX4RB2Hi5URUI7j4HklKR2X91V5HOBrDvFx2KsupeNScRJe7Ts7OzabTXghkO3GjRswL6Ef/1Gi44BIasbDs4HjOCkdV8g5HxSHh4d//fWX4n4djkQiPM9AeDlwRIZtPp1Tqjo8Lk8AdfxvPgcHB729vfBSKoX/Tk9Py5AF15UXu/j06ZPH45F/DgjKhP3OTU1NdAQ2Ho+7XC7wzVOplMvlEm5tPG3cRvQSWJbt6OhgGIYXN5ientZoNMLBSbQQ+mAOOg4yce7cOV5Aqaur68TngEjVoIA6nW5ubo4chATLsu3t7QzD2Gy2nZ0d8isZCOmD5NfcElI6rpBzPii2trb8fr/CLg3ZyINm8hcrw7aonVPeqm/2V9TxojQ9PEnPk6FEIuE4/hAHMJPJXLt2TafT3blzh7yGhWXZ33//3el0/v777+vHH/Cn7ty509DQAG4gzGp9Ph89LYBNAhqNZnh4OM+rmpmZ0el0fr+fLmdwcPAfey6fZdmff/6ZJ8FAlfdc/uTkJLyFimw7ITbLO9d9fX2NjY3v3r0j+YmwXr9+nTQH+TXnhJSOcxynhLNyFDlbmMOJMmyL3TlzsParPwV1vFhNPDs7q9frb926BYrAsuzg4KBWq6VFNh6Pw8TfbrcTcZ+cnIQX79Fvd4I0HU+A5y/IDjmWZcfHx3U6ncfjob343C4vnU5fuHChrKyMPDuzu7vrPP4QO5WXnIM/znHcxsaG1Wq9dOkS2dE8MzOj1+t5IgtTEI1GI5whwYKkVLD7806V2tpa+pnVhYUFk8nE29+p/DJ5OVOpFCwJBINBcPyXlpbi8XgikSCPaynkrBAFz4CifpVnW9TOWdTrUmnhqOPFajiWZYeGhoxGY0tLy8TEhM/n0+v1d+/eJaoEoWqeP072DgpFnGEY2kFmWTYcDpvNZni9rdvt1ul0ly5dErqluV1hLBZraGgwm80PHjwYGRmprKzM+SGj3HSc47jp6Wmz2VxXVxcKhQKBgNFo7OjoOPzf16DL+OOwSkG/lIaHYnFxsbS01O12+3y+lpYWvV7f0NAgutOcd6KSrxCiEbYjL+ivkLMSFEqsKlQeebbF7pyFuoqvphzU8eI25cHBQSgU8vv9oVCoUApLWwzld3d3j4yMRKPRAkYDOI7LZrMrKyu3jz/5PPSfs45zHHd4eBiJRPx+/8jIyIcPH+hrPzF9eHg4NDQ0MzMjg4WUPzAwsLm5STzlEwsvYAaFnImpOaAooLVQlBK2Re2cBb8iVReIOq7q5lOH8Q+OP+qwFa1EAiokgDquwkZDk5EAEkACFAHUcQoGJpEAEkACKiSAOq7CRkOTkQASQAIUAdRxCgYmkQASQAIqJIA6rsJGQ5ORABJAAhQB1HEKBiaRABJAAiokgDquwkZDk5EAEkACFAHUcQoGJpEAEkACKiSAOq7CRkOTkQASQAIUAdRxCgYmkQASQAIqJIA6rsJGQ5ORABJAAhQB1HEKBiaRABJAAiokgDquwkZDk5EAEkACFAHUcQoGJpEAEkACKiSAOq7CRkOTkQASQAIUAdRxCgYmkQASQAIqJIA6rsJGQ5ORABJAAhQB1HEKBiaRABJAAiokgDquwkZDk5EAEkACFAHUcQoGJpEAEkACKiSAOq7CRkOTkQASQAIUAdRxCgYmkQASQAIqJPD/fU991dWwLRMAAAAASUVORK5CYII=;" vertex="1" parent="1">
          <mxGeometry x="371.84999999999997" y="563.02" width="116.3" height="29.96" as="geometry" />
        </mxCell>
        <mxCell id="WOx4rIqFdnK--00V2V1H-298" style="rounded=0;orthogonalLoop=1;jettySize=auto;html=1;exitX=1;exitY=0.5;exitDx=0;exitDy=0;labelBackgroundColor=none;strokeColor=#A8201A;fontColor=default;" edge="1" parent="1" source="WOx4rIqFdnK--00V2V1H-299" target="WOx4rIqFdnK--00V2V1H-305">
          <mxGeometry relative="1" as="geometry" />
        </mxCell>
        <mxCell id="WOx4rIqFdnK--00V2V1H-299" value="&lt;font style=&quot;font-size: 24px;&quot;&gt;2&lt;/font&gt;" style="whiteSpace=wrap;html=1;aspect=fixed;labelBackgroundColor=none;fillColor=#FAE5C7;strokeColor=#0F8B8D;fontColor=#143642;" vertex="1" parent="1">
          <mxGeometry x="144.77" y="760" width="40" height="40" as="geometry" />
        </mxCell>
        <mxCell id="WOx4rIqFdnK--00V2V1H-300" style="rounded=0;orthogonalLoop=1;jettySize=auto;html=1;exitX=1;exitY=0.5;exitDx=0;exitDy=0;entryX=0;entryY=0.5;entryDx=0;entryDy=0;labelBackgroundColor=none;strokeColor=#A8201A;fontColor=default;" edge="1" parent="1" source="WOx4rIqFdnK--00V2V1H-302" target="WOx4rIqFdnK--00V2V1H-325">
          <mxGeometry relative="1" as="geometry" />
        </mxCell>
        <mxCell id="WOx4rIqFdnK--00V2V1H-301" style="rounded=0;orthogonalLoop=1;jettySize=auto;html=1;entryX=0;entryY=0.5;entryDx=0;entryDy=0;labelBackgroundColor=none;strokeColor=#A8201A;fontColor=default;" edge="1" parent="1" source="WOx4rIqFdnK--00V2V1H-302" target="WOx4rIqFdnK--00V2V1H-326">
          <mxGeometry relative="1" as="geometry" />
        </mxCell>
        <mxCell id="WOx4rIqFdnK--00V2V1H-302" value="&lt;font style=&quot;font-size: 24px;&quot;&gt;3&lt;/font&gt;" style="ellipse;whiteSpace=wrap;html=1;aspect=fixed;labelBackgroundColor=none;fillColor=#FAE5C7;strokeColor=#0F8B8D;fontColor=#143642;" vertex="1" parent="1">
          <mxGeometry x="149.77" y="960" width="40" height="40" as="geometry" />
        </mxCell>
        <mxCell id="WOx4rIqFdnK--00V2V1H-303" style="rounded=0;orthogonalLoop=1;jettySize=auto;html=1;exitX=1;exitY=0.5;exitDx=0;exitDy=0;entryX=0;entryY=0.5;entryDx=0;entryDy=0;labelBackgroundColor=none;strokeColor=#A8201A;fontColor=default;" edge="1" parent="1" source="WOx4rIqFdnK--00V2V1H-304" target="WOx4rIqFdnK--00V2V1H-299">
          <mxGeometry relative="1" as="geometry" />
        </mxCell>
        <mxCell id="WOx4rIqFdnK--00V2V1H-304" value="&lt;font style=&quot;font-size: 24px;&quot;&gt;1&lt;/font&gt;" style="whiteSpace=wrap;html=1;aspect=fixed;labelBackgroundColor=none;fillColor=#FAE5C7;strokeColor=#0F8B8D;fontColor=#143642;" vertex="1" parent="1">
          <mxGeometry x="49.769999999999996" y="830" width="40" height="40" as="geometry" />
        </mxCell>
        <mxCell id="WOx4rIqFdnK--00V2V1H-305" value="&lt;font style=&quot;font-size: 24px;&quot;&gt;4&lt;/font&gt;" style="ellipse;whiteSpace=wrap;html=1;aspect=fixed;labelBackgroundColor=none;fillColor=#FAE5C7;strokeColor=#0F8B8D;fontColor=#143642;" vertex="1" parent="1">
          <mxGeometry x="249.77" y="710" width="40" height="40" as="geometry" />
        </mxCell>
        <mxCell id="WOx4rIqFdnK--00V2V1H-306" value="&lt;font style=&quot;font-size: 24px;&quot;&gt;5&lt;/font&gt;" style="ellipse;whiteSpace=wrap;html=1;aspect=fixed;labelBackgroundColor=none;fillColor=#FAE5C7;strokeColor=#0F8B8D;fontColor=#143642;" vertex="1" parent="1">
          <mxGeometry x="249.77" y="790" width="40" height="40" as="geometry" />
        </mxCell>
        <mxCell id="WOx4rIqFdnK--00V2V1H-307" value="&lt;font style=&quot;font-size: 9px;&quot;&gt;A1&lt;/font&gt;" style="text;html=1;align=center;verticalAlign=middle;whiteSpace=wrap;rounded=0;labelBackgroundColor=none;fontColor=#143642;" vertex="1" parent="1">
          <mxGeometry x="189.77" y="750" width="25" height="20" as="geometry" />
        </mxCell>
        <mxCell id="WOx4rIqFdnK--00V2V1H-308" style="rounded=0;orthogonalLoop=1;jettySize=auto;html=1;exitX=1;exitY=0.5;exitDx=0;exitDy=0;entryX=0;entryY=0.5;entryDx=0;entryDy=0;labelBackgroundColor=none;strokeColor=#A8201A;fontColor=default;" edge="1" parent="1" source="WOx4rIqFdnK--00V2V1H-299" target="WOx4rIqFdnK--00V2V1H-306">
          <mxGeometry relative="1" as="geometry">
            <mxPoint x="194.77" y="790" as="sourcePoint" />
            <mxPoint x="242.77" y="761" as="targetPoint" />
          </mxGeometry>
        </mxCell>
        <mxCell id="WOx4rIqFdnK--00V2V1H-309" value="&lt;font style=&quot;font-size: 9px;&quot;&gt;A2&lt;/font&gt;" style="text;html=1;align=center;verticalAlign=middle;whiteSpace=wrap;rounded=0;labelBackgroundColor=none;fontColor=#143642;" vertex="1" parent="1">
          <mxGeometry x="189.77" y="790" width="25" height="20" as="geometry" />
        </mxCell>
        <mxCell id="WOx4rIqFdnK--00V2V1H-310" value="" style="endArrow=none;html=1;rounded=0;exitX=1;exitY=0;exitDx=0;exitDy=0;labelBackgroundColor=none;strokeColor=#A8201A;fontColor=default;" edge="1" parent="1" source="WOx4rIqFdnK--00V2V1H-305">
          <mxGeometry width="50" height="50" relative="1" as="geometry">
            <mxPoint x="289.77" y="730" as="sourcePoint" />
            <mxPoint x="349.77" y="700" as="targetPoint" />
            <Array as="points">
              <mxPoint x="309.77" y="700" />
            </Array>
          </mxGeometry>
        </mxCell>
        <mxCell id="WOx4rIqFdnK--00V2V1H-311" value="" style="endArrow=none;html=1;rounded=0;exitX=1;exitY=1;exitDx=0;exitDy=0;labelBackgroundColor=none;strokeColor=#A8201A;fontColor=default;" edge="1" parent="1" source="WOx4rIqFdnK--00V2V1H-305">
          <mxGeometry width="50" height="50" relative="1" as="geometry">
            <mxPoint x="289.77" y="744" as="sourcePoint" />
            <mxPoint x="349.77" y="760" as="targetPoint" />
            <Array as="points">
              <mxPoint x="309.77" y="760" />
            </Array>
          </mxGeometry>
        </mxCell>
        <mxCell id="WOx4rIqFdnK--00V2V1H-312" value="" style="endArrow=none;html=1;rounded=0;exitX=1;exitY=0;exitDx=0;exitDy=0;labelBackgroundColor=none;strokeColor=#A8201A;fontColor=default;" edge="1" parent="1" source="WOx4rIqFdnK--00V2V1H-306">
          <mxGeometry width="50" height="50" relative="1" as="geometry">
            <mxPoint x="289.77" y="796" as="sourcePoint" />
            <mxPoint x="349.77" y="780" as="targetPoint" />
            <Array as="points">
              <mxPoint x="315.77" y="780" />
            </Array>
          </mxGeometry>
        </mxCell>
        <mxCell id="WOx4rIqFdnK--00V2V1H-313" value="" style="endArrow=none;html=1;rounded=0;exitX=1;exitY=1;exitDx=0;exitDy=0;labelBackgroundColor=none;strokeColor=#A8201A;fontColor=default;" edge="1" parent="1" source="WOx4rIqFdnK--00V2V1H-306">
          <mxGeometry width="50" height="50" relative="1" as="geometry">
            <mxPoint x="289.77" y="824" as="sourcePoint" />
            <mxPoint x="349.77" y="840" as="targetPoint" />
            <Array as="points">
              <mxPoint x="315.77" y="840" />
            </Array>
          </mxGeometry>
        </mxCell>
        <mxCell id="WOx4rIqFdnK--00V2V1H-314" value="&lt;font style=&quot;font-size: 6px; line-height: 110%;&quot;&gt;P(S1)=0.4&lt;/font&gt;" style="text;html=1;align=center;verticalAlign=middle;whiteSpace=wrap;rounded=0;labelBackgroundColor=none;fontColor=#143642;" vertex="1" parent="1">
          <mxGeometry x="309.77" y="698" width="40" height="10" as="geometry" />
        </mxCell>
        <mxCell id="WOx4rIqFdnK--00V2V1H-315" style="rounded=0;orthogonalLoop=1;jettySize=auto;html=1;exitX=1;exitY=0.5;exitDx=0;exitDy=0;entryX=0;entryY=0.5;entryDx=0;entryDy=0;labelBackgroundColor=none;strokeColor=#A8201A;fontColor=default;" edge="1" parent="1" source="WOx4rIqFdnK--00V2V1H-304" target="WOx4rIqFdnK--00V2V1H-302">
          <mxGeometry relative="1" as="geometry">
            <mxPoint x="99.77" y="860" as="sourcePoint" />
            <mxPoint x="154.77" y="790" as="targetPoint" />
          </mxGeometry>
        </mxCell>
        <mxCell id="WOx4rIqFdnK--00V2V1H-316" value="&lt;font style=&quot;font-size: 6px; line-height: 110%;&quot;&gt;P(S2)=0.6&lt;/font&gt;" style="text;html=1;align=center;verticalAlign=middle;whiteSpace=wrap;rounded=0;labelBackgroundColor=none;fontColor=#143642;" vertex="1" parent="1">
          <mxGeometry x="309.77" y="748" width="40" height="10" as="geometry" />
        </mxCell>
        <mxCell id="WOx4rIqFdnK--00V2V1H-317" value="&lt;font style=&quot;font-size: 6px; line-height: 110%;&quot;&gt;P(S1)=0.4&lt;/font&gt;" style="text;html=1;align=center;verticalAlign=middle;whiteSpace=wrap;rounded=0;labelBackgroundColor=none;fontColor=#143642;" vertex="1" parent="1">
          <mxGeometry x="309.77" y="778" width="40" height="10" as="geometry" />
        </mxCell>
        <mxCell id="WOx4rIqFdnK--00V2V1H-318" value="&lt;font style=&quot;font-size: 6px; line-height: 110%;&quot;&gt;P(S2)=0.6&lt;/font&gt;" style="text;html=1;align=center;verticalAlign=middle;whiteSpace=wrap;rounded=0;labelBackgroundColor=none;fontColor=#143642;" vertex="1" parent="1">
          <mxGeometry x="309.77" y="828" width="40" height="10" as="geometry" />
        </mxCell>
        <mxCell id="WOx4rIqFdnK--00V2V1H-319" value="&lt;font style=&quot;font-size: 9px;&quot;&gt;400&lt;/font&gt;" style="text;html=1;align=center;verticalAlign=middle;whiteSpace=wrap;rounded=0;labelBackgroundColor=none;fontColor=#143642;" vertex="1" parent="1">
          <mxGeometry x="349.77" y="688" width="20" height="20" as="geometry" />
        </mxCell>
        <mxCell id="WOx4rIqFdnK--00V2V1H-320" value="&lt;font style=&quot;font-size: 9px;&quot;&gt;-100&lt;/font&gt;" style="text;html=1;align=center;verticalAlign=middle;whiteSpace=wrap;rounded=0;labelBackgroundColor=none;fontColor=#143642;" vertex="1" parent="1">
          <mxGeometry x="349.77" y="748" width="20" height="20" as="geometry" />
        </mxCell>
        <mxCell id="WOx4rIqFdnK--00V2V1H-321" value="&lt;font style=&quot;font-size: 9px;&quot;&gt;0&lt;/font&gt;" style="text;html=1;align=center;verticalAlign=middle;whiteSpace=wrap;rounded=0;labelBackgroundColor=none;fontColor=#143642;" vertex="1" parent="1">
          <mxGeometry x="349.77" y="768" width="20" height="20" as="geometry" />
        </mxCell>
        <mxCell id="WOx4rIqFdnK--00V2V1H-322" value="&lt;font style=&quot;font-size: 9px;&quot;&gt;100&lt;/font&gt;" style="text;html=1;align=center;verticalAlign=middle;whiteSpace=wrap;rounded=0;labelBackgroundColor=none;fontColor=#143642;" vertex="1" parent="1">
          <mxGeometry x="349.77" y="828" width="20" height="20" as="geometry" />
        </mxCell>
        <mxCell id="WOx4rIqFdnK--00V2V1H-323" style="rounded=0;orthogonalLoop=1;jettySize=auto;html=1;entryX=0;entryY=0.5;entryDx=0;entryDy=0;exitX=1;exitY=0.5;exitDx=0;exitDy=0;labelBackgroundColor=none;strokeColor=#A8201A;fontColor=default;" edge="1" parent="1" source="WOx4rIqFdnK--00V2V1H-325" target="WOx4rIqFdnK--00V2V1H-328">
          <mxGeometry relative="1" as="geometry" />
        </mxCell>
        <mxCell id="WOx4rIqFdnK--00V2V1H-324" style="rounded=0;orthogonalLoop=1;jettySize=auto;html=1;entryX=0;entryY=0.5;entryDx=0;entryDy=0;exitX=1;exitY=0.5;exitDx=0;exitDy=0;labelBackgroundColor=none;strokeColor=#A8201A;fontColor=default;" edge="1" parent="1" source="WOx4rIqFdnK--00V2V1H-325" target="WOx4rIqFdnK--00V2V1H-329">
          <mxGeometry relative="1" as="geometry" />
        </mxCell>
        <mxCell id="WOx4rIqFdnK--00V2V1H-325" value="&lt;font style=&quot;font-size: 24px;&quot;&gt;6&lt;/font&gt;" style="whiteSpace=wrap;html=1;aspect=fixed;labelBackgroundColor=none;fillColor=#FAE5C7;strokeColor=#0F8B8D;fontColor=#143642;" vertex="1" parent="1">
          <mxGeometry x="229.77" y="900" width="40" height="40" as="geometry" />
        </mxCell>
        <mxCell id="WOx4rIqFdnK--00V2V1H-326" value="&lt;font style=&quot;font-size: 24px;&quot;&gt;7&lt;/font&gt;" style="whiteSpace=wrap;html=1;aspect=fixed;labelBackgroundColor=none;fillColor=#FAE5C7;strokeColor=#0F8B8D;fontColor=#143642;" vertex="1" parent="1">
          <mxGeometry x="229.77" y="1058" width="40" height="40" as="geometry" />
        </mxCell>
        <mxCell id="WOx4rIqFdnK--00V2V1H-327" value="&lt;font&gt;P(Pred_S1) = 0.36&lt;/font&gt;" style="text;html=1;align=center;verticalAlign=middle;whiteSpace=wrap;rounded=0;fontSize=5;rotation=305;labelBackgroundColor=none;fontColor=#143642;" vertex="1" parent="1">
          <mxGeometry x="176.77" y="940" width="55" height="20" as="geometry" />
        </mxCell>
        <mxCell id="WOx4rIqFdnK--00V2V1H-328" value="&lt;font style=&quot;font-size: 24px;&quot;&gt;8&lt;/font&gt;" style="ellipse;whiteSpace=wrap;html=1;aspect=fixed;labelBackgroundColor=none;fillColor=#FAE5C7;strokeColor=#0F8B8D;fontColor=#143642;" vertex="1" parent="1">
          <mxGeometry x="309.77" y="860" width="40" height="40" as="geometry" />
        </mxCell>
        <mxCell id="WOx4rIqFdnK--00V2V1H-329" value="&lt;font style=&quot;font-size: 24px;&quot;&gt;9&lt;/font&gt;" style="ellipse;whiteSpace=wrap;html=1;aspect=fixed;labelBackgroundColor=none;fillColor=#FAE5C7;strokeColor=#0F8B8D;fontColor=#143642;" vertex="1" parent="1">
          <mxGeometry x="309.77" y="940" width="40" height="40" as="geometry" />
        </mxCell>
        <mxCell id="WOx4rIqFdnK--00V2V1H-330" value="" style="endArrow=none;html=1;rounded=0;exitX=1;exitY=0;exitDx=0;exitDy=0;labelBackgroundColor=none;strokeColor=#A8201A;fontColor=default;" edge="1" parent="1" source="WOx4rIqFdnK--00V2V1H-328">
          <mxGeometry width="50" height="50" relative="1" as="geometry">
            <mxPoint x="349.77" y="880" as="sourcePoint" />
            <mxPoint x="409.77" y="850" as="targetPoint" />
            <Array as="points">
              <mxPoint x="369.77" y="850" />
            </Array>
          </mxGeometry>
        </mxCell>
        <mxCell id="WOx4rIqFdnK--00V2V1H-331" value="" style="endArrow=none;html=1;rounded=0;exitX=1;exitY=1;exitDx=0;exitDy=0;labelBackgroundColor=none;strokeColor=#A8201A;fontColor=default;" edge="1" parent="1" source="WOx4rIqFdnK--00V2V1H-328">
          <mxGeometry width="50" height="50" relative="1" as="geometry">
            <mxPoint x="349.77" y="894" as="sourcePoint" />
            <mxPoint x="409.77" y="910" as="targetPoint" />
            <Array as="points">
              <mxPoint x="369.77" y="910" />
            </Array>
          </mxGeometry>
        </mxCell>
        <mxCell id="WOx4rIqFdnK--00V2V1H-332" value="" style="endArrow=none;html=1;rounded=0;exitX=1;exitY=0;exitDx=0;exitDy=0;labelBackgroundColor=none;strokeColor=#A8201A;fontColor=default;" edge="1" parent="1" source="WOx4rIqFdnK--00V2V1H-329">
          <mxGeometry width="50" height="50" relative="1" as="geometry">
            <mxPoint x="349.77" y="946" as="sourcePoint" />
            <mxPoint x="409.77" y="930" as="targetPoint" />
            <Array as="points">
              <mxPoint x="375.77" y="930" />
            </Array>
          </mxGeometry>
        </mxCell>
        <mxCell id="WOx4rIqFdnK--00V2V1H-333" value="" style="endArrow=none;html=1;rounded=0;exitX=1;exitY=1;exitDx=0;exitDy=0;labelBackgroundColor=none;strokeColor=#A8201A;fontColor=default;" edge="1" parent="1" source="WOx4rIqFdnK--00V2V1H-329">
          <mxGeometry width="50" height="50" relative="1" as="geometry">
            <mxPoint x="349.77" y="974" as="sourcePoint" />
            <mxPoint x="409.77" y="990" as="targetPoint" />
            <Array as="points">
              <mxPoint x="375.77" y="990" />
            </Array>
          </mxGeometry>
        </mxCell>
        <mxCell id="WOx4rIqFdnK--00V2V1H-334" value="&lt;font style=&quot;line-height: 110%;&quot;&gt;P(S1|Pred_S1)=0.67&lt;/font&gt;" style="text;html=1;align=center;verticalAlign=middle;whiteSpace=wrap;rounded=0;fontSize=5;labelBackgroundColor=none;fontColor=#143642;" vertex="1" parent="1">
          <mxGeometry x="369.77" y="848" width="40" height="10" as="geometry" />
        </mxCell>
        <mxCell id="WOx4rIqFdnK--00V2V1H-335" value="&lt;span style=&quot;font-size: 5px;&quot;&gt;P(S2|Pred_S1)=0.33&lt;/span&gt;" style="text;html=1;align=center;verticalAlign=middle;whiteSpace=wrap;rounded=0;labelBackgroundColor=none;fontColor=#143642;" vertex="1" parent="1">
          <mxGeometry x="369.77" y="898" width="40" height="10" as="geometry" />
        </mxCell>
        <mxCell id="WOx4rIqFdnK--00V2V1H-336" value="&lt;font style=&quot;font-size: 9px;&quot;&gt;400&lt;/font&gt;" style="text;html=1;align=center;verticalAlign=middle;whiteSpace=wrap;rounded=0;labelBackgroundColor=none;fontColor=#143642;" vertex="1" parent="1">
          <mxGeometry x="409.77" y="838" width="20" height="20" as="geometry" />
        </mxCell>
        <mxCell id="WOx4rIqFdnK--00V2V1H-337" value="&lt;font style=&quot;font-size: 9px;&quot;&gt;-100&lt;/font&gt;" style="text;html=1;align=center;verticalAlign=middle;whiteSpace=wrap;rounded=0;labelBackgroundColor=none;fontColor=#143642;" vertex="1" parent="1">
          <mxGeometry x="409.77" y="898" width="20" height="20" as="geometry" />
        </mxCell>
        <mxCell id="WOx4rIqFdnK--00V2V1H-338" value="&lt;font style=&quot;font-size: 9px;&quot;&gt;0&lt;/font&gt;" style="text;html=1;align=center;verticalAlign=middle;whiteSpace=wrap;rounded=0;labelBackgroundColor=none;fontColor=#143642;" vertex="1" parent="1">
          <mxGeometry x="409.77" y="918" width="20" height="20" as="geometry" />
        </mxCell>
        <mxCell id="WOx4rIqFdnK--00V2V1H-339" value="&lt;font style=&quot;font-size: 9px;&quot;&gt;100&lt;/font&gt;" style="text;html=1;align=center;verticalAlign=middle;whiteSpace=wrap;rounded=0;labelBackgroundColor=none;fontColor=#143642;" vertex="1" parent="1">
          <mxGeometry x="409.77" y="978" width="20" height="20" as="geometry" />
        </mxCell>
        <mxCell id="WOx4rIqFdnK--00V2V1H-340" value="&lt;font style=&quot;font-size: 9px;&quot;&gt;A1&lt;/font&gt;" style="text;html=1;align=center;verticalAlign=middle;whiteSpace=wrap;rounded=0;labelBackgroundColor=none;fontColor=#143642;" vertex="1" parent="1">
          <mxGeometry x="269.77" y="890" width="25" height="20" as="geometry" />
        </mxCell>
        <mxCell id="WOx4rIqFdnK--00V2V1H-341" value="&lt;font style=&quot;font-size: 9px;&quot;&gt;A2&lt;/font&gt;" style="text;html=1;align=center;verticalAlign=middle;whiteSpace=wrap;rounded=0;labelBackgroundColor=none;fontColor=#143642;" vertex="1" parent="1">
          <mxGeometry x="269.77" y="930" width="25" height="20" as="geometry" />
        </mxCell>
        <mxCell id="WOx4rIqFdnK--00V2V1H-342" value="&lt;font&gt;P(Pred_S2) = 0.64&lt;/font&gt;" style="text;html=1;align=center;verticalAlign=middle;whiteSpace=wrap;rounded=0;fontSize=5;rotation=58;labelBackgroundColor=none;fontColor=#143642;" vertex="1" parent="1">
          <mxGeometry x="170.77" y="1023" width="55" height="20" as="geometry" />
        </mxCell>
        <mxCell id="WOx4rIqFdnK--00V2V1H-343" style="rounded=0;orthogonalLoop=1;jettySize=auto;html=1;entryX=0;entryY=0.5;entryDx=0;entryDy=0;labelBackgroundColor=none;strokeColor=#A8201A;fontColor=default;" edge="1" parent="1" target="WOx4rIqFdnK--00V2V1H-345">
          <mxGeometry relative="1" as="geometry">
            <mxPoint x="269.77" y="1080" as="sourcePoint" />
          </mxGeometry>
        </mxCell>
        <mxCell id="WOx4rIqFdnK--00V2V1H-344" style="rounded=0;orthogonalLoop=1;jettySize=auto;html=1;entryX=0;entryY=0.5;entryDx=0;entryDy=0;exitX=1;exitY=0.5;exitDx=0;exitDy=0;labelBackgroundColor=none;strokeColor=#A8201A;fontColor=default;" edge="1" parent="1" target="WOx4rIqFdnK--00V2V1H-346">
          <mxGeometry relative="1" as="geometry">
            <mxPoint x="269.77" y="1080" as="sourcePoint" />
          </mxGeometry>
        </mxCell>
        <mxCell id="WOx4rIqFdnK--00V2V1H-345" value="&lt;font style=&quot;font-size: 24px;&quot;&gt;10&lt;/font&gt;" style="ellipse;whiteSpace=wrap;html=1;aspect=fixed;labelBackgroundColor=none;fillColor=#FAE5C7;strokeColor=#0F8B8D;fontColor=#143642;" vertex="1" parent="1">
          <mxGeometry x="309.77" y="1020" width="40" height="40" as="geometry" />
        </mxCell>
        <mxCell id="WOx4rIqFdnK--00V2V1H-346" value="&lt;font style=&quot;font-size: 24px;&quot;&gt;11&lt;/font&gt;" style="ellipse;whiteSpace=wrap;html=1;aspect=fixed;labelBackgroundColor=none;fillColor=#FAE5C7;strokeColor=#0F8B8D;fontColor=#143642;" vertex="1" parent="1">
          <mxGeometry x="309.77" y="1100" width="40" height="40" as="geometry" />
        </mxCell>
        <mxCell id="WOx4rIqFdnK--00V2V1H-347" value="" style="endArrow=none;html=1;rounded=0;exitX=1;exitY=0;exitDx=0;exitDy=0;labelBackgroundColor=none;strokeColor=#A8201A;fontColor=default;" edge="1" parent="1" source="WOx4rIqFdnK--00V2V1H-345">
          <mxGeometry width="50" height="50" relative="1" as="geometry">
            <mxPoint x="349.77" y="1040" as="sourcePoint" />
            <mxPoint x="409.77" y="1010" as="targetPoint" />
            <Array as="points">
              <mxPoint x="369.77" y="1010" />
            </Array>
          </mxGeometry>
        </mxCell>
        <mxCell id="WOx4rIqFdnK--00V2V1H-348" value="" style="endArrow=none;html=1;rounded=0;exitX=1;exitY=1;exitDx=0;exitDy=0;labelBackgroundColor=none;strokeColor=#A8201A;fontColor=default;" edge="1" parent="1" source="WOx4rIqFdnK--00V2V1H-345">
          <mxGeometry width="50" height="50" relative="1" as="geometry">
            <mxPoint x="349.77" y="1054" as="sourcePoint" />
            <mxPoint x="409.77" y="1070" as="targetPoint" />
            <Array as="points">
              <mxPoint x="369.77" y="1070" />
            </Array>
          </mxGeometry>
        </mxCell>
        <mxCell id="WOx4rIqFdnK--00V2V1H-349" value="" style="endArrow=none;html=1;rounded=0;exitX=1;exitY=0;exitDx=0;exitDy=0;labelBackgroundColor=none;strokeColor=#A8201A;fontColor=default;" edge="1" parent="1" source="WOx4rIqFdnK--00V2V1H-346">
          <mxGeometry width="50" height="50" relative="1" as="geometry">
            <mxPoint x="349.77" y="1106" as="sourcePoint" />
            <mxPoint x="409.77" y="1090" as="targetPoint" />
            <Array as="points">
              <mxPoint x="375.77" y="1090" />
            </Array>
          </mxGeometry>
        </mxCell>
        <mxCell id="WOx4rIqFdnK--00V2V1H-350" value="" style="endArrow=none;html=1;rounded=0;exitX=1;exitY=1;exitDx=0;exitDy=0;labelBackgroundColor=none;strokeColor=#A8201A;fontColor=default;" edge="1" parent="1" source="WOx4rIqFdnK--00V2V1H-346">
          <mxGeometry width="50" height="50" relative="1" as="geometry">
            <mxPoint x="349.77" y="1134" as="sourcePoint" />
            <mxPoint x="409.77" y="1150" as="targetPoint" />
            <Array as="points">
              <mxPoint x="375.77" y="1150" />
            </Array>
          </mxGeometry>
        </mxCell>
        <mxCell id="WOx4rIqFdnK--00V2V1H-351" value="P(S1|Pred_S2)=0.25" style="text;html=1;align=center;verticalAlign=middle;whiteSpace=wrap;rounded=0;fontSize=5;labelBackgroundColor=none;fontColor=#143642;" vertex="1" parent="1">
          <mxGeometry x="369.77" y="1008" width="40" height="10" as="geometry" />
        </mxCell>
        <mxCell id="WOx4rIqFdnK--00V2V1H-352" value="&lt;span style=&quot;font-size: 5px;&quot;&gt;P(S2|Pred_S2)=0.75&lt;/span&gt;" style="text;html=1;align=center;verticalAlign=middle;whiteSpace=wrap;rounded=0;labelBackgroundColor=none;fontColor=#143642;" vertex="1" parent="1">
          <mxGeometry x="369.77" y="1058" width="40" height="10" as="geometry" />
        </mxCell>
        <mxCell id="WOx4rIqFdnK--00V2V1H-353" value="&lt;span style=&quot;font-size: 5px;&quot;&gt;P(S1|Pred_S2)=0.25&lt;/span&gt;" style="text;html=1;align=center;verticalAlign=middle;whiteSpace=wrap;rounded=0;labelBackgroundColor=none;fontColor=#143642;" vertex="1" parent="1">
          <mxGeometry x="369.77" y="1088" width="40" height="10" as="geometry" />
        </mxCell>
        <mxCell id="WOx4rIqFdnK--00V2V1H-354" value="&lt;span style=&quot;font-size: 5px;&quot;&gt;P(S2|Pred_S2)=0.75&lt;/span&gt;" style="text;html=1;align=center;verticalAlign=middle;whiteSpace=wrap;rounded=0;labelBackgroundColor=none;fontColor=#143642;" vertex="1" parent="1">
          <mxGeometry x="369.77" y="1138" width="40" height="10" as="geometry" />
        </mxCell>
        <mxCell id="WOx4rIqFdnK--00V2V1H-355" value="&lt;font style=&quot;font-size: 9px;&quot;&gt;400&lt;/font&gt;" style="text;html=1;align=center;verticalAlign=middle;whiteSpace=wrap;rounded=0;labelBackgroundColor=none;fontColor=#143642;" vertex="1" parent="1">
          <mxGeometry x="409.77" y="998" width="20" height="20" as="geometry" />
        </mxCell>
        <mxCell id="WOx4rIqFdnK--00V2V1H-356" value="&lt;font style=&quot;font-size: 9px;&quot;&gt;-100&lt;/font&gt;" style="text;html=1;align=center;verticalAlign=middle;whiteSpace=wrap;rounded=0;labelBackgroundColor=none;fontColor=#143642;" vertex="1" parent="1">
          <mxGeometry x="409.77" y="1058" width="20" height="20" as="geometry" />
        </mxCell>
        <mxCell id="WOx4rIqFdnK--00V2V1H-357" value="&lt;font style=&quot;font-size: 9px;&quot;&gt;0&lt;/font&gt;" style="text;html=1;align=center;verticalAlign=middle;whiteSpace=wrap;rounded=0;labelBackgroundColor=none;fontColor=#143642;" vertex="1" parent="1">
          <mxGeometry x="409.77" y="1078" width="20" height="20" as="geometry" />
        </mxCell>
        <mxCell id="WOx4rIqFdnK--00V2V1H-358" value="&lt;font style=&quot;font-size: 9px;&quot;&gt;100&lt;/font&gt;" style="text;html=1;align=center;verticalAlign=middle;whiteSpace=wrap;rounded=0;labelBackgroundColor=none;fontColor=#143642;" vertex="1" parent="1">
          <mxGeometry x="409.77" y="1138" width="20" height="20" as="geometry" />
        </mxCell>
        <mxCell id="WOx4rIqFdnK--00V2V1H-359" value="&lt;font style=&quot;font-size: 9px;&quot;&gt;A1&lt;/font&gt;" style="text;html=1;align=center;verticalAlign=middle;whiteSpace=wrap;rounded=0;labelBackgroundColor=none;fontColor=#143642;" vertex="1" parent="1">
          <mxGeometry x="269.77" y="1050" width="25" height="20" as="geometry" />
        </mxCell>
        <mxCell id="WOx4rIqFdnK--00V2V1H-360" value="&lt;font style=&quot;font-size: 9px;&quot;&gt;A2&lt;/font&gt;" style="text;html=1;align=center;verticalAlign=middle;whiteSpace=wrap;rounded=0;labelBackgroundColor=none;fontColor=#143642;" vertex="1" parent="1">
          <mxGeometry x="269.77" y="1090" width="25" height="20" as="geometry" />
        </mxCell>
        <mxCell id="WOx4rIqFdnK--00V2V1H-361" value="&lt;font style=&quot;line-height: 110%;&quot;&gt;P(S1|Pred_S1)=0.67&lt;/font&gt;" style="text;html=1;align=center;verticalAlign=middle;whiteSpace=wrap;rounded=0;fontSize=5;labelBackgroundColor=none;fontColor=#143642;" vertex="1" parent="1">
          <mxGeometry x="371.77" y="930" width="40" height="10" as="geometry" />
        </mxCell>
        <mxCell id="WOx4rIqFdnK--00V2V1H-362" value="&lt;span style=&quot;font-size: 5px;&quot;&gt;P(S2|Pred_S1)=0.33&lt;/span&gt;" style="text;html=1;align=center;verticalAlign=middle;whiteSpace=wrap;rounded=0;labelBackgroundColor=none;fontColor=#143642;" vertex="1" parent="1">
          <mxGeometry x="371.77" y="978" width="40" height="10" as="geometry" />
        </mxCell>
        <mxCell id="WOx4rIqFdnK--00V2V1H-363" value="&lt;font style=&quot;font-size: 9px;&quot;&gt;NHR&lt;/font&gt;" style="text;html=1;align=center;verticalAlign=middle;whiteSpace=wrap;rounded=0;labelBackgroundColor=none;fontColor=#143642;" vertex="1" parent="1">
          <mxGeometry x="89.77" y="800" width="25" height="20" as="geometry" />
        </mxCell>
        <mxCell id="WOx4rIqFdnK--00V2V1H-364" value="&lt;font style=&quot;font-size: 9px;&quot;&gt;HR&lt;/font&gt;" style="text;html=1;align=center;verticalAlign=middle;whiteSpace=wrap;rounded=0;labelBackgroundColor=none;fontColor=#143642;" vertex="1" parent="1">
          <mxGeometry x="89.77" y="893" width="25" height="20" as="geometry" />
        </mxCell>
        <mxCell id="WOx4rIqFdnK--00V2V1H-365" value="&lt;font&gt;-100&lt;/font&gt;" style="text;html=1;align=center;verticalAlign=middle;whiteSpace=wrap;rounded=0;labelBackgroundColor=none;fontColor=#143642;fontSize=15;" vertex="1" parent="1">
          <mxGeometry x="119.77" y="890" width="25" height="20" as="geometry" />
        </mxCell>
        <mxCell id="WOx4rIqFdnK--00V2V1H-366" value="&lt;font style=&quot;font-size: 10px;&quot;&gt;100&lt;/font&gt;" style="text;html=1;align=center;verticalAlign=middle;whiteSpace=wrap;rounded=0;fontColor=#143642;" vertex="1" parent="1">
          <mxGeometry x="134.77" y="734" width="60" height="30" as="geometry" />
        </mxCell>
        <mxCell id="WOx4rIqFdnK--00V2V1H-367" value="" style="shape=image;verticalLabelPosition=bottom;labelBackgroundColor=default;verticalAlign=top;aspect=fixed;imageAspect=0;image=data:image/png,iVBORw0KGgoAAAANSUhEUgAAAgsAAAB2CAIAAADJHkevAAAgAElEQVR4Ae2d+1cTydb3n3+1clnJColAEsBk4OEyWYloxEF0uGTAeBQGdLwQUBGORyaSE87AgIADg4IojCIYY5yQQJ+Q7ofDfk+tevtGkwSIw84vVCrV1VWf2l3fXbfmfwT8IAEkgASQABKQI/A/cpEYhwSQABJAAkhAQIVAI0ACSAAJIAF5AqgQ8lwwFgkgASSABFAh0AaQABJAAkhAngAqhDwXjEUCSAAJIAFUCLQBJIAEkAASkCeACiHPBWORABJAAkgAFQJtAAkgASSABOQJoELIc8FYJIAEkAASQIVAG0ACSAAJIAF5AqgQ8lwwFgkgASSABFAh0AaQABJAAkhAngAqhDwXjEUCSAAJIAFUCLQBJIAEkAASkCeACiHPBWORABJAAkgAFQJtAAkgASSABOQJoELIc8FYJIAEkAASQIVAG0ACSAAJIAF5AkWhEHNzc729vdlsVr6M+cVubW319fWl0+n8svnKrn79+nVnZ2cqlfrKyv3VFvdIbVgQhEePHq2srHy1eHIpeCwWa2tri8ViuVz8l7imGAicvEKMj49XV1dvbm6qtOn29nY0Gu3q6goGgzMzM5lMRhCEN2/evHjxQuUq+Ckej3u93ng8fmDKE0+QzWYTiUQ8Hn/16tWnT5/yKQ/P86FQ6Ny5cygS+WDUeK0WG85kMjMzM8FgsKurKxqNbm9vC4IQi8Wi0aiWu7S2tk5OTmpJebJpeJ7/888/4/H427dv19bW8iyMFrB53qLILz9xAgVQiI6ODqL80ev1DQ0Nv/32G8/z0sZ49eqVw+GYn5+X/gQx2Wz20aNHZrPZ6/U+efIkFAq59z/RaNRut8/OzipdSONVFGJlZcVqtSqXndhstp6enuMZf+zs7Ph8PiiMwWDQUjVaR9lAJpNpa2sLBAIgqLJp8o989uxZVVVVIpGQZrW+vn7r1q1AINDd3b26uiprANlsdnZ2NhgMBgKBhw8fJpNJaT7HEDM1NaXT6VQswW63P3r0iOM4aWEOtGGe5ycnJ61Wq9vtfrz/8Xg8paWl0WjU7XaPjIxI85TGKCkEazay5TcajX6/f3V1VZrnUcSwvYHGqqkUg+f5+/fv+3y+InR0ksnkgwcPtra2lMqvxf45jgPfNxAIhMNh8BvYDE+cQAEUQhAEnud//vlnQv7Tpc7Pz0OXynFcLBb7+9//brFY9Hr9gwcP2JoLgpBOpxsbGzs6OnZ3d0U/wddMJtPZ2VlSUjIxMUH7l0wmEwgECCFOp1OLo62iEHCXL1++1NXVEUICgUAikchms+AHrays+P1+Qkh1dfXxDHV5nl9cXLRarXa7vSB3XF1dLSsrC4fDsnjzj1xdXS0tLXU6naIhGs/zAwMDJpPpxx9/XFxcfPjwYUlJyc2bN0ValUqlLly44HA4RkdHFxYW2tvbS0pKfv311/wLllsO79+/LysrI4SEQqE///yT53kY1c3Pz9fU1BBCLly4IHIXDrRhiuLhw4d0HhVGeDqdzmKxLC8vaymtkkLAtdlstre3lxBy9uzZ1dVVULJ0Or25uXn79m2j0WgymY5tCLK+vl5ZWWmxWJaWlrRUTT1NIpFwu919fX20B1BPf9S/chz3/v37e/fuWa1WqeXD3Wmjq9v/5uam2+2uqamZnJx8/vy53+93OBzSucSTJVAYhRAEAQzU6/WKHiFBEIaGhgghdrt9Y2ODbb+xsTGr1aryhIyPjxuNRmkH9+HDh7KyMr/fL+vTsbcQBOFAhYDcdDrdxMSE6NpEIuFyuQght2/fFv10RF9nZ2cNBoPGqh1YBp7nr1275na7ZX38Ay9XT5DJZC5fvgxSLVKIiYkJk8kUCoXoUx2JRIxG48DAAM1zd3e3s7PTZrO9evUKImHQY7PZXr9+TZNpDLx58+b333/XmFgp2cLCgslkku213759a7PZdDrd2NgYe/mBNry8vGyxWKQd3J7vWVtb63a7v3z5wmaoFFZXiN3d3ebmZkJIW1sbZQ5ZgQ0QQurr64/HE19bWztz5oz2qilVmcYPDQ2VlpYe2zCI3lca6O/vJ4SYTKaGhgaDwaCkEFrsH3yLqqoqOsGeSqU8Ho/L5ZJ6hydIoDAKQYe6wWBQinV8fBzGv6wXk0ql6uvrz58/r9TLQwJZbzqdTnu93rt370rvJY05UCFghuHMmTPSadN0Ou3xeAghssonvVf+MSC0vb29+WcFOSwsLJjNZlG/VpDMw+FweXm5yWQSPSfQcGVlZR8+fKA3gg7R5XJRrVpcXDSbzc3NzewIEvroa9euibo5mo9SoH//o/SrxvjBwUFCiGzXFovF7HY7IaS1tZXmdqAN7+7uXrlyRcmbbm1tvXr1qsaaqitEIpGoqKgghMhO7Ny9e5cQIqt8tC4FDITDYUKIqGXzyR98uGPz0rQUFYRfZPlwoUb7Hxsb0+l0oicd0A0NDYnKcIIECqMQKm44HV6YTKaFhQVac+ggZA0a0sAigezjCvKrcab+QIVQGf1AvQpr7pSANMBxnN/vL8giBM0cuuZCDUpotuvr67W1taOjoxaLRfScQC/v8XjY0SQ4uexADbCLZB6Aa5w/pIURBCF/hVBxwwVBgEoRQthH+kAbho5b1vkQBKG1tVXF/tnaQWLWwRL9qjL6ofUSabYohwJ+DQaDSlqV212gCrJdQW4Z5n+VikJosX/aKOPj42xh4FqpP3qCBAqjEOpuuNfrlQ5y+/v7lXwrQDY9Pa3X681ms3Qde2dnZ2hoSOOqprpCqI9+JiYmdPufo/DBWcuAMPSPhX2SeZ5va2srbJ6ZTKalpWV4eFj2ORkZGZEddbW2ttIeFrSQENLf389yiMfjTqdT5EywCZTC+SuEuhsO0wtms3lxcZGW4UAbpnNT0pnSbDb75MmTPaGluakH1McQKqOfT58+OZ1OQsiVK1fY4Zr67XL+FTySHFpQ/Y79/f0Fz1P9juq/ylo+XKLF/r98+eJ2uwkhItWHbGWf1pMiUBiFUHHDZ2ZmjPsfVi2hgxD5nqImoRuNTCZTIBCYnZ1Vmo8SXSj6qq4QKqMfjuMuXrxICGG3UsRiMY/HYzQaGxoaYrHYb7/95na7rVZrVVWVaImJ47jR0VG3222xWEpKSlwul3ThLhaLBQIBi8ViNpsbGhqePn1qMBh8Pt/Ozo6oFvl8HRwc1Ol0U1NT+WTCXhsOh5uamjiOk31OwIWU+kGgEDBLQ58QWYWQPjns3WXD+SuEihsOS4Wwl4EutmuxYao6er2+ubl5cnIy55UAFYWgDql0EUIQhOHhYZ1Ox673FNaG0+l0T0+PzWazWCyVlZXhcPjMmTMVFRV0OlG2vQ4bCT7o4ODgYS88ovSylg/30mL/sFQjtXPIVnY+8KQIFEAhqD8oXYR48+ZNRUWFyWQaHR1l51uhg5B2Imxz0oVQuodPp9OdPXt2fHyczYq9RDasrhCwMiydB+A47tatWzqdzufzff78GXLe3d2FTWlLS0sWi8Vms9XW1v7xxx8zMzNlZWXsnPLa2prL5XI4HDMzM7A56unTpzU1Ney4Z25urrS09OrVq+l0OpvN3r9/HzZcsvMYtEbsrtBnz57t7OxEo1HR+jBNLApMTk4SQgr1dG1sbHz77bewbCj7nIASSBuXjYexgtIYQhovqpH0a/4KAa6fdCojnU5fvXpVp9O1tbVt7x9igLtrsWGe5/v6+qgBQ8Butw8NDVGlkdZFNkZFIajciuaseJ5//vy5zWYrLS2dm5uDbAtrw2DnHo8nFovxPA/7EZRmZfOxYbC0jo4OWTjHHylr+VAM1s7ZgrHxcLmSQkjjBUE4KQIFUAhww2FiIfDfT3t7+9mzZ/V6fWNjo3QTAqz7HTg5nkwmr1y5otfr2WdMp9OxW2KgDTY2Ni5duiTrJqsrBIx+bDYbHB2A4jc1NZlMJqvVKtoCv7a25vV6v3z5AroCu27o80nNd3Nzs6qqivXaBEFYWlr65ptvaJ++dybOZrPV1dVRzYB9U7LOfiqVunz5cldX155Pmkql7t+/73a7v/32270RPWuCSmHQM1nhUbpEKT6TybS3tw8PD0MC2eeEfRLYfNj4YlMI6oY7HI7/mvB//vp8PqPR6HQ6//nPf9K9qlApjTbMcVxPT4/RaGRtmBDS2dlJ53wymczAwIDL5TKbzUo+kIpCwOhHr9dfvHiRFr61tdVut+v1etGx5ALaMNj53m4FOlfGcdz58+dl3ZE8bRhoF3D1m7XMHMKylg/5sHbO5szG56AQJ0WgAAoBwx+z2TwwMBBlPjMzM0pjagDEbgthUYrCHMfNzs7+8MMPsFddtNvkxo0bZWVl33zzjazwqu92pYsQPp+PKfh/gmtra6IeQRCEcDgM4ySY9oUtN7u7u319fV6v9927d4Ig0KEPu/UC/FDaKcBKOyGEnZ4GC5BOQcKuUPbgG3Rn0hGbiBv9qoU2dFJer/fNmzf0QmkgEon4/X66BC37nLBPApsDG19sCkGng9ra2lhL+OWXXzY2NmTHrFqo0upnMpmlpaWenh6n0wkjRTps5Xm+p6cnEonwPM9x3PXr1/V6/bNnz+i1EFBRCLDG0tLSJ0+esIV/8eKFdGK2UDYMZkkXlqCQsPdPumCQvw2DwUgHpiwlGMTU19fPzMyw8UcRlrV8uBFr5+yt2Xi4XNplKcVDP+Z0OtUJsLcrVLgACgFueG1trUaXlo6YNCoErSqdipHO08FEimjZBy5UGUPQ0Q/bU9PbKQWgg2a35bApYX8LIaSxsREcOp/PZ7FYrl+/TucopqenDQaDSAxgXCJdhFhbWysvLxdt3Orv79deZi19GV31URnYbW5ufvvtt+xhBdnnhH0SWDJsfM4K8fbt22+++cYh+ZTsfyTRjoqKCulOB7ZUEAY3XNq1SVPSGC1UaWIaYKdiwFwTiURVVdWlS5dAd2FhWTrZpaQQdPRzKP86fxuGRXgRMZhely5C5G/DWhSCyryUHuUvCEIymTx37pzUVGRjGhoa6AiJzUTW8iEBa+fsJWw8XH4qFIK64bKrZCwgNqz+dG1tbYVCIVm9gT69UAoBox9pbmxRpWGYVqI+oCgBTGdTh25ycvLjx4+iSWd4M4GoL767v2ldOhcE4vf06VP2Rvfv34chCxupFFanDVfFYjHX/tnA69evy7rM4AZeuHDh1atX8f9+nj9/brFY7Hb7yspKPB4Hj1Vp2wI8IeAWwI4X6XoDVQ5ZsYchGry66r9F+H9/+/Y/osh4PJ5IJETwZSmBG36oXbbqVDmOGxoaEh0RhVvTukMdNzY27HY77VXhrI90E4eSQtBuUbTmL1tNGpm/DQMxUV8MJ5+kWpW/DWtRCDo0v3jxonTwROtO334mtRZpDLxkgV5LA9D60maim/ulzj5r/9Q3Fdk5ZCvbI2khQItXwEC+YwhaVe0urSAI4GuwS7tslZaXl8+dOyerEDAVI7JLQRByG0PkMPqhW+OlFgBVgG2Rot6frR10AYQQ9igArPbLLkLAoCSfDV1gdnSZhC0MG+Y4Tul5EARhZ2enpaVF5GfZbDZCiF6vLy8vdzgcMNCBUz9SPvCEgARSz1fUr8FjIPJM2UIqhfNZqaaFkXZtSrc70IY/ffrk8XjYM4M0K5iKYT2Mrf0PJIC+W2rhSgqRw+gnfxuG8xmEENEjDNt4pHsi8rdhMAzpCJtShUAmk9HoE4guPOxXFYXQYv8iL4HeHbIVzS7ArxoJ0KwKFchXIeDEgKzoqRRRXQ/3tmQozVlN78/PSP3cHBSC9tSHGv0IggCjBKVlAFAIlQk0el/WfWAXIeLx+JUrV+jLGODlVPS9cnq9vqenR4tfTPnD/JWoL6a/5hMA7CJPCqxc1MfBWJOdmgNQIoww2XUoXx7Kn49C0BMDh0KkbsOzs7NOp1NWIWB+RsnPhTfNSPdiKCkEYDwssTxtmCoES4xdhEin0x0dHXSLSv42DD6lymOVjxnncK2KQmixfzilJD1XCLMaUu+KeiTHTyBfhcjNDQdjEnUi0E7ATnQ0CX6CAwoVFRXSwXsOCpHb6If6m+zxDtbCoDsW+VaCIHz+/LmlpeX9+/fUOFiFiEQi9CTExMSE6HATz/Pv3r27d++e2+3W6/XsoetsNjs1NSU6isGWRxAEGPsrFViU+FBfZRUCNrSwPrIgCLBTi33rBnSUosEWeADH/NaN3NxwFRuGM97SlzjBOy6vX79usVhevnwpRQ0HL9hdCTSNrEJQazzU6IdepWQSB9owVFA0Sfjy5UuLxQLTZcvLy+fPn2c3qqjYMM/zS0tL6svLsB+PHXZTMicSUFEIjfYPpi7ykOAVdtK3bsBmSIvFcvwEclQIjuPgFfDV1dWEkEuXLsGcr3T/j2z7QS8p6kQgJd08WltbyyoBbAeyWCyy7/7UrhD0/fUPHjzQ6XRms3lqaioej9P9ObIFppHqE7j0hbXsFkCe5+fm5txu99DQEEzxwylC2OzE83w0GoW3wl29evXf//731atXp6en6R1FAdAS8N3u3r178eJFp9PJio0oPUyMHnaQJ82EjaEMBwYGCCGlpaWwOEEnf6GC9HV1PM8PDQ3p9Xq6TZb2leyZ+XQ67ff7c3tHWw5jCJiPjsVi169fJ4SUlZW9fv2arqaw9ZUNq9gwPSHkcDjYY5JwyMZkMlFLYHPe3t5ubW2VvgEX0ogUIp1Ox+PxhYWF0tJSQkhPT088Hof30bJ5yoYLYsPwWl/qyiwuLsLmWo/Hk0ql+vr6ZLs5KA9rw8+ePfP7/W63mx2OSIsdDofZAag0wfHEQL8Xj8cjkQi85HFiYkK63KXF/sHfZTuKz58/w782kD1seFIEclSIGzduiPZ3E0LoapuW1lKq8PLyckVFxdzcXFtbm8FgcLvd7e3tLS0tFoulrq6OjltFt9CuEO/evYOHSlR+6eSp6BbwFTxflRcOwnChsbGxpKSkpaWlqanJZrNduHCBLTnP848fP7ZYLHv5uFyu5ubmjx8/BgIBk8nkdrt/+OEHOol08+ZN0fgAnBfq/cGclYpCQG+lNGsnW8cDI+lEmYghLQZU0Gw2NzU1RSKRQCBgNBrv3LlD6wW3SKVSLS0tZrO5t7c3HA7X1dWxZ7sOLAabIAeFePHihfSYguxSEHsjNqxkw58+fXK5XGNjY3fu3IE3gLbuf0pLSysrK+fm5qR7AWAeJhQKgY/15s0bKrdwR1YhMplMU1OTCD7ZP/yv5TR+QWxYEISpqSmbzebxeGpra/fedfrHH3+EQiGDwVBTU9PY2EgHEAfaMMxZqStEMBiUnZ1nm+MYwtDPSMmLPDCN9h+LxfZezWC1WgcHB0dGRiorK10ul/T9oVCvkyKQo0Lk3xgwySMaZAmC8PbtW7qf8uPHj6Ojo11dXbdu3ZI9oECLoV0h6CW5BcB9Fj29slltbW3B1gilxOCP0AV5yJldK97a2rpw4YLIYqanp9l5tgMVAjizhzNkS3sUkclkEnbfh8NhejBQdCOYfAiFQt3d3XNzcyIJESVW+ZqDQqjkpvEnJRve2NiYn58HGUgmk9FoNBgMdnd3v3z5UraCPM8/ePDg8ePHcMnOzg78qxK2GKxCsPE5hAtow7AyzI5dtra22LViLTZ8oELAui4dr+RQ5RO5RIv9Z7PZ5eXlW/uf5eVlpTmYEyRwYgqxu7vb0dHBTkzn04rHphD5FPKw166srNhsNva/LCSTSY/Hw87VHKgQ4XB4b8fR27dvD3v3ryv94P7nmMtcEBvmef7p06dVVVX0OLTX621sbBSNBgqoEMdJSYsNH6gQCwsLFotFZer1OGt0Ivc6QQInphBwbs5qtR5qm6y0eW7cuOFwOEwmE/xnD4fDwXag6meqpbkVVUw4HG5pafnuu+/OnTv35MmTR48ewb+xZOco1BUCXlVPz3IXVe3+GoVZXl7O04bpS9zYuQvplpWvVCG02LC6QsD/2GhsbNS4UvjXsCu2FidL4CQVAv4XY3V1tezKDMson7DKmep8sj2Ga/emszmO43l+Y2Pjl19+kX2JgrpChMNhl8tF/4nVMZT5tN3ieGwY+lC6zPMVQdZiw+oKMT8/73A46D8i/IrqXqiiniyBk1QIQRBSqZTP55OebygU3K96DKEFgopCbGxsuN1uuqatJTdMkwOBY7Dhr1chNPJsbW2VXalOpVJer5edaNWY4V8m2YkTOGGFAJG4dOnS06dP2cmTAjbw1zuGOBDC1NTU999/b7FYGhoaQqEQuySeSqWamppQHg5kWJAEqVTqSG34L6wQKysr7e3tZWVlZ8+e3XuzId24AW9Y6ezsHBgYOKKeoSBNf6SZwA63kyVw8goBppBMJo/IDnieT6fTR5T5kdpHPplzHMc+bPlkhddqIZDJZI7OhuGtJ7L7oLSU7StNc9RIix9LMRAoCoUo/qbCEiIBJIAETiEBVIhT2OhYZSSABJCAJgKoEJowYSIkgASQwCkkgApxChsdq4wEkAAS0EQAFUITJkyEBJAAEjiFBFAhTmGjY5WRABJAApoIoEJowoSJkAASQAKnkAAqxClsdKwyEkACSEATAVQITZgwERJAAkjgFBJAhTiFjY5VRgJIAAloIoAKoQkTJkICSAAJnEICqBCnsNGxykgACSABTQRQITRhwkRIAAkggVNIABXiFDY6VhkJIAEkoIkAKoQmTJgICSABJHAKCaBCnMJGxyojASSABDQRQIXQhAkTIQEkgAROIQFUiFPY6FhlJIAEkIAmAqgQmjBhIiSABJDAKSSACnEKGx2rjASQABLQRAAVQhMmTIQEkAASOIUEUCFOYaNjlZEAEkACmgigQmjChImQABJAAqeQACrEKWx0rDISQAJIQBMBVAhNmDAREkACSOAUEkCFOIWNjlVGAkgACWgigAqhCRMmQgJIAAmcQgKoEKew0bHKSAAJIAFNBFAhNGHCREgACSCBU0gAFSLfRl9fX79161YgEOju7l5dXeV5/lA5spf/8ccf7LWJRKK2tnZsbCwu90kkEtlslk2fZ/jDhw9Op3NqakqaTzweHxgYCAQCwWDw999/V7ovW5ccUEjve9iYbDY7OzsbDAYDgcDDhw+TyaT2HJLJ5JMnT6COk5OT29vb0mt5nn/37h00961bt5aXl5VQSK89nphkMvngwYOtrS3Z22nkw3FcNBrt6uoKBALhcFgWhWz+BY/keX55ebm7uxuer5cvX8oC397ehgJ3dXWFw2Fpu3McNzIy8ubNm0wmA4XkeX5jY+PRo0fSxAWvxVedISpE7s3H8/zAwIDJZPrxxx8XFxcfPnxYUlJy8+ZNaoXqWXMc193dbbFYgsFgNBq9c+eO3W6fnZ2lVy0vL1ssFqLwcTqd8XicJs4zwHHcxYsXCSGTk5OirMbHx81mc3t7+8LCwujoqMPhaG5uTqVSbLI8UbBZ5RxOpVIXLlxwOByjo6MLCwvt7e0lJSW//vqrlgx//fXXsrIyaIjBwUGr1WqxWCYmJli9z2QyN2/edDqdjx49ikajgUBAr9fX1tZubGxoucWRpuE47v379/fu3bNarUqGoZHP5uam2+2uqamZnJx8/vy53+93OBwrKytHWn7ZzLe3t9va2qqqqtrb21tbW61WKyGkoaEhFoux6VdWVioqKr7//vtIJDIyMlJZWWk0Gh8+fMhqSTqd9nq98CTZbLby8nK9Xk8I+f77709Q/9haFG0YFSL3ppmYmDCZTKFQiPYjkUjEaDQODAwcmGkmkwkEAjab7dWrV4Ig8Dx/48YNnU7X3Ny8u7sLl09OTiqoA9HpdOx9D7zdgQnC4bBOp5MqxOvXr202WyAQoLL38uVLi8XS2dlJyykIQj4oRGXLZDKRSCSdTovi1b/u7u52dnZSnoIgZDKZtrY2m832+vVr9WtXV1fLy8tDoRCt49jYmE6ns1gsy8vL9Nrh4WG73T4/Pw8xu7u7V65cIYR4vd7DlpbmWZBAf38/IcRkMjU0NBgMBlmF0MgnnU43NjZWVVVtbm5C2VKplMfjcblcon65ICVXyYTn+evXr3d0dHAcB8k+f/5cX19PCPH5fNRBSSQSbrf72rVrtKNfXFw0m80Gg2F8fJzmzyoEPFPw5NLMaUoMiAigQoiAaP2aSqXq6+vLyso+fPhAr9kb3dfW1rpcrr0JIhopGxgYGNDpdENDQ/Drzs6Oz+cjhPj9fmq1g4ODfr9/c3NTNMl08+bNixcv0mSy+R8qcn193eVynTlzRqQQ0AmaTKaFhQWa4e7ubnNzs81me/v2LUTmiYLmDIF4PO71eg87PIJ+gdVXQRAWFhZMJtO1a9eohIvuBV9HRkYI+Y/ojo2NQQwdvd29exdiOI7z+/2EELvdTgcN0DVbLJalpSXZnI85EootqxAa+YA09vb2siUPh8OEEGqr7E9HF/7w4UNZWVlNTc2bN2/oXaanpw0GA9tSs7OzBoOBEHL79m1IFo/HnU4nIeTq1au03UEhbty40b3/mZqaohpDM8eALAFUCFksB0dC7+PxeFj/EXpPnU43MTGhksXGxobdbhepy8LCQjAYZJ+Hjo6OcDgsymdmZqa6upq6eKJfc/iayWRaWlpCoRAMw9lZJnhK7Xa7yH/s7e0lhPT398Pt8kEhLXBuCgFFoh06ZAvldzqdnz59kt6IxkxMTOj2P1KFoHXkeb6trU1JIdihBs32+AMqCqGFD1gvIYT1vqnQHvNQCSSNENLS0kLni2jv39HRAXiplksVorW1lTYBKARr2/QnDKgTQIVQ56P4Kzie0semtbWVECLywkS5wLUidRGlyWazIyMja2trbPzm5mZ1dbXoAWYT5BAOh8NNTU2JREKqEOCgSX1S8J2pw54PCmmBc1AI6uDTDh2yhQ5FNAaS3jGbzS7sf2hPBJphMBimp6dp+nQ6PTk5ub6+DjFUM7QMGWkmRxpQUgiNfL58+eJ2u0XjSEEQIFuRQ3OkFREEAbwodq/BlH4AAAtLSURBVHAgCAJVCNr78zy/srIyMzNDh9RUM9hBDypEzu2FCpEjumAwKDsHDQpBLViaO8/zV69ehVFwPB4PBAIOh6O6unp0dJRaufQqmFgPBAJ9fX107Cyb7FCRe/1dbW3t6uoqnahl/Szo+pUUgqpjzihki5qDQtCuTVYhpF2e7H1pZCaTuXz5MiGEXX2hv9LA+vp6eXm50WgsrGDT/HMIKCmERj5ra2vSmUaqEKJVmRyKd9hL0um0aMMeDApVPDCe5/v6+sj/v1YhCAJViGQy+a9//SscDhfhPrTD8jme9KdFIXie//PPP0UT+upf1ftrUALaS9LWUoqnCWhf7PF4Lly48Pvvv3McFw6HLRaLdI8QvUoQhPHx8ZqamgNXONhL1MOZTKa9vX14eJg+QqLOFMYKSgpB45WqrBSvXqocFIK6lkoKIYqXLUA2m00kEu/fv4dNSi0tLbJT1RzHxePx+fn5mpoak8n0+PHjAgq2bMG0RyophEY+1PtmvQSqECLbEJWq4M+XKH/4CsskZrN5cXGRTQB339zcvH37ttFolO53gofO6/VWV1ffu3fv0aNHTqfT5XKJxuhsnhgGAqdFIWKxWH19veMwn59//lnFSpS6P6V4mlUikaioqCCEiLZb3L59mxBy//592R4H9mzQyVaaWz6BSCTy3XffgRBS3WJ7h1OlEIlEwuPxOByOkpISn8/38uVL2YaYnZ11OBx2u91isfztb3877Ip6Pu114LUnqBAFf76klU0mk3V1dbK7+HZ2dlpaWhwOh81mq66unpycpBOGkA+YN7szCoaAx79HS1qvIo85LQpR8GZQUgKleFoA6tC53e4vX77Q+KmpKZ1Ox26VoT8JgjA8PGw2m9k9ReyvovC7d+/OnTv3008/0e2bogQwz1tfX093gqJCUESZTKavr0+n0+1txt+WOzcHKWHzpclkGh0dldUSSMbzfCQSqa+vn5mZobc4osAJKsQR1Yhmy/P8/fv3dTpdZ2enilXzPP/kyRODweDz+T5//kwv393dnZ+fZx83uixfWK+L3vEvE0CFyLEplZRAKZ7eBnbEija20rG8TqeTnmqG7aTSPUU0T1Ggo6MDxijs+Ts2TSaT+eGHH9hzG8evENlstru7Wzqog8n98vJy6U9tbW2yU39UdEWzSUrxLArZcCKRcLlchJDr16+r9P6w+dJoNKr0/nTIKHIIRPedn5+vqKiQVlk2pqurS5bDX1ghxsfHTSbT7du3VeQBkHIcd/78eULIgTvCYf2strZW6Qi6qI1O51dUiBzbHbYPKq1DqKxU06MPojRKs8CCIMDOP+2mDIctSktLV1dXZas3MTFRWVkZjUZjsRgsxqyvrzc0NBBCRkdH9zpWeGZgIzxdb6BZwewTrXvOKLa2tqRLQSsrKw0NDSsrK9KflJ5kKrpKCsFOndFaqASog3nmzBmVqWq6cMqeYhFlC2fQDuywYHlDWmXZGCUOSgqhkQ+tjggXZHv8K9WU5OzsbFlZ2dDQkIpa08SCIIBBGgwG6iGl0+nnz5+zG9MFQVCaRGWzwvBpUYhMJjM7OxvV/Pnll1/Up5ih96S9JLUkGEOo73YFH1+7Qoh6ZHovpQAs3ImeBzbx8PCwyDml7yGw2WwOh+PGjRt0I7ySQtDdrvmgYEsF4RxWqmmHLqsQ6rtdeZ4fHh4+e/bs8PAw2wFBOxqNxhcvXgiCkEql9tqrtraWff8EHaNUV1ervN4nk8kkEokDnV8pisPGKCmERj5USGQVQn23a8GfL1r3V69elZWVRSIR2jqzs7Ngn4IgTE1NnT17tre3l8ULzwsh5B//+IcgCBzHXbp0SSrSqBAUskrgtChEMpns6ekJHOYjne1hOcLTKJo6gPHBgSfmYEuGz+fb2dmheS4tLVksFml3Rh9vFUeVZpJzgHZ2bO/w6dOnPXmQ+tGgcLQ7zgeFtMA5KAT1B4PBIJvhysoKvKdI5cQc3eLJCiFlbrVaQRJg4y8hhNV16nSLmpItw3GGlRRCIx96wmNkZIQtNqyQSZ0hNk3Bny/IfHNz83//939F+4n7+/vhaCTdxSsa38AYgk7YptNpj8cj3Zt+4IQwW8FTGz4tClHwBobpTlHvCfPX7BGqTCbT2dlpMBh++ukn6gTBaSA2GWxmlRoxuw+V7ZsKXh1ZheB5/tq1a+xoHTyy8+fPs2/d0IhCY5lzU4i3b9/abDaRiE7vv6SBfesGvL3OZDLRjWqggoSQ+vp6ur2VetM0Es7QiQ5wwWFyUaTGah5FMhWF0MgHiImEdmho6PjfuiEIwufPn30+X1dX18zMzObm5szMTDQajUQitbW18K4BunjG7u+g6k4j4eUxgUCAnRWAa3U6Hez2Porm+GvkiQqRezvOzMwYjUZ6hI3n+aGhIb1ez9oc7XkrKirYowwDAwN6vZ6+fS+VSvl8PvbFc7RYdKnziBQinU7H4/GFhYW9Tp8QMjw8vFdmOtO9urpaWlp6+fJlOoqfnp42Go2iJVwtKGiN1AO5KQS86M1sNtM366XTab/fL1qMgT4UTlTBAA4urKqqYl+9HolEDAYD2xyw25jd3QRvBpQezlKv3VH8StcwIpGIyWSCt9LG43F2aksjH3jFb3l5OT06/vnzZ/f+h7Xeo6iFKE94ImTfXMmOs4eHh61W62+//UYvhzdLik4yvnr1qrq6mu7c43l+bGwMtjxRt4DmgAGWACoES+NwYZ7nHz9+bDabm5qaIpFIIBAwGo137tyhnSkchJaOISC+p6fHaDT6/f729vbKysrS0tK5uTlpCag/S99FI02TTwydtGWfRlaNpqamrFZrXV1dOBzu7e01m81sRwm31oJCYyFzUwhYKmhpaTGbzb29veFwuK6uTopUOoYQBGF7ezsYDJpMJp/PFwgE/H6/Xq+vrKxk+x1BEN69e1dXV2ez2VpaWgKBgNvt1ul0ly5dYndVaqxjYZMpvQNYNPeSSqUO5CMIQiwW2ztxZrVaBwcH4WXaJ3KyjI7PWLOEMDtwz2QyoVDIYrHU1tYGAoHm5maTyWS1Wtl1C3h38t6+DKvV2tTUFAgEvF6vwWC4fPmyyupRYdvo680NFSLftksmk+FwOBgMyv7rEvXcP378ODIyEgwGlf5lDVy+tLQUCoXY3dzq2Rb81+3t7cnJyWAwODIy8vHjR6X880FB88xZIaAjePfuXSgU6u7unpubY6Wa5q8USCQS0Wg0GAyGQiGlVzJks9m1tbXHjx93dXWNjo6qoFC6y8nGw39AOpBPNptdXl6+tf9RQnGyFRHdPZVKTU1NdXd337p167ffflNqd7DPrq6ukZGRjY0NOusryg2/sgRQIVgaGD55AolEorGx8ZjnNE6+2lgCJFCUBFAhirJZsFBIAAkggSIggApRBI2ARUACSAAJFCUBVIiibBYsFBJAAkigCAigQhRBI2ARkAASQAJFSQAVoiibBQuFBJAAEigCAqgQRdAIWAQkgASQQFESQIUoymbBQiEBJIAEioAAKkQRNAIWAQkgASRQlARQIYqyWbBQSAAJIIEiIIAKUQSNgEVAAkgACRQlAVSIomwWLBQSQAJIoAgIoEIUQSNgEZAAEkACRUkAFaIomwULhQSQABIoAgKoEEXQCFgEJIAEkEBREkCFKMpmwUIhASSABIqAACpEETQCFgEJIAEkUJQEUCGKslmwUEgACSCBIiCAClEEjYBFQAJIAAkUJQFUiKJsFiwUEkACSKAICKBCFEEjYBGQABJAAkVJABWiKJsFC4UEkAASKAICqBBF0AhYBCSABJBAURJAhSjKZsFCIQEkgASKgAAqRBE0AhYBCSABJFCUBFAhirJZsFBIAAkggSIg8H9smSggiLrD7wAAAABJRU5ErkJggg==;" vertex="1" parent="1">
          <mxGeometry x="359.77" y="865" width="132.97" height="30" as="geometry" />
        </mxCell>
        <mxCell id="WOx4rIqFdnK--00V2V1H-368" value="" style="shape=image;verticalLabelPosition=bottom;labelBackgroundColor=default;verticalAlign=top;aspect=fixed;imageAspect=0;image=data:image/png,iVBORw0KGgoAAAANSUhEUgAAAcsAAABxCAIAAAA1Rh+3AAAgAElEQVR4Ae1d+1MTyfb//qudRyUVEgMkgERYHpUiy0NcFAwQxXhXWJTFlcR1Ea572RRZUhJBUEBAREAXwRjCI4FUyMzX5dTt6jsvhiSsMZ75hU5P9+nTn+759OnTZ4b/4/FCBBABRAAROB8E/u98xKJURAARQAQQAR4ZFicBIoAIIALnhQAy7Hkhi3IRAUQAEUCGxTmACCACiMB5IYAMe17IolxEABFABJBhcQ4gAogAInBeCCDDnheyKBcRQAQQAWRYnAOIACKACJwXAsiw54UsykUEEAFEABkW5wAigAggAueFADLseSGLchEBRAARQIbFOYAIIAKIwHkhgAx7XsiiXEQAEUAEkGFxDiACiAAicF4IIMOeF7IoFxFABBABZFicA4gAIoAInBcCyLDnhSzKRQQQAUQgLxj28PDwX//615s3b85pPCYmJqanp89JeH6KTafTvb29U1NT+alenmi1s7Nz48aNSCRyTvr89ttvq6ur5yQ8P8VGIpHOzs7zg/Qf6/Xw8PDIyAjHcVm2+OUZNh6Pf//99z6fT6EzHMe9f//+3r17Ho/H7/d//PiR5/lUKhUIBBKJxKkQDJ1cpxbLhwKJRCIajW5vby8uLh4fH2ej0vb2dlVVVSgUykZIAddVg08qlZqZmfF6vT09PRMTE4eHhzzPRyKRiYkJNci43e5wOKym5Jctw3Hc3t5eNBpdW1vb2NjIUplQKFRVVbW9vZ2lnC9bXQ0vqdEwBwx7dHTkcrmI/KXX61taWtbX18UKpVIpj8dz9erVVColvgs5W1tb9fX1ZrO5r68vEAhcv37dZDL98ssvN27cuHz5cjKZlKtI8xUYdmpqSqPRyOtOSktLf/vtNzWt0OYyTrDKtLS0ZN/o0tJSWVnZ8vJyxipJVkyn07Ozs16v1+PxPHr0aH9/X7LYeWeurq6azWaFsbNYLH19fZJrcDwed7lcd+/elVvXOY4Lh8Nms9nhcDw+uZxOp9VqnZiYcDgco6OjanqnwLDd3d0Kmmu12vr6+rm5OTn11LSuvgyrjMquKQjnOO7BgwculysejysUy/hWOp0eGxtT2BxEo1G/3+/xeLxe76tXr9LptGRbm5ubYLT19vaur6+Lod7a2nI4HFnaKDlgWNA+nU739/cTQi5evLi+vg7skEgktre3BwYG9Hq9wWAQr+eTk5NWq3VlZUUSAp7nX79+bbVaf/jhB/YxXl5etlgshJChoSG5imy+AsNCsb/++qu4uJgQ4vP59vb2OI5Lp9OxWGx+fr66upoQ0tzcLPmgsq3kJJ1MJru6uggh9+/fz14gx3G3b9+ura1l0ctSbDweb25uttlsY2NjCwsLXV1dRUVFz549y1JsxtV3d3dra2sJIR6PJxaLpdNpsMhWV1dbWloIIVVVVeJNq9/vr6iogM2QuGmO4/x+v8FgePToEX0+OY7z+XwajcZkMinMWFaaAsPyPM9x3B9//EEIsVgs8/PzMMGSyWQkEvn3v/9tMpm0Wu2vv/7KCjy/9ObmZnl5uclkev36dfatxGIxh8OhsIBl0EQ6nY5GoxMTE/BIiskEZIZCIaPR2NXVtbCwMDY2ZrPZ2traBFxPx/enn35aXFx89OhRUVHRnTt3xHbeyMhIaWnp5uZmBgpDlZwx7PHxcVtbGyGks7NTsBpwHHfr1i1CSF1dHdvVeDxeV1fX3d0ttx1OJBINDQ2SBNHf36/T6WZnZ9X0/FSGXVhYMBgMkk/O2tqaxWLRaDTj4+Nq2sqyTDKZbGlpUd+1U5tbW1u7cOHCyMjIqSXVFDg+Pr5586bFYqF2cSqV6uzstFgsGbjRI5GI3HOiRhko8+HDh+LiYo1GMzk5KagVi8UqKysJIQMDA+ytra2t0tJSheV5ZWXFZDKJCeLg4KCmpsbhcOzu7rIC5dLKDMvzPBglDQ0N4vV7eHiYkL+3UFtbW3Lyc5i/sbFx4cIF9V07tenh4WGr1Sq5cz21rrgAjIhWq62qqrJarYQQyZnz5s0bi8Xi8XgoVy4tLZlMpps3b7IkMzk5aTAYWM9kMBjU6/V+v1/QNEyh27dvCzhNUEzhZ84YNhaLlZWVEUIkdxn3798nhAgobHx8XK/XK5xBjY+PazQaSWsuHA6XlpaKbRPJrp7KsA8fPiSESE6vSCRSWlpKCHG73ZLCc5sJfFFcXPzhw4ecSIaVT7C2ZSx5cXHRaDS2tbWx8xXWp1u3bp11FobD4exRBdfKhQsXxA7ERCLhdDoJIQIKGxgY+LwHWltbk8Th+Pi4vb1dzppzu90dHR0qe6rMsNS95vV6xZqEQiFwI0hSibh8ljmBQIAQIhjZbGTCTBasbdkIhLpgdUkyLAycwWBYWFigDcH8Z4cbDDvBIwZrZ2VlZSwWo3Uh0d/fn806lzOGVTADqXnL9grgkCQ12kNwD0lSdjgcVu+pVGZYqp7Y+uZ5HvpFCOnv76eKnV9idnZWp9Op75oaTQKBQK6MYrC5BGsePEt2u/3Tp09q9KFlcsKwCmYgKCYgDnjAFBAGW0GSsnmed7vdkhOSdopNKDMsqCdpfVPzVsAXrPDcpr1er5x5lFlD8FgpP+AZSFZgWMBTbHjBDKFbFniinU4nu28AbSXHAsqrH3RBp3LGsApm4KdPn+x2OyGkvb2d2j6QqWAOHB0dNTY2EkIkz8FevXol3hUK+kZ/KjOssvU9NDRECDEajYuLi1Tg+SVgNuSWzWGHlb1M8GCI3d/RaNRut2fABdkzrLIZODk5qTm5WA8PoCFYJNgBpX6hQCDA5vM8n06nnzx5ot4rp8ywytZ3Q0OD2LEm0CdXP8GCy2AElRUYGhrKuUwFhgXrxG63R6NRVjF4hKl5Pjo6Kt7WwNopaUgBU9HqrGQ16dwwrLIZODIyotFoWOcdz/MAB11YJHWlR5xweru1taVydyaQpsywCtY3OOzhFAU8OxzHPX782GKxGI3Gx48fJxKJ27dvm81mk8nU19dHvT+gwLt37z7HBprNZovFYjAY+vr6BOEB6XT6zz//vHjxounk8vv9zc3NGo0mt3GssIS4XK6joyMBMmf6ubu763A45BhWcuOmLD97hlUwA5PJ5OXLlwkhgkNteMAUtt50xdVqtW1tbeFwmD08UO6R4K4ywypY3zMzM/qTix5kp1Kpvr4+k8lkNpunpqZ2dnauXr1qPrkeP37MPhccxy0tLbW0tJhMJovFUlRUNDw8TM/rQMNEItHX12exWEwmU3l5eSAQuHDhQllZmXiPLOjRmX7CEvLw4cMz1VIurMCwMLJyDEs9RWCt05+0ObfbLekMhFU8Y3Byw7D02RPY0hzHPX/+3GKxWK3WFy9e0M7wPH/qROd5fn5+3mg0skEtBoPB4/Hs7Oywok5NKzMsaCLeziQSiY6ODo1G09nZeXgSCMnz/MrKSmNj497eXkdHh16vt1qtDx482N3dhSN1eg6bSqUGBwd1Ol1PTw+c48OR95MnT6i2h4eHcEb0/PlzjuM2NzcrKioIIawvhRbmeZ7GoPT29r579059VCZMyoynCNUBbFUFhlVeL6kcmsieYWGdFu/ok8nkvXv3NBqNy+USzBav1ys4D6D6QILjuLt377KzDk6choeHBSuooKL4pwLD0g2B2An79u3bsrIyg8EwNjZGqTMUCnV0dOzt7TmdToPBUFJSEgwGP378+Hk2svtimFQGg+HBgwcwad+9e1dWVvby5Uuq3sbGRmVlpdPpjEQiHMfBIY/Al0IL8zxPo5oGBwej0ejq6urc3BxbQC4N24Xu7m65AhnkKzAs2KpyDEvzgUnlGFacD+at2WxWiA9T6EhuGBbMQK1We/nyZc9/L7fbXVpaqtVqJd/xuH///qnOQYhJhKNDdsZXVlYKzrjS6fTMzIzL5ZJchBUYllrfNpvtv4r//dflcun1ervd/ueff7Lrv9frHR0dpY8HnFECR9MxoGE97Jkmx3EdHR2UgyAQWKPRsFtROD6WNDafPXt26dKl58+fJ5PJ1dXVhoaG0tJStq7CGEPTcsStUFFwKw8ZFsxAi8XS2dlJh6+1tdVgMJjNZnEgM0AhZmRBT5PJZF9fn16vZ2cdIURwJD03N1dXV2e1WiHwli7DVJoCw4L1DdtVqnlXV9fFixe1Wm1jYyN7Cp9MJq9cuTI7OwumjEajgVNvMMfo2kknFXtKDsd91Gbf3t6uqKgoKSmhvo5kMtnU1EQIERubHMcNDw/X1dWtrq4mk8nnz5/X1tba7Xb2KIl2VpyAU+KM99digTzPfxGGvX//fsbujtwwLDhhrVbrkydPJpjr5cuXgn0xRc3tdiubErQkx3FbW1ujo6N1dXV00lNjORaL1dfXl5eXFxcX02WK1oWEAsPSLWFnZyej+MTTp0/FTomDg4Pm5uaNjQ2oRQ8o19bW6urq/H4/2DhgerPnj2DLV1RU0JCmyclJvV5fU1Pz2QVGtYWIC7HD9M2bNxUVFTRACs7f7Ha7+PScihIk1KC9s7PT3t7e09MjtynON4alTliXy8WO3cTExMbGBrsuUjTg+ZSbJ7QYJFKp1OvXr/v6+ux2O7yWwlLzzMxMT09PMpnkOO7p06dGo7G9vV1g5CowLOygjUaj3+9nlZ+ZmRHj/+HDh8bGxt3dXXjJgh55z8zMVFVVBYNBMHUDgYBGo2HjRsBxXF1dDRYJBNsJvI1AwZIMMjk5KXg7KxAIiHd7AtzoT5gwklYhLcPz/Pv377///vuff/5ZgB5bhqa/CMOCdUxXKaqMmkQOGJaagWdarNQ88+IObP53Ky2O8nG73XJPjgLDgvUtOb3ErdMcqCU5dSBGghBitVrBsAJbvrKyku6tqNXAkinYxZJOWK/XKzj7jkajbW1tLDtT3SQTatCGZVLhQDljho1Gow0NDTbRBe5pUfbfGX/88YdkR9hMagaqtOWpBSQ3T1jhbJrdStPHrLu72263w86R47jOzk7xnkyBYcH6FiyxbKOSaYipkgx6gRgJQkhZWRkYxdeuXbNYLPX19e/fvwdpcIgnmO0QCUsNYdouTEiBE2NlZaWrq4ueV9PCkgmVDAvHLWL0JGV+iwxLzUC6BZaERpCp/MxPnVyCKvATpmauGBZo5ayRRuAWEEw+UI+6pKlRvLy8LKBCsEQEUwq2VOK9PEyp7777bm9vjwKyvr7u8/noz1MTymhDdTCr9Xr9zMyMpEA4cVbww1L2EVSHF+SiomtsbKytrU2U/XeG3NaHlQxmoMqdEFQEMOUYNplMDg8PS0b4075DH2EdZZdDSTNHjmGp9S3JlWwfBWmFmCogSo1G09/fD0bx2toaG5DE87xkwA8E3orNI+DHK1eusKbly5cv1a9nKhnW7/drNBqVrycoMCwsP+LBhaGh9pDcAaPcSRfP85KDKxgauZ85sGEzMwPhwIEeDbH6gUUgN5D3T15eoF4CWjEDGzYz6xtqSYbOwXmU3W4XsCdVEhLhcBgOT1hvMhzaiJ2w1CjOJqDC7XZTN7FAGfbnwcnF5rBpCpdgKYUHSWAZsRXl0lmedGVgBoJdxh4Nsbp9+vTJ6XRKvusBW2nWS5BMJuElXZDg9XrFgy7HsBlY3zzPA8vLrShwrMRqyHYN0kAighBJYG2xExaMYo1G09DQEAgEJE84xE2wOTAxxFOaLQNvD+/t7QkWA0EZ+lOBYYGI5BiWLiFAxJRwqWQAh91W0ltDQ0Psakrz1SRywLBA8Gc1AxWWBTADJRkW9teSy10GDEsDdQWUoQwcqCc3lWFWyT0GIBkYVjDGsHLAAP/2229s1AF8nIGeupSXl5/pWBNoRTzzlLspeRdGTWC8g0l+1gnA83w2DEuftLOagQrm/OzsrN1ul2RY2F/LfWno48ePFRUVjY2NApqQY1gI1FWeJGL8lV9sBYZVHmUgEXa2s07YRCLR3d3NnrCFQiGDwUAn3ucPMLE2gVhDQQ4oLN5uCoqd6Scdd/GGCR5n8YMJXgjaawBK4E2GXYWc2XRq/IlCF7JlWGrX0CVCoTH2FuxNxKYoRESZTCb29QRaEeIEHzx4QKNY6K0MGDYz6xtqCd4JoWoAnYnfueQ47j//+Q+8RAhjzDJsPB53Op2wTiYSiZaWlsX/fcHh8PAwHA5fu3atqKiIEMK6ZQ8PD3///XeBI4LqA85H58kleP7ZMirTQDRs6zzPT09P63S6f/it2czMQJ7nFYJYwFRhX08AWOADOiaTaWlpSQwU3K2oqBB/r0+OYTOwvnmeB+NLYIFSfWDhF5vnqVTq559/Br82LJCUa3ieh9f2wQm7srLS1NQkOGfb398PBAJNTU1AteziGovFxsbGFPw5r1+/NplMCi93UOXVJxQYFr5/IthJgE1GD6V5noccARHD9wfoESKrD8SfiIFlyyikM2dY+JLpwsICRFP19fVFo1H4MJVCe/QWsAw7YPQWeDn1er3gy0YQWiv+Ug5UVM+w4BaMRCK3b9+G+NM3b96o9P3RSF5JzUETcGiy3w1JJBJer7eurg5MAAiGp8EG+/v7zc3Ner0eeHl+fr6trU1u4gIXg6myt7fX3t7+2bCqrKwUvMdCweR5HsjorLYeK4GmgU2MRuP8/DxkwnoguaugteQSGdiw9Eumv/76q0ajMRqNU1NT0WhU/eIB9qN4aYelkRBis9lY5xWE1hoMhuHhYfG6DgsnxJaKuylg2GQyCd9graqqIoRcuXIlGo2yrgaxBDZHwQkLxfx+v1arZTd/kUjkypUrV69eBd5cX1+3Wq3UdllcXIR4SqfTGY/H7969Ozw8zLbIpre2tsrKysAsePfu3eXLl1taWlgrgS0MaYhtUP/upVgCzaGu/Ldv38JrLz/99FMkEhEMPXSQfQt0enpar9cLPt0Chhp9QiEoTavVSn4gCZwzyj2leooTGTJsKpVqbW2l2weaONXnQjWQ0xucsB6PZ3p62mq1FhUVtba2ejye6upqo9Ho8/nkqEc9w758+ZJGfVHN1ftZbty4odPppuX/aQJ8la6oqKi6urqrq+vzfqSkpEQQmxmJROrr6+12e0tLS2lpaTAYXFpaslgs5eXlbGDW6urqnTt3KGiQcLvdrAW9srJSVVWlwLDg4WUfPIHAM/2Mx+PXrl0zGo39/f2BQKC2tlb8OolKgRkw7Pv378Xx0ZKxnHI6yK03nz59qqysHB8fh1dF7Ha7++SyWq3l5eUvXrwQ0yvP86FQqLW1FV4q+XRyse0KGPbHH3+k840mxIf4rASahpfIWVuM3qKJVCoFkZsNDQ3wOFRUVAgCuqempiwWi9PprKmpqa+vf/func/n0+l01dXVjY2N1ICdmpr69X8/nAjGI2tBh8NhZd7xer3ik1uq7ZkS4HyjoLEJ1iTneX5qaspsNtfW1gYCgf7+fqPRyL4xBI3Cm5lGo7G1tTUYDHo8Hr1ePzg4yJ7pUfXA1yHpn6VlFBIZMqyCRPW3+vv7BbY62PBPnz4FGk2lUnNzc/fu3YMvzNPhl2xCPcNKVlefmUwm1ZjqqVQqFosp2PVgjsViMTquYOOw5lggEBAYy7DHYT9ZdCrDZvlxIDEy8C8nfD5fb2/vixcvqP7ikso5GTCsskA1d8GvJXDD8Ty/tbU1Pz8PNLq/vz8xMeH1ent7e5eWluQ6uLy8fOPGDTotf/31V8HrzgKGVaOeQplEIqHgC6IVYRZ9piS5wjAz2Tl8cHDAzkP47ozAzIc3yFkXijLDgglF7WWq3j+QAJcavBwk9wlgnufBAeL1egOBgMIHlAOBQDafJfmSDAuOAoWNyZkG4x9j2DNplWXh7u5u1sHHcdz4+Ph3333HHuwqMyxM9AycpFlqrqb61NSUx+NRUzK3ZeAAR2EXoqa5jY0Nh8Nx7do1GnxKw2Np9dwyLBV73gk49mG/55BOpwcHBwUHfcoMu7CwYDKZsgT5vHt6qnxYj5uamuS2zqdK+JIMe3x83N3dLfmB7VP1pgVisZjT6SwpKdFqtfC5+EuXLgk+/Tl0ctEqX0vi4OCgqalpYGCgoqKir68vGAxev35d7PJTZtjx8fHMPo/9taCUgZ6w4WW9dWcVQp227HZVfI7/lTLshw8fXC7XnTt3HA7HL7/8Aidd7e3t1FoHuBQYFkIMxcEVZ8X5i5dfXFy0WCzZuJK/JMPyPL+9vV1ZWSnpYM4huF8pw8J2DzwnL1++lHyRF0Iv5Pyw+/v7dXV17FvqOUT1qxa1vLxcXFws925Frrr2lTJsIpGAf+IQj8dnZmbC4TC7Z6LgKDDs/Py8zWZj3/Omtb6iRCqVunr1Kvt1kQyU/8IMC2cFNpuNjcLLoBvKVb5ShlXuFL0rZ8Oe9z+kowp8jQn4Ok9VVZUkd+SqR18pw6rsvhzDxuPxhoaGAljXg8Ggw+EQB+GpxAeKfXmGBZJtbm4WfGXuTN1QLlyoDJtMJn0+X3Nzs8FgaGtrExyzhEKhK1euCHZ2ykB9U3fh3+GJD5pzCEKhMuzBwUFfX199fb3JZLp+/Tr7/ksqlbp586bf75cMvcghtuctanl5uaGhIUt65Xk+LxgW3gjM2Jd8KtbJk+vUYoVUgOO4/f19uUPwQuppNn05b5SOjo6+tSFIpVL7+/tfO73mkJHyhWGzeU6wLiKACCAC+YkAMmx+jgtqhQggAoWAADJsIYwi9gERQATyEwFk2PwcF9QKEUAECgEBZNhCGEXsAyKACOQnAsiw+TkuqBUigAgUAgLIsIUwitgHRAARyE8EkGHzc1xQK0QAESgEBJBhC2EUsQ+IACKQnwggw+bnuKBWiAAiUAgIIMMWwihiHxABRCA/EUCGzc9xQa0QAUSgEBBAhi2EUcQ+IAKIQH4igAybn+OCWiECiEAhIIAMWwijiH1ABBCB/EQAGTY/xwW1QgQQgUJAABm2EEYR+4AIIAL5iQAybH6OC2qFCCAChYAAMmwhjCL2ARFABPITAWTY/BwX1AoRQAQKAQFk2EIYRewDIoAI5CcCyLD5OS6oFSKACBQCAsiwhTCK2AdEABHITwSQYfNzXFArRAARKAQEkGELYRSxD4gAIpCfCCDD5ue4oFaIACJQCAggwxbCKGIfEAFEID8RQIbNz3FBrRABRKAQEECGLYRRxD4gAohAfiKADHsu47K5uXnv3j2Px9Pb27u+vs5x3JmaYau/e/eOrRuLxWpqasbHx6NSVywWS6fTbPkM0slkcmJioqenx+PxBAKBw8PDDIRkWSUajfr9fo/H4/V6X716pb5T6XR6aWmpt7fX4/H4fL73799Lgn94eAh97OnpCQQC+/v7WSosWX1ra+vx48fJZFLyrkqcM4ZCstFsMlViu7+//+TJExi7cDj8ReZPNt3MbV1k2NziyXMc5/f7DQbDTz/9tLi4+OjRo6Kiojt37qRSKTUtJZPJ3t5ek8nk9XonJiYGBwdLS0tnZ2dp3ZWVFZPJRGQuu90ejUZp4QwS29vbDoejuro6HA4/f/68paXFZrOtrq5mICrjKqFQyGg0dnV1LSwsjI2N2Wy2tra2eDx+qsB4PN7W1lZdXf3kyZNgMNja2qrRaH744QcBga6urpaVlV2/fj0YDI6OjpaXl+v1+kePHqnncWVNEonE2tqa1+s1GAwNDQ2JREJcXiXOGUMhbjHLHJXYPnv2rLi4GGbvw4cPzWazyWSanJyUXOeyVOmrqI4Mm+NhmpycNBgMPp+PTqlgMKjX6/1+/6ktpVIpj8djsViWl5d5/m+y/vHHHzUaTVtb2/HxMVQPh8My7Eo0Gg3b7qnNiQskEonGxsaKiort7W24G4/HnU5nZWVlJBIRl1fOefv27atXr5TLiO++efPGYrF4PB66Ji0tLZlMpps3b1IQxLUArtu3b1+6dOmvv/6CAvF4vK6ujhDS3d1N68ZiMYfDcevWLWpbLS4uGo1GnU4XCoUkJZ8p0+12E0IsFkttbS0hRJJhVeKcMRRnUlhNYY7j1GC7vr5eUlLi8/no2I2Pj2s0GpPJtLKyoqahwiuDDJvLMYVHuri4+MOHD1TuwcFBTU1NZWXl5w0+zZRM+P1+jUYzPDwMd4+OjlwuFyGkpaWF7jQfPnzY0tKyvb0tcBLcuXPn8uXLtJik/FMz4Xno7+9nSwYCAUII1Yq9pZweOrmUywjuHh8ft7e3GwyGhYUFeuv4+Litrc1isaytrdFMcWJ3d9fhcBBC6urqqMELfFdaWkpXiNnZWZ1ORwgZGBgAIdFo1G63E0I6OjrouiiWf9YcWAslGVYNztlAcVZVTy2vEtvR0VFC/l7px8fHQSbdct2/f//UVgqyADJsLod1YWHBYDA4nU52YwgEodFoJicnFRrb2toqLS0VsPPCwoLX63379i2t2N3dHQgE6E9IzMzMVFVVUcNTcFflT9CTECIw5aBTkkyhLDkDhv3w4UNxcTFLiNBEf38/IWRoaEihxUQi0dDQIMmwrPOEPvNihnW73Qryz3pLjmFV4pwNFGdV9dTyKrGdnJzUnFxihlUeu1MV+HoLIMPmcuxgDReTEVhSAttQ0DDUFbCzoEw6nR4dHd3Y2GDzt7e3q6qqBLTIFlCZpnZKOBxmqwAlCaifLSCXzoBhwcBkCRGEDw0NEUJYb4lko9FoNBwOU0805YWmpiZq3XMct7q6OjMzQ3Mo52Zgp0uqAZlyDKsS5yyhUFAss1tqsE2n0wsnF/VoA+fqdLrp6enM2v3aayHD5nIEvV6vpOsNGFbBROI4rqOjAzaq0WjU4/HYbLaqqqqxsTFKBJKKguv27t272W9vNzY2Lly4QAiRZNgMXGkZMCwsM3IMK166JDGhmfPz80ajkfq1aT6b4Dju7t27hBCXy0V9C2yBjNNyDKsS59xCkXEv5CqqwTaVSl29epUQwnrV5QQWav43zbAcx+3t7Qkcmso/lfkOmFRMBHL5dFZRa8vpdDY3N7969SqZTAYCAZPJpHyMHgqFqqurT/Xw0oYUEtSUk2RYMfMqiG06KlsAAAfMSURBVIJbGTAs2KpyDCvOl9QhkUhEo9FQKGSz2cxm89TUlLgYDP329vbAwIBer6+vr6eOWnHhzHLkGFYlztlAkU6nY7GY8kxm78ZiMXo2pdxZNdhC63/99ZfH49FqtdeuXcvt0qWsYb7d/aYZNhKJ1NXV2c5y/fHHHwpDKMekcvlUVCwWKysrI4QITrQHBgYIIQ8ePJA0UeFYnPoTqbTMEiqffPXCvxTDjoyM2Gy2kpISi8Xy4MED1idOlT86Orp27ZrNZrNYLFVVVeFwmG5saZksE1+QYVdWViorK9XP67Kysvn5eTX9VYNtLBZzOp02m62oqMjlci0tLUnOXjXNFUCZb5phcz5+ckwql08VoMfZDodjd3eX5k9NTWk0mtLS0q2tLZpJEyMjI0ajkT12p7cECY7jgsFgXV3dzMyM4Bb9WTAMS3u0vr5ut9utVuuLFy9opiDBcdyTJ090Op3L5drZ2RHcZX/u7Oy0t7f39PSotMi+IMOyap9TWg22qVTq7t27Go2ms7OTxsadkz55KxYZNpdDI8ekcvm0bYjoEgRm8TwPrKfRaMRbXYgMEx+7U5lsgtrIAgZny2TMsGtra5cuXRJbTEUnlzhfwWLKZmvM9oWmh4eHCSFWq3V9fZ1mChLJZLKpqYkQohzu9vDhQ4hEHh0dFUiQ/FnYDMvzvBpsY7FYZWUlIeT27dvfpiWLDCv5dGSYCUFFcn5YhZMuGvoqKCPHejzPQ5x8TU3NZ3Y+VV0IcVcmEQgPEvtbQQeFk65UKiXp9bt7crH+PkgreP0g9lbsbwXmFQN7asch1IwQ4vV6FQrDwOl0Ovb1OUH5yclJ/cmlsA9gq8gxrEqccw4Fq1tO0mqwpaFpFy5cEMTA5ESH/BfyTTNsKpWanZ2dUH09ffqURgJJDi08FWIiABtWOVqru7ubEKKeYc9KOsCDCgca1I6WPOn6Z6K14KGVY1jlaK1IJPL9ycWeWdElqrW1Ffo+NTV18eLF/v5+FgoAkxDy+++/S44sZB6cXAoF2FtyDKsS52ygODw8fPbsmep5PREOhyW91bQ7arDlOG5kZOTixYsjIyOsuQqTX6/Xv3z5kgr8dhLfNMPu7+/39fV5znKJd+vsXIHnWbATB/v01DcO4D0fl8t1dHREZb5+/dpkMgneceJ5npoG7OtetFZmCY7jOjs7CSGCXTD4gsXLxqmtZHDS9enTp8/0KrZ3YPlRjlqHUDnBiwnUzuru7uZ5nsaiCkxysGElvTGndlOugBzDqsQ5Gyg2Nze9Xu9Z5rVH+dMTarClUWjsAkknqtlsVm5CDsavPf+bZticDx549AQEAa4o9q3ZVCp18+ZNnU73888/09Ue3ulii/E8HwqFJANsaXSXwObNskfT09M6nU6woQZ3WwbR+BkwLMdxt27dEuzWAVXBW7OhUAi+q0K/6gJ2KPvKJs/zsKugmRQ39vCQsgCbmSWSPM/LMSzP82pwVg9F9qqeKkENtrAkCN6powY7+yrzqc0VUgFk2ByP5szMjF6vp68AcBw3PDys1WpHRkZoSzRyoKysjA1l9fv9Wq2Wfr0lHo+7XC7JgHl6cpVbhk0mk5cvXy4pKdnc3ARtd3Z2HCcXqyftiHIiA4bleX59fd1qtV69epXu4qenp/V6veCoBPaerNUJFQcHB2ncFXy2RhDxPjIyYjab5+bmqPLwZRm9Xp/9e3E8z0PEKHxykBBit9uXlpai0Sj7YUmVOKuEgnbk/BJqsIWvw1RUVLDf2wwGgzqdTnIOn5+2eSUZGTbHw8Fx3OPHj41GY2trazAY9Hg8er1+cHCQ8gXP85I2LOT39fXp9fqWlpaurq7y8nK5SCNqGsDmN4d9iEQin8PvzWbzw4cP4ct+lZWVmZ1RZMawPM9PTU2Zzeba2tpAINDf3280GsXhPmIbluf5ubm58vLy0tJSt9vd1dVlt9u1Wq3X62VDhVKplM/nM5lMNTU1Ho+nra3NYDCYzeZgMEj3E9ngSV26gk+gsXtnnudV4qwGimy0VV9XDbaHh4fwzUaXy+XxeFpaWrRabXl5ObueqW+xMEoiw57LOO7v7wcCAa/Xm8HXnT9+/Dg6Our1epW/Xvz69Wufz8cGz+aqJ+l0emVl5d7JtbKyQk3Cs8rPmGF5nj88PAyHw16vd3R09OPHj+qbTqVSgAx8opT6EAQS4vH41NRUb2/vvXv35ubm2PVPUPL8fqrEOWMocq65SmxjsdjExITX6/X5fNnMn5zr/0UEIsN+Edi/iUYfnlzfRFexk4iADALIsDLAYDYigAggAlkjgAybNYQoABFABBABGQSQYWWAwWxEABFABLJGABk2awhRACKACCACMgggw8oAg9mIACKACGSNADJs1hCiAEQAEUAEZBBAhpUBBrMRAUQAEcgaAWTYrCFEAYgAIoAIyCCADCsDDGYjAogAIpA1AsiwWUOIAhABRAARkEEAGVYGGMxGBBABRCBrBJBhs4YQBSACiAAiIIMAMqwMMJiNCCACiEDWCCDDZg0hCkAEEAFEQAYBZFgZYDAbEUAEEIGsEUCGzRpCFIAIIAKIgAwCyLAywGA2IoAIIAJZI4AMmzWEKAARQAQQARkEkGFlgMFsRAARQASyRgAZNmsIUQAigAggAjIIIMPKAIPZiAAigAhkjcD/A/L9zld857cuAAAAAElFTkSuQmCC;" vertex="1" parent="1">
          <mxGeometry x="360.71999999999997" y="945" width="132.02" height="32.5" as="geometry" />
        </mxCell>
        <mxCell id="WOx4rIqFdnK--00V2V1H-369" value="" style="shape=image;verticalLabelPosition=bottom;labelBackgroundColor=default;verticalAlign=top;aspect=fixed;imageAspect=0;image=data:image/png,iVBORw0KGgoAAAANSUhEUgAAAe0AAAB/CAIAAABNDw1QAAAgAElEQVR4Ae2d+1MTSdfH3391cqmkQmK4JLDJwnKpVLII4qJggCgbH4WNoq4QL1yWWjYPbHgkC4IKAgICKgZDCGCCqZCZ1+XU09XP3BhyWRw9+UE7k57uM5/u+fbp0z3D/3H4QQJIAAkgATUT+D81G4+2IwEkgASQAIc6jp0ACSABJKBuAqjj6m4/tB4JIAEkgDqOfQAJIAEkoG4CqOPqbj+0HgkgASSAOo59AAkgASSgbgKo4+puP7QeCSABJIA6jn0ACSABJKBuAqjj6m4/tB4JIAEkgDqOfQAJIAEkoG4CqOPqbj+0HgkgASSAOo59AAkgASSgbgKo4+puP7QeCSABJIA6jn0ACSABJKBuAqjj6m4/tB4JIAEkgDqOfQAJIAEkoG4CqOPqbj+0HgkgASSAOo59AAkgASSgbgKo4+puP7QeCSABJIA6jn0ACSABJKBuAqjj6m4/tB4JIAEkgDqOfQAJIAEkoG4CqOPqbj+0HgkgASSAOo59AAkgASSgbgKo4+puP7QeCSABJIA6jn0ACSABJKBuAqjj6m4/tB4JIAEkgDqOfQAJIAEkoG4CqOPqbj+0HgkgASSAOo59AAkgASSgbgJflo4fHh7+61//Wl1dLRLUcDg8MzNTpMK/zGKz2WxPT8/09PSXad4XYtXu7u7Vq1djsViR7Hn8+PHa2lqRCv8yi43FYh0dHcVD+o9d9eDg4PDwMMuy/1iNOVT0Bel4Mpn88ccfBwYGZJCxLPv27dvbt2/7fL5gMPjhwweO4zKZTCgUSqVSJ15///HnxGxfQoZUKhWPx7e3txcXF4+OjvIxaXt7u7q6enJyMp9CvuJzlfDJZDKzs7N+v7+7uzscDh8eHnIcF4vFwuGwEjJerzcSiSjJebZ5WJbd39+Px+Pr6+ubm5t5GjM5OVldXb29vZ1nOWd7uhJdOlsLOY4rpI5/+vTJ4/Ew0h+9Xt/c3LyxsSG87Ewm4/P5Ll26lMlkhL/CkWg02tDQYDabe3t7Q6HQlStXTCbTr7/+evXq1QsXLqTTaakTyXEZHZ+entZoNNK2M+Xl5Y8fP1ZSC6ku5wRtTHNzc/6VLi0t2e325eXlnE0SPTGbzc7Nzfn9fp/P9+jRo4ODA9FsxT64trZmNptl2s5isfT29oqO9Mlk0uPx3Lp1S8p7YFk2EomYzWan0zl0/HG5XFarNRwOO53OkZERJVcno+NdXV0ylmu12oaGhhcvXkiZp6R25XloYxRemkzhLMvev3/f4/Ekk0mZbDn/lM1mx8bGZCY68Xg8GAz6fD6/3//y5ctsNita19bWFriGPT09GxsbQtTRaNTpdH7JnlAhdRwYZbPZQCDAMMx33323sbEBGpRKpba3t/v6+vR6vcFgEPomU1NTVqt1ZWVFFDTHca9evbJarT/99BMtFsvLyxaLhWGY/v5+qRPp4zI6DtnevXtXWlrKMMzAwMD+/j7LstlsNpFIzM/P19TUMAzT1NQkKgd0LQVJp9Ppzs5OhmHu3buXf4Esy16/fr2uro6ml2exyWSyqampoqJibGxsYWGhs7OzpKTkr7/+yrPYnE/f29urq6tjGMbn8yUSiWw2C97l2tpac3MzwzDV1dXCaX4wGKyqqoKJnbBqlmWDwaDBYHj06BFRAZZlBwYGNBqNyWSS6bF0aTI6znEcy7J//PEHwzAWi2V+fh46WDqdjsViv/32m8lk0mq1Dx8+pAssXnpra6uystJkMr169Sr/WhKJhNPplBkmc6gim83G4/FwOAy3pFBMoMzJyUmj0djZ2bmwsDA2NlZRUdHa2sobUUj7/vLLL4uLi48ePSopKbl586bQmxweHi4vL9/a2srB4H/glMLr+NHRUWtrK8MwHR0dvJGNZdmff/6ZYZj6+noaaDKZrK+v7+rqkgogpFIpt9stKkOBQECn083NzSmBdaKOLywsGAwG0ftzfX3dYrFoNJrx8XEldeWZJ51ONzc3K7+0E6tbX18/d+7c8PDwiTmVZDg6Orp27ZrFYiE+fiaT6ejosFgsOSxvxGIxqbtRiTGQ5/3796WlpRqNZmpqindWIpFwOBwMw/T19dE/RaPR8vJyGSdgZWXFZDIJZejjx4+1tbVOp3Nvb48uUCotr+Mcx4Hr43a7hV7C4OAgw/w9HYxGo1LlF/D45ubmuXPnlF/aiVUPDg5arVbRWfiJ5wozQItotdrq6mqr1cowjGjPWV1dtVgsPp+PKPLS0pLJZLp27RotMlNTUwaDgY7lTkxM6PX6YDDIqxq60PXr13maxst2Vl8Lr+OJRMJutzMMIzovu3fvHsMwPKEcHx/X6/UyK5Dj4+MajUbUM41EIuXl5UI/SxToiTr+4MEDhmFEO3EsFisvL2cYxuv1ihZe2IOgSqWlpe/fvy9IyTC+8kbQnEteXFw0Go2tra30XQGj4M8//3zavh6JRPKnCsGoc+fOCQO7qVTK5XIxDMMTyr6+vs/zufX1dVEOR0dHbW1tUp6p1+ttb29XeKXyOk4Ckn6/X2jJ5OQkBF5EBUuYP88joVCIYRhey+ZTJvRk3giaT4FwLvh2ojoODWcwGBYWFkhF0P/p5gb3kXeLwQjtcDgSiQQ5FxKBQOAfG015VZ/4tfA6LuPSEledZgfQRaWTWA9hO9GBIRKJKI8gy+s4MU84k+A4Dq6LYZhAIEAMK15ibm5Op9MpvzQlloRCoUI5+OA/8kZWuGNtNtvOzo4Se0iegui4jEsLhvHkCW5jGcLgkYgODBzHeb1e0Q5JLopOyOs4mCc6kyCuOk+V6MILm/b7/VJOWG4VwW0lf4PnULKMjgNPoXsHPYRMv+COdrlc9BwIrBVtC8ivvNFzuKicTym8jsu4tDs7OzabjWGYtrY24sfBQRnX5tOnT42NjQzDiK6Cvnz5UjiPlsIhr+PyM4n+/n6GYYxG4+LiolT5BTwOfa6wYwbMSfMvE2I+wmWJeDxus9lyUJz8dVzepZ2amtIcf+iYGNDgDUV0C5JIWigUoo9zHJfNZkdHR5VHS+V1XH4m4Xa7haFInj2F+greaA4tKG9Af39/wcuU0XHwgWw2Wzwepw2DW5hMNUZGRoRTNBihRd01UCpyOl3ymacLrOPyLu3w8LBGo6GDqhzHAXQySIoSIcvosEMgGo0qnM/ySpPXcZmZBCzXwBoaRNxYlh0aGrJYLEajcWhoKJVKXb9+3Ww2m0ym3t5eEpUDA968efN5L63ZbLZYLAaDobe3l7cFJZvN/vnnn999953p+BMMBpuamjQaTWH3fcNA5fF4Pn36xCNzqq97e3tOp1NKx0WnuvLl56/jMi5tOp2+cOECwzC8jRNwG8sEK8i4rtVqW1tbI5EIvagjf0W8X+V1XGYmMTs7qz/+kM0SmUymt7fXZDKZzebp6end3d1Lly6Zjz9DQ0P0fcGy7NLSUnNzs8lkslgsJSUlg4ODZLUWLEylUr29vRaLxWQyVVZWhkKhc+fO2e12YVSBd0Wn+goD1YMHD051lnxmGR2HlpXScRJbg5kH+Uqq83q9ouFT8BUKDofUm0+iwDpO7nDe7INl2adPn1osFqvV+uzZM9riE28njuPm5+eNRiO9PctgMPh8vt3dXbqoE9PyOg6WCCeAqVSqvb1do9F0dHQcHm8c5jhuZWWlsbFxf3+/vb1dr9dbrdb79+/v7e3Btg2y1p/JZO7evavT6bq7u2GvCGyrGB0dJdYeHh7CCuHTp09Zlt3a2qqqqmIYho4+kcwcx5HdVD09PW/evFG+ixm6fv4dEfxuGR2XH5Xpa4F0/joO3oAwBpJOp2/fvq3RaDweD6+3+P1+3joNzzCWZW/dukX3OlhvHBwc5I3TvBOFX2V0nExuhMHx169f2+12g8EwNjZGBHpycrK9vX1/f9/lchkMhrKysomJiQ8fPnzujXQkATqVwWC4f/8+dNo3b97Y7fbnz58T8zY3Nx0Oh8vlisViLMvCEh8v+kQycxxH9ufdvXs3Ho+vra29ePGCziCVhqlPV1eXVIYcjsvoOPjdUjpOjoNeS+m48Di46mazWWanYw4XUpBTCqzj4NJqtdoLFy74/vvxer3l5eVarVb0+a579+6dGLSFPbywPE3fVw6Hg7fCmc1mZ2dnPR6PqEMho+NkJlFRUfFfw//+3+Px6PV6m832559/0r6M3+8fGRkhNyGsg8NIQFqabFCj181Zlm1vbydKBxvnNRoNPXmHLQqijvNff/31/fffP336NJ1Or62tud3u8vJy+lyZbgFVSw0PMifyfvoCdRxcWovF0tHRQZqvpaXFYDCYzWbhxn9AIdR93pWm0+ne3l69Xk/3OoZheNseXrx4UV9fb7VaYaM6GexJaTI6DjMJmOATyzs7O7/77jutVtvY2Ejv9Ein0xcvXpybmwOHSaPRwM4KcC3JCE06Fb0TAxZ7yfxje3u7qqqqrKyMRIfS6fT58+cZhhE6zizLDg4O1tfXr62tpdPpp0+f1tXV2Ww2eiGRXKwwAXsEChuROBMdv3fvXsEDREJcORwpsI5DcNxqtY6Ojoapz/Pnz3mRBGKr1+uVd4tITpZlo9HoyMhIfX09ubWI459IJBoaGiorK0tLS8mQS86FhIyOk0l0R0cHZXj4yZMnwjDOx48fm5qaNjc34SyyCL6+vl5fXx8MBsFfg2kEvcYN85KqqiqyOW9qakqv19fW1n4OTRJrYVePMJC9urpaVVVFtvrB6qvNZhPu0CBF8RJKaO/u7ra1tXV3d0uFEb40HSfBcY/HQ7ddOBze3NykR19CA1RAqp+QbJDIZDKvXr3q7e212WzwsBg9AMzOznZ3d6fTaZZlnzx5YjQa29raeA67jI5DzMFoNAaDQdr42dlZIf/37983Njbu7e3Bo09kW8Xs7Gx1dfXExAS47aFQSKPR0HuTIKBfU1MDfg9sG+VFgUHoRXVqamqK92RmKBQSzlx53MhX6DCiHi7Jw3Hc27dvf/zxxzt37vDo0XlI+kx0HDx9MhYSY848UUgdJy7tqQZeJcoixLT13+CDcL+a1+uVuj9ldBxmEqKdWFg7OQJniXZQ2IfDMIzVagUnEeYlDoeDzEaJB0RLNvj4osFxv9/P218Rj8dbW1vpMYDYJppQQhsGY5lNCznreDwed7vdFYIPLBsIDv994I8//hC9EPogcWkVzks4jjuVjpO66OADuZm7urpsNhvMtVmW7ejoEM4vZXQcZhK8gZzUKJWA3YGiG6tgHw7DMHa7HRz8y5cvWyyWhoaGt2/fQoGwhMvr7bBznDj1pGrokLywz8rKSmdnJ9mtQDKLJhTqOCyDCemJlok6TmMppI4Tl5YEDeiapNLyyjJ9/BE9F26AQuk4iNdp98xBIIXXxcFaslRAHPzl5WWe4IJXxeu4MAkVRj+g4/7www/7+/sEyMbGxsDAAPl6YkKeNpwOUwS9Xj87OytaIOxqkImPE43jnQ4Px8YFn7GxsdbWVsHhvw9ITePoksGlVTirgxPldTydTg8ODoo+d0OuHa4RRmt60BV12aR0nMwkRBWZvkZeWmZ3IMixRqMJBALg4K+vr9Nb6ziOE91UBhvVhU4YqPDFixdpN/n58+fKR02FOh4MBjUajcKHhmR0HAY5oTMHTUO8LqnlZal1To7jRBuX1zRn8rWQOp6bSwvLTWRhkKYA3o1Ud7l3/EgRiauQE3Pwx3ObScBZoltNYTXSZrPxNJoYCYlIJAJLZ3SUH5bshMFx4uDns2nH6/WS8D3PGPrrx+MPfYROE1y8ARtuV56XR58olc5znTMHlxZ8THphkLZtZ2fH5XKJPoEFwQc6rpJOp+E1AFCC3+8XNrqUjucwk+A4DsYSqXELFhVpC+lLgzRIFW+zL4wNwuA4OPgajcbtdodCIdGVJ2EV9BHoGMIuTeeB9xPs7+/zhhxeHvJVRsdBiKR0nAxUIPdE1knJAIeeIpOf+vv76TGbHD/zRCF1HAar07q0MkMcuLSiOg4RCdGhOwcdJxvbecIk3zxgntQNA31X6maDkkHHeT0JxifoRo8fP6Z3tsBLZsiaW2Vl5amWzkG8hP1b/jJFf4VW401EYHpx2g7AcVw+Ok7u59O6tDJTk7m5OZvNJqrjEJGQei/bhw8fqqqqGhsbeWIkpeOwsV2+kwj5yz86Dzou38ogVXRvp4PjqVSqq6uLXl+dnJw0GAyk431+XR3teQgt5B0Bg4VTZ162U30l7S6c/MHtLLwxIW5DrhpA8aL8MEOScs5O3ON0qksoYOaC6Tjx0chwp9BKmM0J3WrY22cymeiHhkiZsK/2/v37ZD8W+SkHHc9tJgFn8Z4HI2aAaAqf6mZZ9vfff4fHlKEn0TqeTCZdLheM+alUqrm5efF/Hzs6PDyMRCKXL18uKSlhGIaEy2OxWCAQ6O7ulnk3HtyrUgYTy5UkQM5I7XDKzMyMTqf7h5/Lz82l5ThOZqMUuF30Q0NwgfC6MZPJtLS0JKQEv1ZVVQnf1Cql4znMJDiOA0eS500Te8C9EE41MpnMnTt3YL0BhmGiaBzHwetHIDi+srJy/vx53irrwcFBKBQ6f/48CDoZwjc2NvzHH1r3iTGQePXqlclkknnkipdfyVcZHYf3OPFmReD5kS0JHMfBEZ7cw3tUyAIybQnscRKCpfOcVboAOg5vyl5YWIB9gb29vfF4HF4WqOSqQMtIt6BPgeizXq/nvW0OtqIL314G5yrXcQjXxmKx69evw37t1dVVhTFZjuNkguNgCQSa6bcspVIpv99fX18P7gw8okI2tBwcHDQ1Nen1elD/+fn51tZWqQAxKD64XbFYrK+vL51Ov3v3rqqq6t///jeNkaRB8k7rt5LT6QRoltFonJ+fh+Mw6ojOkOgTRdM5+OPkTdkPHz7UaDRGo3F6ejoej/McYdHq4CD4wkIHAgZghmEqKirocB9sRTcYDIODg0LvAYZn2IstrJSn4+l0Gt7xXV1dzTDMxYsX4/E4HZwRlkAfkQmOQ7ZgMKjVaumJbCwWu3jx4qVLl0CdNzY2rFYr8ZAWFxdhZ7DL5Uomk7du3RocHKRrpNPRaNRut4Pzsbq6+vDhw2w2u7CwUFFRIbUNEfbPKH/umq6OlyZLLK9fv4aH0X755ZdYLMZrerhA+gnwmZkZvV7Pe9EVuIPkDoXtlVqtVvR1chDOor0unm1n+DVfHc9kMi0tLWTCRRInxsLINUvRgeC4z+ebmZmxWq0lJSUtLS0+n6+mpsZoNA4MDEgJnHIdf/78Odm/SCxXHv+6evWqTqebkf4DQ/A+0pKSkpqams7Ozs8zuLKyMt5e5lgs1tDQYLPZmpuby8vLJyYmlpaWLBZLZWUlvcVwbW3t5s2bBBokvF4vONfwgmyIsQQCASn4EHmnb29egaf6mkwmL1++bDQaA4FAKBSqq6sTPuSlsMAcdPzt27fC5wlE9z5L2SA1qu3s7DgcjvHxcXiAy2azeY8/Vqu1srLy2bNnQhHnOG5ycrKlpQUe9do5/tD18nT8xo0bpL+RhHCjCF0CScNrKmi/kvxEEplMBnY6u91uuB2qqqp4D0BMT09bLBaXy1VbW9vQ0PDmzZuBgQGdTldTU9PY2Eic8enp6Yf/+8pccIRhNtDf3w9mw3Rc6kkfv98vXLcn1p4qAeFKAo1O0NMLjuOmp6fNZnNdXV0oFAoEAkajkX6ODyqFp7KNRmNLS8vExITP59Pr9Xfv3qVXdIl5EB0SjZuTPGeVyFfHC2J3IBDgzW5g1vPkyRMQ60wm8+LFi9u3b8NfYyGdTLR25Touerryg+l0Wsm0I5PJJBIJmTkKuJaJRIL0HvDXaNcyFArxpiwwK4T4zOHh4cLCApwu3JtIrqjgL2yDP880MDDQ09Pz7NkzYj+pUWEiBx1XWLJMNpAeXniU47hoNDo/Pw9ifXBwEA6H/X5/T0/P0tKS1AUuLy9fvXqVdMuHDx/yXqjA03EZq5T8lEqlPns/J+aEXvRZ+KQyQ8+k+/DHjx/pfghv6eJNWeAdFRB02tvbW15eZlkWJjG8LgoWgqNGfP8TzS5gBghCwiN7Uq+Y5zgOQkZ+vz8UCsm8oD8UCv1jr1c6LYQvQschtCIzlTvVVf1jOn4qq/LM3NXVRQdeWZYdHx//4YcfeJsHPnz44HQ6RSewcDvlELzO03Ilp09PT/t8PiU5C5sHlu9kZlRKqtvc3HQ6nZcvXyabtcl2cnJ6YXWcFFvsBCz60e+lyWazd+/eFS7zrqys2O128nQbbdjCwoLJZMoTMl3gmaRh1D9//rxUGOBMrCKVfhE6fnR01NXVJfpnIoihJyYSiYTL5SorK9NqtfCnVb7//nveq6VlngM6sfwzzPDx48fz58/39fVVVVX19vZOTExcuXJFGIrNZDLXr18Ph8OiE//x8fHc/sjDGV54sauGEAEdRT1tjSSYTk/whXtFVKrj79+/93g8N2/edDqdv/76K6xztrW1kZkH4Eomk21tbbwFefgJNssKN/CclvOZ519cXLRYLKIe0pnbVuC/z5nP9WxvbzscDtHlhXyK5Z2rUh2HCTLEmp4/fy76qgAIicI7yN69e8d70O7g4KC+vp5+2waPzDf7dXl5ubS0VOqJp0JhUamOp1Ip+INHyWRydnY2Eonw5n8cxyWTyZ6ens3NzaOjo3fv3vGIzc/PV1RU0G+S4GVQxddMJnPp0iX6LUlfmtlfhD8OUCYnJysqKmR2L+XPTqU6fuKFwzp7JBKJx+Nv3rzhbccs9p+7PdG8LzkDvMusurpaqFAFNFulOn4igUwm09fXt7i4GI/Hl5eXf/vtN/qUZDLpdru/Au9hYmLC6XQKt5PSF3u26S9Ix2HRv6mpifd+0QIC+lp1nLfxhrdRd3Jy8uLFi7y5cAGpqr0o+GO7ws0MBbyur1XHR0dH4cVhEFYiL0nnOC6TyVy7di0YDIpG+QrItthFLS8vu93uL1nEv6C4CmmMjx8/Fm8lIX38IXV9CwmWZQ8ODqQ2WnwLBJRcY7Epffr06Vtrgkwmc3BwoHYRh7cgFE+RlHROJXm+LH9cicWYBwkgASSABGgCqOM0DUwjASSABNRHAHVcfW2GFiMBJIAEaAKo4zQNTCMBJIAE1EcAdVx9bYYWIwEkgARoAqjjNA1MIwEkgATURwB1XH1thhYjASSABGgCqOM0DUwjASSABNRHAHVcfW2GFiMBJIAEaAKo4zQNTCMBJIAE1EcAdVx9bYYWIwEkgARoAqjjNA1MIwEkgATURwB1XH1thhYjASSABGgCqOM0DUwjASSABNRHAHVcfW2GFiMBJIAEaAKo4zQNTCMBJIAE1EcAdVx9bYYWIwEkgARoAqjjNA1MIwEkgATURwB1XH1thhYjASSABGgCqOM0DUwjASSABNRHAHVcfW2GFiMBJIAEaAKo4zQNTCMBJIAE1EcAdVx9bYYWIwEkgARoAqjjNA1MIwEkgATURwB1XH1thhYjASSABGgCqOM0DUwjASSABNRHAHVcfW2GFiMBJIAEaAKo4zQNTCMBJIAE1EcAdVx9bYYWIwEkgARoAqjjNI3Cp7e2tm7fvu3z+Xp6ejY2NliWVVhHKpUaHR31HX9GR0cPDg54J6bT6ZGRkdevX2cyGfiJZdloNPr48WNhZt65Cr+m0+lwONzd3e3z+UKh0OHhocITC5gtHo8Hg0Gfz+f3+1++fJnNZpUU/uDBg59++undu3dxsU8qlYJCQqHQ/Px8Op0mZSYSieHh4a2tLXKkIIloNDo0NERXRBerkHNuKOiKCpJWwvYf6JwFuZavphDU8WI1JcuywWDQYDD88ssvi4uLjx49KikpuXnzJpFdmYqfPXtWXl7e0tLi8/lcLpdGozEYDENDQ/QwkEql3G43c/yxWCxlZWVarZZhmCtXrhREcLe3t51OZ01NTSQSefr0aXNzc0VFxdramozZBf9pcnLSaDR2dnYuLCyMjY1VVFS0trYmk8kTK/J6vUBG9N/+/n4ogWQrKSkpLy/X6/UMw7hcrt3d3ROrUJIhlUqtr6/7/X6DweB2u8n4QZ+rkHPOKOi6CpIm0GTYFrtzFuRCvqZCUMeL1ZpTU1MGg2FgYICI78TEhF6vDwaD8lVubGw4HI7FxUXIxrLs6OioTqfT6/WTk5PkXPpWgTsKqpNy+siJShKpVKqxsbGqqmp7exvyJ5NJl8vlcDhisZiSEug8r1+/fvnyJX1ESXp1ddVisfh8PjLyLS0tmUyma9euHR0dyZQgJEMrDn1RPEnSarV+v19UbWWqk/oJCrdYLHV1dQzDiOq4Qs45o5CyLefjCtkKsxWwc+Zs/Fd8Iup4URo3mUzW19eXlpa+f/+eVPDx48fa2lqHw5FIJMhBYSIQCBgMhr6+PqJf6XT6/PnzDMPU19cTbxRulRs3bvQcf6anp8lPwjJPe2R8fFyj0QQCAfrEUCjEMMzg4CB9UEm6//ijJCfJc3R01NbWZjAYFhYW6IOtra0Wi2V9fZ0cFCYSiUR1dXU4HObFVBYXFysrK2dnZ8kpXq+3vb399u3bfr8/HA7Ltws567SJSCQipeNKOOeD4rSmnphfIduids4TjfwGM6COF6XRFxYWDAaDy+Winbujo6PW1laNRjM1NSVVazabvXz5MsMwRqORuOQcx/X39zMMYzabSWQDbpVIJCJVVM7HwU6GYWj3n+M4uChRv1K+rhx0/P3796WlpeXl5Tz3PxAIMAxDAiOi9a6trTU2Nn4eNelf0+l0S0sLPT3iOM7r9coXRZeQc1pKxxVyzgdFzjZLnaiQbfE6p5Rh3/hx1PGidICRkRFRFwzm2jw/l2dBX18fwzDl5eXRaJT8BDpuMplWVlbgYPFulb29PafTyTAMb5BYWVkxmUy8SQaxUCaRg47Pzc3pdDqbzRaPx+mSgUNra6tMaOXNmzfDw8N0BpZlBwYGfvzxR96U5Wx1XCHnfFDQ6AqSVsi2eJ2zIFfx9eXTH5oAAAhMSURBVBWCOl6UNvX7/TI67vV6ZWrNZrOJRIJ25DmOAz+U1lByqxwcHPznP/8JhUIrKysKt3PI1M5x3Obm5rlz56R0nB5L5Mshv+ag4zAQSun4aecEy8vL1dXVwl0ooOOHh4ezs7NjY2MvXrwgsSxifP4JKX9cIefCosj/cngliLItXufk1Y5fgQDq+N8cWJbd39/nhVPlv8ovJ4LfLZQbqePy3RGi7QzDtLW1ETcTbhW3211dXf3rr78+fvzYZrM5HI7NzU350k78FfxuKR0XHj+xwBx0HPxuKR0XHpexIZlMejwe0bC+1+ttaGhwOBy9vb2jo6M1NTVWq/XZs2cypeXwk5SOK+ScDwrwCeR7Mv1rIpE41UgmxbZ4nTMH/t/CKajjf7dyLBarr6+vOM3njz/+kOkfUnotdVymKI7jQqGQRqOhN1pwHAe3SldXFxlRtra2ysrKcttSQhugUF/oU+TTZ6vjw8PDFRUVdJCKWOv1ej0eD9luf3BwUFdXZ7FYVldXSZ78E2eo4ysrKw6HQ3m/ttvt8/Pzyi9Zim3xOqdy276pnKjjRWluKb2WOi5jRDQatdvtVqv11atXdLajo6P5+fm9vT1ykKyb9fX1kYO8BMuyExMT9fX19LYNXp6vSccTiYTT6ZSKp3/eyEg2VgIEiF/R8x4eHI7jdnd329rauru7edF2YU44coY6LmVSQY7LsM2tcxbEqm+zENTxorS7lF5LHZcyAuatdrtdYbQE4vK1tbW83Rqk/EQiYbfbGYZxOp30GEAycByXs46vr69///33Qu+v5PgjPC7j/eUTTKCvBTb23bt3jz4ok4ZgNL0OIcz84MED2JA+MjIi/FV45GvV8dOyPbFzCtHhEYUEUMcVgjpdNnDrpOLj8uucpKbDw8MrV67U1tby9t5BhlQq9fTpU95yqJT8kTLhwROGYS5cuEACMuRXSMBGN2EcHPRdZp0zk8kkEgk63grpW8cf4XGZaCzsVRfGweEChWB5lwBfYec1wzChUEiYIZ1OP3/+nLcfBjRX5ho5jpuamtIff2TmNHR1UjqukHNBUND2FCQtzza3zlkQw77NQlDH/273TCYzNzcXVvx58uQJ7/7n9R6494RyA/64/L5DKCqTyfh8Pjp6++nTJ5/PB4/ApNPpixcvCuX4RB2Hi5URUI7j4HklKR2X91V5HOBrDvFx2KsupeNScRJe7Ts7OzabTXghkO3GjRswL6Ef/1Gi44BIasbDs4HjOCkdV8g5HxSHh4d//fWX4n4djkQiPM9AeDlwRIZtPp1Tqjo8Lk8AdfxvPgcHB729vfBSKoX/Tk9Py5AF15UXu/j06ZPH45F/DgjKhP3OTU1NdAQ2Ho+7XC7wzVOplMvlEm5tPG3cRvQSWJbt6OhgGIYXN5ientZoNMLBSbQQ+mAOOg4yce7cOV5Aqaur68TngEjVoIA6nW5ubo4chATLsu3t7QzD2Gy2nZ0d8isZCOmD5NfcElI6rpBzPii2trb8fr/CLg3ZyINm8hcrw7aonVPeqm/2V9TxojQ9PEnPk6FEIuE4/hAHMJPJXLt2TafT3blzh7yGhWXZ33//3el0/v777+vHH/Cn7ty509DQAG4gzGp9Ph89LYBNAhqNZnh4OM+rmpmZ0el0fr+fLmdwcPAfey6fZdmff/6ZJ8FAlfdc/uTkJLyFimw7ITbLO9d9fX2NjY3v3r0j+YmwXr9+nTQH+TXnhJSOcxynhLNyFDlbmMOJMmyL3TlzsParPwV1vFhNPDs7q9frb926BYrAsuzg4KBWq6VFNh6Pw8TfbrcTcZ+cnIQX79Fvd4I0HU+A5y/IDjmWZcfHx3U6ncfjob343C4vnU5fuHChrKyMPDuzu7vrPP4QO5WXnIM/znHcxsaG1Wq9dOkS2dE8MzOj1+t5IgtTEI1GI5whwYKkVLD7806V2tpa+pnVhYUFk8nE29+p/DJ5OVOpFCwJBINBcPyXlpbi8XgikSCPaynkrBAFz4CifpVnW9TOWdTrUmnhqOPFajiWZYeGhoxGY0tLy8TEhM/n0+v1d+/eJaoEoWqeP072DgpFnGEY2kFmWTYcDpvNZni9rdvt1ul0ly5dErqluV1hLBZraGgwm80PHjwYGRmprKzM+SGj3HSc47jp6Wmz2VxXVxcKhQKBgNFo7OjoOPzf16DL+OOwSkG/lIaHYnFxsbS01O12+3y+lpYWvV7f0NAgutOcd6KSrxCiEbYjL+ivkLMSFEqsKlQeebbF7pyFuoqvphzU8eI25cHBQSgU8vv9oVCoUApLWwzld3d3j4yMRKPRAkYDOI7LZrMrKyu3jz/5PPSfs45zHHd4eBiJRPx+/8jIyIcPH+hrPzF9eHg4NDQ0MzMjg4WUPzAwsLm5STzlEwsvYAaFnImpOaAooLVQlBK2Re2cBb8iVReIOq7q5lOH8Q+OP+qwFa1EAiokgDquwkZDk5EAEkACFAHUcQoGJpEAEkACKiSAOq7CRkOTkQASQAIUAdRxCgYmkQASQAIqJIA6rsJGQ5ORABJAAhQB1HEKBiaRABJAAiokgDquwkZDk5EAEkACFAHUcQoGJpEAEkACKiSAOq7CRkOTkQASQAIUAdRxCgYmkQASQAIqJIA6rsJGQ5ORABJAAhQB1HEKBiaRABJAAiokgDquwkZDk5EAEkACFAHUcQoGJpEAEkACKiSAOq7CRkOTkQASQAIUAdRxCgYmkQASQAIqJIA6rsJGQ5ORABJAAhQB1HEKBiaRABJAAiokgDquwkZDk5EAEkACFAHUcQoGJpEAEkACKiSAOq7CRkOTkQASQAIUAdRxCgYmkQASQAIqJPD/fU991dWwLRMAAAAASUVORK5CYII=;" vertex="1" parent="1">
          <mxGeometry x="361.61999999999995" y="1103.02" width="116.3" height="29.96" as="geometry" />
        </mxCell>
        <mxCell id="WOx4rIqFdnK--00V2V1H-370" value="" style="shape=image;verticalLabelPosition=bottom;labelBackgroundColor=default;verticalAlign=top;aspect=fixed;imageAspect=0;image=data:image/png,iVBORw0KGgoAAAANSUhEUgAAAfgAAAB6CAIAAADcRdZPAAAgAElEQVR4Ae2dfVsTSfb3f2+1ErLJFRITEh5MhAUxF4giDgMuDxEM64CgoyMBFWUcmYxsWMmAgAODGBEQEQwhGhLoDem+Xc69ddV2d5rOE0L25A+tVKqrqz51+tunTlU3/yfgBwkgASSABAqawP8VdO+wc0gACSABJCCg0KMRIAEkgAQKnAAKfYEPMHYPCSABJIBCjzaABJAAEihwAij0BT7A2D0kgASQAAo92gASQAJIoMAJoNAX+ABj95AAEkACKPRoA0gACSCBAieAQl/gA4zdQwJIAAmg0KMNIAEkgAQKnAAKfYEPMHYPCSABJIBCjzaABJAAEihwAij0BT7A2D0kgASQAAo92gASQAJIoMAJoNAX+ABj95AAEkACKPRoA0gACSCBAieAQl/gA4zdQwJIAAmg0KMNIAEkgAQKnAAKfYEPMHYPCSABJIBCjzaABJAAEihwAij0BT7A2D0kgASQwMkV+rm5uf7+/mQymY9B2t3dHRgYiMfj+aj8xNb59u3brq6uWCx2YltYYA3Lqw0LgvDo0aPl5eUCg6bcnVAo1N7eHgqFlIsV8K+ZETihQj8xMVFZWbm1taUwYHt7e36/v7u72+PxzMzMJBIJQRDevXv36tUrhaPgp3A4XFdXFw6Hjyz5zQskk8lIJBIOh5eWlra3t7NpD8/zXq/34sWLqPXZYFR5rBobTiQSMzMzHo+nu7vb7/fv7e0JghAKhfx+v5qztLW1BQIBNSW/bRme5798+RIOh1dWVtbW1rJsjBqwWZ7ihB+eAYF8CX1nZydJ/dFqtbW1tX/88QfP81KmS0tLdrt9fn5e+hPkJJPJR48eGQyGurq6p0+fer1e5+HH7/fbbLbZ2dlUB9J8BaFfXl42mUyp207MZnNfX9/xzAb29/fr6+uhMUVFRWq6Rvsom0gkEu3t7W63G+6LsmWyz/ztt98qKioikYi0qo2Njdu3b7vd7t7e3tXVVVkDSCaTs7OzHo/H7XY/fPgwGo1K6zmGnKmpKY1Go2AJNpvt0aNHHMdJG3OkDfM8HwgETCaT0+l8fPhxuVwWi8Xv9zudztHRUWmd0pxUQs+ajWz7dTpdY2Pj6uqqtM585LBqoLJrCs3gef7+/fv19fUn0F+JRqMPHjzY3d1N1X419s9xHLiwbrfb5/PB7Z+tMAMC+RJ6QRB4nv/1118J+bcyzs/PgzJyHBcKhX7++Wej0ajVah88eMB2QBCEeDze0NDQ2dl5cHAg+gm+JhKJrq6u4uLiyclJKhOJRMLtdhNCSktL1bi9CkIPZ/n8+XNNTQ0hxO12RyKRZDIJXsny8nJjYyMhpLKy8njmjzzPLy4umkwmm82WkzOurq5arVafzyeLN/vM1dVVi8VSWloqmjDxPD80NKTX62/durW4uPjw4cPi4uIffvhBdMuJxWKXL1+22+1jY2MLCwsdHR3FxcW///579g3LrIYPHz5YrVZCiNfr/fLlC8/zMMean5+vqqoihFy+fFl01z/ShimKhw8f0uAkzLc0Go3RaAwGg2pam0ro4dhkMtnf308IOXv27OrqKtyQ4vH41tbWnTt3dDqdXq8/tgnBxsZGeXm50Wh88+aNmq4pl4lEIk6nc2BggCqAcvl8/8px3IcPH3766SeTySS1fDg7HXRl+9/a2nI6nVVVVYFA4OXLl42NjXa7XRqgS5dAHoVeEASws7q6OtGVIAjCyMgIIcRms21ubrLD8Pz5c5PJpGDoExMTOp1OqlMfP360Wq2NjY2yHhZ7CkEQjhR6qE2j0UxOToqOjUQiDoeDEHLnzh3RT3n6Ojs7W1RUpLJrR7aB5/kbN244nU5Zj/vIw5ULJBKJ77//Hu64IqGfnJzU6/Ver5denOPj4zqdbmhoiNZ5cHDQ1dVlNpuXlpYgE6YgZrP57du3tJjKxLt37/7880+VhVMVW1hY0Ov1suK7srJiNps1Gs3z58/Zw4+04WAwaDQapTr11ROsrq52Op2fP39mK0yVVhb6g4OD5uZmQkh7eztlDlWBDRBCzp8/fzx+8dra2pkzZ9R3LVWXaf7IyIjFYjm2SQk9rzQxODhICNHr9bW1tUVFRamEXo39g4tQUVFBo9axWMzlcjkcDqmTlxaBPAo9nT96PB4pnYmJCZhUsj5FLBY7f/78pUuXUok1FJD1bePxeF1d3b1796TnkuYcKfQwbT9z5ow0pBiPx10uFyFE9gYmPVf2OXC/7O/vz74qqGFhYcFgMIjkKSeV+3y+kpISvV4vMncYOKvV+vHjR3oi0DWHw0FvOYuLiwaDobm5mZ3PgdTeuHFDpFa0nlSJwcNPql9V5g8PDxNCZBUqFArZbDZCSFtbG63tSBs+ODhobW1N5du2tbVdu3ZNZU+VhT4SiZSVlRFCZKMl9+7dI4TI3sBoX3KY8Pl8hBDRyGZTP7hix+ZsqWkq3L9Flg8HqrT/58+fazQa0ZUO6EZGRkRtSItAHoVewSmmzr5er19YWKAdgOtc1i6hDATQZa86uBmqjGIfKfQKcxHoV26tlhKQJjiOa2xszEmAnlYOCpurKQKtdmNjo7q6emxszGg0iswdxNrlcrFzO3A52WkTYBfdrQG4yqAcbYwgCNkLvYJTLAgCdIoQwl6ZR9ow6K+sDyEIQltbm4L9s72DwqyfJPpVYS5C+yW69YpqyOFXj8eT6paT2VmgC7JSkFmF2R+lIPRq7J8OysTEBNsYOFbqVqZFII9Cr+wU19XVSWeOg4ODqTwd6Pn09LRWqzUYDNKl2v39/ZGREZULd8pCrzwXmZyc1Bx+8uERswMMaZC53F6QPM+3t7fnts5EItHS0vLkyRNZcx8dHZWdA7W1tVGhhFsaIWRwcJDlEA6HS0tLRT4BWyBVOnuhV3aKYc5uMBgWFxdpG460YRrwkYYfk8nk06dPv94vaW3KCWWPXmEusr29XVpaSghpbW1lJ0/Kp8v4V3AsMhhB5TMODg7mvE7lMyr/Kmv5cIga+//8+bPT6SSEiG7eUK3s1aqeQB6FXsEpnpmZ0R1+2HsXXOciT1BElm6J0ev1brd7dnY2VZBHdKDoq7LQK8xFOI67cuUKIYRd9A+FQi6XS6fT1dbWhkKhP/74w+l0mkymiooK0SoKx3FjY2NOp9NoNBYXFzscDunaVCgUcrvdRqPRYDDU1tY+e/asqKiovr5+f39f1Itsvg4PD2s0mqmpqWwqYY/1+XxNTU0cx8maOzh0Uq8EhB5CH9TQZYVeegGwZ5dNZy/0Ck4xrIbBcj1dT1Zjw/TmodVqm5ubA4FAxlFyBaGn7qE0QC8IwpMnTzQaDbsWklsbjsfjfX19ZrPZaDSWl5f7fL4zZ86UlZXRGJ3seKWbCa7k8PBwugfmqbys5cO51Ng/LGNI7RyqlQ2yqSeQL6Gn3pk0QP/u3buysjK9Xj82NsbGIuE6l2oBOyp0rY9uGtNoNGfPnp2YmGCrYg+RTSsLPSx+SifXHMfdvn1bo9HU19fv7OxAzQcHB7AL6s2bN0aj0Ww2V1dXv3//fmZmxmq1svHWtbU1h8Nht9tnZmZgG8+zZ8+qqqrYWcjc3JzFYrl27Vo8Hk8mk/fv34cdfmxwgPaI3Yb422+/7e/v+/1+0RIoLSxKBAIBQkiuLpLNzc0LFy7AypisuYOgSweXzQfPPZVHL80X9Uj6NXuhB0dMGh+Ix+PXrl3TaDTt7e17h5vf4exqbJjn+YGBAWrAkLDZbCMjI/SGIe2LbI6C0NO7pigQxPP8y5cvzWazxWKZm5uDanNrw2DnLpcrFArxPA9L7qlCndnYMFhaZ2enLJzjz5S1fGgGa+dsw9h8ODyV0EvzBUFQTyBfQg9OMczW3f/5dHR0nD17VqvVNjQ0SJfLYWnryMBxNBptbW3VarXspaLRaNjNG4Byc3Pz6tWrsk6rstDDXMRsNsOWc2h+U1OTXq83mUyirdNra2t1dXWfP3+G2wPsD6GXGbXCra2tiooK1ocSBOHNmzfnzp2j0vz1kSiz2VxTU0OlH3b4yLresVjs+++/7+7u/uohxmKx+/fvO53OCxcufJ0ms5aUKg23Jdn7R6pDUuUnEomOjo4nT55AAVlzZw2arYfNP2lCT51iu93+HxP+9//19fU6na60tPQf//gH3RwJnVJpwxzH9fX16XQ61oYJIV1dXTSQkkgkhoaGHA6HwWBI5cooCD3MRbRa7ZUrV2jj29rabDabVqsVPVyaQxsGO/+6IE8DUBzHXbp0SdaryNKGgXYOF3hZy8wgLWv5UA9r52zNbH4GQq+eQL6EHuYUBoNhaGjIz3xmZmZSTVShn+wGBpaIKM1x3Ozs7PXr12GPs2hfxM2bN61W67lz52Rvg8rbK2mAvr6+nmn4v5Nra2uiC1sQBJ/PB7MWCInC5pCDg4OBgYG6urr19XVBEOhEhN0kAF4hvbZhMZkQwoZuYSCl4TnYhsg+9wSqJJ0/ibjRr2pog9bU1dW9e/eOHihNjI+PNzY20lVWWXNnDZqtgc0/aUJPYyzt7e2sJbx48WJzc1N2BqmGKu1+IpF48+ZNX19faWkpzNvoJJLn+b6+vvHxcZ7nOY7r6enRarW//fYbPRYSCkIP1mixWJ4+fco2/tWrV9JoZ65sGMySLrpAI2GXmjSYnr0Ng8FIp4ksJZhSnD9/fmZmhs3PR1rW8uFErJ2zp2bz4XCpZKXKBx0rLS1VJgCny5fQg1NcXV2t0sGk0xCVQk9h0fiGNIYF0QnRygYcqODR07kIK7j0dKkSoLPsBhK2JOzEIIQ0NDSAe1VfX280Gnt6eujEf3p6uqioSKTpMEuQBujX1tZKSkpEW4wGBwfVt1mNJNEVEYVp1tbW1oULF9hN7rLmzho0S4bNz1joV1ZWzp07Z5d8ig8/kmx7WVmZdDGfbRWkwSmWKpS0JM1RQ5UWpgk2vgHmGolEKioqrl69CrdPWDuVRpBSCT2di6Tl7WZvw7DOLCIGoWdpgD57G1Yj9PRuLaVH+QuCEI1GL168KDUV2Zza2lo6X2ErkbV8KMDaOXsImw+Hnyahp06x7EIQ2082rXyR7O7uer1e2dsGSHOuhB7mItLa2KZK0xCroR6ZqACEeql7FQgEPn36JArIwmPiIkm9d7jZWRpggXvYs2fP2BPdv38fJhBsZqq0Mm04KhQKOQ4fDevp6ZF1YMEpu3z58tLSUvg/n5cvXxqNRpvNtry8HA6HwX9MtTIPhg53d9ibIY3F0xuA7D0bJkzwOqD/NOH//z9w+BFlhsPhSCQigi9LCZzitLZ1KlPlOG5kZET0hCCcmvYd+ri5uWmz2ag4wjMi0n0KqYSeqptoWVu2mzQzexsGYiJJhSdmpLec7G1YjdDTifKVK1ekUxnad/pGKam1SHPgUXl6LE3A6EuHie4ml7rerP1TF1Nk51CtrCKpIQDNy4tHT1us3sEUBAHu/OzqJSUI/v7FixdlhR7iGyLzEgQhM48+g7kI3VItHUjoAuzDE4k42zu4kgkh7BZyWNCWDdDDFCGbrUdgPXQJgW0Mm+Y4LpVZC4Kwv7/f0tIi8nrMZjMhRKvVlpSU2O12mHbAQx9SPmDocCejfqhInsCaRX4i28hU6WwWY2ljpAqV6nRH2vD29rbL5WIfGaNVQXyDdRR2Dz9QACRYauGphD6DuUj2Ngz7+gkhoksYNpxIl/2zt2EwDOl8l1KFRCKRUHlrFx2Y7lcFoVdj/6KbPT07VCua68OvKgkIgpAXoYed5rK3INp6aUL57vR180CqQND0YdBD6nVmIPRUcNOaiwiCAD57qhA5CL1CVIqel72ZswH6cDjc2tpKn4yHF/7QV25ptdq+vj41XirFDkEhkaTSX7NJAHaRXwPGKpIqmPmx8S4AJcIIEaS0PGtofzZCT3eap4VI2YZnZ2dLS0tlhR6CHqm8Tnjth3S7QSqhB4zpEsvShqnQs8TYAH08Hu/s7KS7MLK3YXANFS6rbMw4g2MVhF6N/cPTLdLHyiDGIHWSqGOhhkBehD4zpxhsQqQFgBsQiJ5MgZ9gY3tZWZl0RpyB0Gc2F6HeH/tYAGsooKoiT0cQhJ2dnZaWlg8fPtAxZoV+fHyc7qCfnJwUPdvC8/z6+vpPP/3kdDq1Wi19dJbjuNHRUbfbPTo6qjBXhQl1qgazjU83LSv0sPWC9VgFQYA9RewrEEDvRFMfuJEf8ysQMnOKFWwYntSVvhgHXv/X09NjNBpfv34tpQ0b9tmFd1pGVuipNaY1F6FHpTKJI20YOiiKvL1+/dpoNEIMKhgMXrp0id2LkcqGk8nkxMSE2+2+d+8eXeSnvaYJ2DnGToLpT98koSD0Ku0fTF3k6MBrwaSvQIBte0ajUQ2BXAo9x3HwyunKykpCyNWrVyEeKt2pIjsMIHYiLYCSdLdidXU1K+iwccVoNMq+3VC90NP3ZT948ECj0RgMhqmpqXA4rGBkbBeUg5v0lZzsnjOe5+fm5pxO58jICIS/4SEy2JbD87zf74cXZl27du1f//rXtWvXpqen2ZOyabglDA4OHhwc/PTTT+vr6xzHtbe3t7a2pnLz+/v7051ysWeUpinDoaEhQojFYoHAPb3ZQAfpm7x4nh8ZGdFqtXRfJpU89snneDze2NiY2eurMvDoIVYbCoV6enoIIVar9e3bt3SlQdprUY6CDdMnS+x2O/uUHDycodfrqSWwde7t7bW1tUnf8QllREIfj8fD4fDCwoLFYiGE9PX1hcNheOMmW6dsOic2DC8upR7J4uIi7OZ0uVyxWGxgYEBWraA91IZhfrywsJBMJu/evXvhwgW621jUcp/Px04HRb8e21fQvXA4PD4+Du+/m5yclC4FqbF/cFtZodjZ2YF3sMs+a6aeQC6F/ubNm6J9wYQQuqCkhnuqdgeDwbKysrm5ufb29qKiIqfT2dHR0dLSYjQaa2pq6GRQdAr1Qr++vg7Xhqj90sCi6BTwFfxQhXexgfPe0NBQXFzc0tLS1NRkNpsvX77Mtpzn+cePHxuNxq/1OByO5ubmT58+ud1uvV7vdDqvX79OJfuHH34QPXALrsTExASEDqDZCwsLJSUlopLQYBCdVKEw2T4emUmjTyKGdI4CHTQYDE1NTePj4263W6fT3b17l/YLThGLxVpaWgwGQ39/v8/nq6mpYR/tObIZbIEMhP7Vq1fS7e2yyyTsidh0Khve3t52OBzPnz+/e/cuvOOw7fBjsVjKy8vn5uaky90Q3PB6veAqvXv3jt414Yys0CcSiaamJhF8cvgIt5pnqnNiw4IgTE1Nmc1ml8tVXV399W2O79+/93q9RUVFVVVVDQ0N1J1XsGEwJFg9+vjxY0lJieyjMIIgeDwe2cg1OxzHkAadkZIXOVIq7T8UCn19wN5kMg0PD4+OjpaXlzscDumrFaFf6gnkUuizZwqRE9HMRRCElZUVuoHv06dPY2Nj3d3dt2/flt3YTpuhXujpIZklwJkVXYSyVe3u7sIifqrC4B3QNWeomV0O3d3dvXz5smjgp6enIXjF8/zS0hKE8mdnZ0tKSkQloVXAmd3UL9vafGRGo1HYte3z+VJ5ajCj93q9vb29c3NzojuB+lZlIPTqK09VMpUNb25uzs/Pg5pHo1G/3+/xeHp7e1+/fi3bQZ7nHzx48PjxYzhkf38f/jQCe15W6Nn8DNI5tGFY/GRnEru7u+xyqLINw/UO7+mV3YIJvYOlSzp7yKDL3+QQNfafTCaDweDtw08wGEwVEUmLwMkS+oODg87OTjZom81gHJvQZ9PIdI9dXl42m83sW92j0ajL5WIDIIIgAEn6NJboLD6f7+vemJWVFVF+gX0dPvwcc6dyYsM8zz979qyiooI+1FpXV9fQ0CDyzXMo9MdJSaUNQ9C/oaFBNoK6sLBgNBoV4pnH2aNvcq60CJwsoYdtlCaTKa19mVLKN2/etNvter0e/iCA3W4X6aDCA1PS2k5Ujs/na2lp+e677y5evPj06dNHjx7B36ITTfwnJiY8Ho/svAFejZ3qHnCiOntKGxMMBrO0Yfp+KzYgIN1ccUqFXqUNLy0ttba2yk774J3+qe4Bp9Rs0mp2ugROnNDDH1SrrKyUXXxIi4VC4dMr9F9DvRzH8Ty/ubn54sUL2Sfap6amhoaGYAYtvU58Pp/D4aB/wkaBEv6UGYHjseEj30efWeOP4Sg1Nry8vHzr1q29vb1oNCqVgvn5ebvdTv8M2TG0+aSdIl0CJ07oBUGIxWL19fXSffE5ZH16hf5ICEtLS/fu3YOVgKGhIdFfINvc3HQ6nam20B1ZORZQSeAYbPj0Cv2RDLe2tnp7ez99+hQOh3/99Vd2kxLoQ11dHRu9PLLCAisQi8XSJXAShR7G8urVq8+ePRNFJHI1YIUq9NFoFPa2wpRf9BedYrFYU1MTqnyurEi5nlgsllcbLlSh5zju6tWrNGYl+ruhsBNpaGgoT8qgPKYn4dfMCJxQoYcXmESj0TwNJ8/z8Xg8T5WfBGuQbQPHcXQ/j2wBzMwtgUQikT8bhldQyO7YyW0vTlRt+UZ6ojor25jMCJxcoZftJGYiASSABJBAugRQ6NMlhuWRABJAAqeMAAr9KRswbC4SQAJIIF0CKPTpEsPySAAJIIFTRgCF/pQNGDYXCSABJJAuART6dIlheSSABJDAKSOAQn/KBgybiwSQABJIlwAKfbrEsDwSQAJI4JQRQKE/ZQOGzUUCSAAJpEsAhT5dYlgeCSABJHDKCKDQn7IBw+YiASSABNIlgEKfLjEsjwSQABI4ZQRQ6E/ZgGFzkQASQALpEkChT5cYlkcCSAAJnDICKPSnbMCwuUgACSCBdAmg0KdLDMsjASSABE4ZART6UzZg2FwkgASQQLoEUOjTJYblkQASQAKnjAAK/SkbMGwuEkACSCBdAij06RLD8kgACSCBU0YAhf6UDRg2FwkgASSQLgEU+nSJYXkkgASQwCkjgEJ/ygYMm4sEkAASSJcACn26xLA8EkACSOCUEUChP2UDhs1FAkgACaRLAIU+XWJYHgkgASRwygig0J+yAcPmIgEkgATSJYBCny4xLI8EkAASOGUEUOhP2YBhc5EAEkAC6RJAoU+XWIblOY7z+/3d3d1ut9vn8+3t7amsiOf5YDDY29vrdrt7e3tfv36dTCZFxy4vL/t8vi9fvtB8juNevHjx+++/05xcJXiev3PnTkNDw/7+vqjOZDI5Ozvr8XjcbvfDhw+j0aioAHzNGIVsbZllhsPhoaEht9vt8Xj+/PNPKVLZaoeHh7/77rsPHz6E5T7xeByO8vl88/PzHMfRSiKRyJMnTzY2NmjOt00kk8mxsbHl5eVUzVDJZ2Nj4/bt22CZq6urPM+nqjDf+bTB3d3dfr9fen1tbm6Ojo6Gw2HayEQisbCwMDY2RnPy3chvWD8K/XHA39racjqdVVVVgUDg5cuXjY2Ndrtd4TKjbdrb22tvb6+oqOjo6GhrazOZTISQ2traUChEywiCEAgEyOFHp9PZbLbi4mJCiNlsnp2dZYvlJD0zM6PT6erq6qiuQbWxWOzy5ct2u31sbGxhYaGjo6O4uFh6p8kYRU4aD5VMTEwYDIaOjg64zu12e3NzcywWO/IUbW1twFn238HBQaiBFisuLrbZbDqdjhDicrl2dnaOPEVeCySTyXA47Pf7q6qqCCGBQED2dGr48Dw/NDSk1+tv3bq1uLj48OHD4uLiH374IZFIyNaZv0ye58fGxqxWa0tLi9vtdjqdhBCTyTQ1NcWeNBgMGo1GQohWqy0pKTGbzYQQnU737NkzFHoWFKYzJBCPxxsaGioqKra2tqCKWCzmcrkcDodIr0Un4Hm+p6ens7OT+oY7Ozvnz58nhNTX17PCRIWeClBNTc3q6qqowuy/RqPRmpoaQohI6A8ODrq6usxm89LSEpwlkUi0t7ebzea3b9/S82aMgtZAEzzPv3jxIhwO0xyVibdv35rNZrfbTSXp9evXRqOxq6vr4OBAoZJ4PF5XV0cJixLs+FKhhzJardbj8YjuiwonytNPoHRarbaystJisaQSepV8Jicn9Xq91+ulKjk+Pq7T6YaGhvLU/lTVzszMVFZW0tlSIpEYGBgAR4daoyAIVOjpwJWXl8/NzdH2p6q/MPLRo8/7OD5//lyj0fT397Nn8vl8hJCRkRE2U5T++PGj1Wqtqqp69+4d/Wl6erqoqEij0Tx//pxmBgKBs2fPQizi8ePHa2trKmMRtAY1CZ7nBwYGysrKpEK/uLhoMBiam5tZrVxYWNDr9Tdu3KDXUsYopM2Lx+NNTU3BYFD6k0LOwcFBa2urXq9fWFigxQ4ODpqbm7+6eCsrKzRTmohEIpWVlX6/XxS2WVxcLC8vn5mZoYe0tbVdu3bt9u3bHo/H7/dHIhH600lI0DuW1KNXyScWi50/f95qtX78+JH2aHd3t7q62uFwHGd/YexMJtMvv/xCzSwSiTgcDkJIa2srNchgMFhWVub1eru7u71e75s3b+idnnahgBMo9PkdXDBEQsjExAR7JhBBkV/MFhAEAdSTENLS0kKFOxwOl5aWEkI6Oztp+UAgoFwVLZlNYn5+vra29ueff5YKfX9/PyHk3r17bP1woyotLd3e3hYEIRsUbLWQzkzooUk2m000l4L209iL9HSCICwvLzc0NHyVM/ZXjuOamppYx1YQhLa2NuWq2BqOP60g9Cr5gPW6XC52mgLjq9FoJicnj61TcMshhJSUlNAZMwwBIaSsrIzedYLBYGVlZQZTwGPrS15PhEKfV7zC58+fIWgo8p5gIinyiURN2dzctNlshJA7d+7Qn6jQt7W10cxjEPpoNOpyuWZmZiBMxN5XOI5rbGwkhIjUDZpK3edsUNCe0kRmQj87O1tUVFRaWiq64AcHBwkhohkJPRck3r9//+TJE+ohCoLA87zX67148SIbRjvVQq+Sz+joqPRmT+VVNHkVYcztV5iCEAzB7cQAAAqASURBVELOnz/PjgJEz9iBRqHPLXms7b8IrK2tnTlzRhoPBaE3Go3KwYd4PB6JRKg7LwgC+FyEEPZyAqGPxWLBYNDn8/3zn/9MtePlvxqn+gsEbXp6enielwo9VXBZoad9zxKFqLGZCT0oFHv9Q7Ug9OzdS3Q62a9LS0tsdJiWAY9+b29vZmZmbGzsjz/+OFFRAgWPXiUfj8ejIPSsC0KZ5C+RSCS+xmroOhY7d6yurqYzMBD67e3t9fV1n8/n9/s/ffqUv1adtJrRoxePSDweFwVhlb9SSxJXdPidLgHJevRUBGWPlc2EMLfBYFhcXKQFAoFAaWlpdXV1S0vL2NjY3/72N51Od/fu3Vzpy+vXr10uF8yCpUJPJxmphB7yc4siM6EHQU8l9NJ8SliaiMVi9fX1sqssbW1ttbW1Doejr6/v6dOnVVVVFotlbm5OWsk3yVEQepV8wF+W3hdT5bPd5DhO+YIS/frlyxcafGfrUUjLToWDwaDdbne5XA0NDU+fPvV4PAaD4euWtj3VG50Vznjyf0Kh/68xSiaT3d3d9nQ+7e3trDfxX9Uxa/05EXrY9KLRaERB4UAgYDabqfSDA67RaHKyBSIWizU0NNDFRhR6GOInT57Y7fbNzU3RiEMEo76+nk6qYNREG5CkRx1bzrcV+qGhoXQuL/vFixcpSTWIwPiJZGdaMBi0WCzj4+P0tuHz+TQazZG7rdSc9OSXQaHP7xjl0I3lef7+/ftgmiJXfXt7e3FxkVqwIAiwXGaz2WSVCPq8s7PT2tra3d3NBjdFOOCk7MWAQi8IQiQScTqdqWL6X/drsguDgiDAYi+7CUTEWRCE9fX1ixcv/vjjj6LBlZbMMufbCn2WjT/ycNgs63Q6RUMQjUZFMTSIgoomx0fWf0oLoNDnd+ByKPQTExN6vf7OnTtqhIAGxH0+X6oeDg8Pw57i0dHRVGWWlpZcLhe7R+X4hR58Z5EbaLPZ/vKXv1gsFlG+3a7kA6oMTaSiQfMhgCbaZUR/lSYg9q289t7Z2UkIKSoqUnjMjeO49vZ2aZdlc86ePfv69WtpYwpY6Le2tioqKlQ+m0bXltjlLimuwshBoc/vONK1U9nQzZGLsbRxs7OzVqt1ZGSEddvhV57nlw8/7E+p4ua0QkEQJicndYcfGpZhfxUEAZ5vun79+srKCo2cjo2NwdO5GxsbkUgkkUjABupUu27oOkTGKGRXTTY2NhoaGl6+fEkbRhMKUV14fEEai09rMZbu9JC9iXIc9+rVK9GuHrg7Kg/30NCQRqOxWCwKT7rxPP/lyxfaU+UEjI5oTGFY4ckvkU0KgqCSD0xQUsXoj3kxlnZwZ2fH5XKlesh5Y2NjYWGB3ddAb3jfqsG05ceQQKEXQ15ZWfGn81leXmYVVlQdFUHRRQWevrKLR6taWlqyWq1seHF2dvbmzZtQ4NWrV1K9ViP0giDsHn7oiUSJSCTicrlE3iK8XwHetXDu3LmVlRW6QV52MZZur8wJCtrCzBZjIaKVSuhThWLoSSGxvb0NjzKIxhR+vXnzJiHE6XTSHdz0HRXKQg8izu5MF503V1+pwEnbr5IP3A9SCb2yg7y1tZXO5eUXqXMqCLA2zj5GHolEWlpaYBTev39vtVo1Gs2TJ09oDZQDCj1l8r+S4Hl+dHTUnc7H6/UqLMbyPN/e3k4IEYVHpqamNBqN9FKRgt7a2vrrX/8qet5qcHCQxg0mJiYIIaIHVeBGIsqUVp5BjqzzC5kej4etcHl52WQy0QemskfBVp6Z0INGnzlzZm1tja0NwiaiGxVbgE2DGsrGWHiev3btGiGE9hoOpCEjeHaMre3401TgpEKvkg9Yl9Pp/Pz5M23//v5+fX39kSY3OTmZzuXl7uvrU97YJghCIpG4fv16V1cXG9UMBoONjY1w43zz5g286IYdYpXOEO3gqU6gR5/34Zs+fGmBSARHRkZEr0B48+aNxWI5e/bs+vo6bdPOzk59fX13d/fMzMzW1tbMzIzf7x8fH6+urqZxg8XFxYqKikAgwE5LJycnNRqNyK+k1WaTkBX6lZUVs9nc2NjI3vOg4+wrEFSiUNO8zISe5/kbN26INJrjuEuXLrGvQEgkEl1dXUVFRT/++KN0uqYch4FXe3748IH2gt7h4EEEmv+tEgpCr5IPEBPdL+HFA8f8CgRQ+Tt37rhcrvHx8Q8fPiwtLcGMobu7m07RNjc3HQ7HL7/8wton3K6UY2Xfaoxyfl4U+pwjFVfIcdyVK1dKSko2/vOW2p2dHefhh53dg4ASQoaHh6EKmI3SdzCxCRoPAUN3u91///vfqTsDT7HqdDrRPEDcsnS+J5PJSCQSCoW6u7sJIVVVVV+nwzQKDO9fMxgM8/PzUGs8Hm9sbBRdRSpRqGlXZkIvCMLq6qrFYvn+++8prunpaZ1Ox6ow9fXYZ+hpq2ARO1Uc5utmj+rqatZZXlhYMBqN7FvPaFXHmYARDIfD7969g6e1b926FQqFwuEwGy9Sw0cQBHiJ6cDAANwIeZ4fGRnRarVsbOQYegcPJ2s0GvbqoGkaRIJiV69epRvMYFlbulP5GNr8TU6BQn8c2EOh0Nd3C5tMpuHh4dHR0fLycofDIYoeSD16CBFQq2UTImcqGo02NDSUl5fD24wtFovJZAoEAlJvNOPeUu1jm8GKXSwWa2lpMRgM/f39Pp+vpqZG9ikhNSjUNDJjoRcEYWpqymQy1dTU+Hy+/v5+6YMzyh49RKhNJlOqF00vLi5arda6ujq3293U1KTT6WpraxX2uarpb/ZlZEcQRpMNaKjhA69/ePz4scFgaGpqGh8fd7vduX1GT2V/6cIPa5Y0zcZLOY67fv261Wpta2vr6OgoLy/X6/WPHj1i58EqT3oai6HQH9OoJZPJYDB4+/ATDAZzbl60/t7e3tnZWXaKekw9PHz3y/r6utfr7e3tnZuboy6zqAG0qbdv384YRTZCLwjC3t5eIBDweDyjo6PpPgq/t7f3+PHj6elphfsord/r9ebpZaIiqrn9StuvzCcajfp8Po/H4/P50nqsKbetVVkbz/Ngnx6PJxAIUO9e5eGnuhgK/akevv/dxu/v7zc3N6fyqf93uWDPkYAcARR6OSqYhwSQABIoIAIo9AU0mNgVJIAEkIAcARR6OSqYhwSQABIoIAIo9AU0mNgVJIAEkIAcARR6OSqYhwSQABIoIAIo9AU0mNgVJIAEkIAcARR6OSqYhwSQABIoIAIo9AU0mNgVJIAEkIAcARR6OSqYhwSQABIoIAIo9AU0mNgVJIAEkIAcARR6OSqYhwSQABIoIAIo9AU0mNgVJIAEkIAcARR6OSqYhwSQABIoIAIo9AU0mNgVJIAEkIAcARR6OSqYhwSQABIoIAIo9AU0mNgVJIAEkIAcARR6OSqYhwSQABIoIAIo9AU0mNgVJIAEkIAcARR6OSqYhwSQABIoIAIo9AU0mNgVJIAEkIAcARR6OSqYhwSQABIoIAIo9AU0mNgVJIAEkIAcARR6OSqYhwSQABIoIAIo9AU0mNgVJIAEkIAcARR6OSqYhwSQABIoIAIo9AU0mNgVJIAEkIAcgf8HgosYFNOnAvAAAAAASUVORK5CYII=;" vertex="1" parent="1">
          <mxGeometry x="369.77" y="1024" width="140.46" height="34" as="geometry" />
        </mxCell>
        <mxCell id="WOx4rIqFdnK--00V2V1H-373" value="&lt;font style=&quot;font-size: 10px;&quot;&gt;132.6 - 100 = 32.6&lt;/font&gt;" style="text;html=1;align=center;verticalAlign=middle;whiteSpace=wrap;rounded=0;fontColor=#143642;" vertex="1" parent="1">
          <mxGeometry x="150" y="390" width="60" height="30" as="geometry" />
        </mxCell>
        <mxCell id="WOx4rIqFdnK--00V2V1H-374" value="&lt;font style=&quot;font-size: 10px;&quot;&gt;75&lt;/font&gt;" style="text;html=1;align=center;verticalAlign=middle;whiteSpace=wrap;rounded=0;fontColor=#143642;" vertex="1" parent="1">
          <mxGeometry x="230.12" y="498" width="60" height="30" as="geometry" />
        </mxCell>
        <mxCell id="WOx4rIqFdnK--00V2V1H-375" value="" style="shape=image;verticalLabelPosition=bottom;labelBackgroundColor=default;verticalAlign=top;aspect=fixed;imageAspect=0;image=data:image/png,iVBORw0KGgoAAAANSUhEUgAAAakAAAB5CAIAAAAMB0mXAAAgAElEQVR4Ae19+Vdaydb2+68WQuNCcMARWuNwWRCM0UvUOJAQ7CQuh86k5jpdOzatF7uliZpEr1OIGmM0NGIQlIWeevNlr663vnMOh8MQg1j84KpTp8andj21a9eu4/9g9mMIMAQYAlcPgf+5el1mPWYIMAQYAphxHxMChgBD4CoiwLjvKo466zNDgCHAuI/JAEOAIXAVEWDcdxVHnfWZIcAQYNzHZIAhwBC4iggw7ruKo876zBBgCDDuYzLAEGAIXEUEGPddxVFnfWYIMAQY9zEZYAgwBK4iAoz7ruKosz4zBBgCjPuYDDAEGAJXEQHGfVdx1FmfGQIMAcZ9TAYYAgyBq4gA476rOOqszwwBhgDjPiYDDAGGwFVEgHHfVRx11meGAEOAcR+TAYYAQ+AqInCJue/Vq1d9fX3n5+dXZNz8fn9nZ6ff778i/f3u3Tw8PLxz587VAfz8/Pzhw4der/e7I38xDbis3Dc3N1ddXX1wcHAxMKVcC8dxnz9/DgQCW1tbOzs7KZcDGS9Lr9PsZjZkPzg4qK6unpuby4bGSLchEokEAoGDg4PV1dWzszPpxNJvL1GvpTsi5+13477u7m4U/5eXl9fQ0PDmzRuO44TdWF9fLy0tXV5eFr46PT21WCzxC0YqlaqpqWl7e1uY91vE0N2cnJxMswqO454+fWqxWMLhcJpF8bIHAoHh4WG73e5wONxu98nJCS8BxpjjuN3d3YGBAbvdPjAwsLm5KVS6XS7X8vJyNBol2YPB4MTExN7eHom5mIDP59NqtRKSoNPpent7I5GIsD3hcNhisfT394uKHz2mwvKlRVdYV5oxXq9XoVBAM5qammjkUyt5bW2tvLx8fX09tezCXKenpzdu3Hj+/Lnf7w8IfsFgMBaLYYyj0ejk5OS7d+/gEeRtf39/dHQ0FAoJi00/5rtxH/Tt119/RQjpdLrl5WWQwmg06vf7//3vf2s0mry8vOfPn/M6GYlErFZrd3e3xBJ3fn7e19eHEKqqqtre3gaBiEQiBwcHg4ODKpVKrVZ7PB5eyd/ocW9vr6KiQqPRbGxspF9FMBg0Go3xpmUK5XMcNz09XVxc3NraarfbjUYjQkir1fL2PrFY7MGDB2VlZaOjo26322635+Xl1dbW7u/v05V2dHTAPCwoKNDr9SqVCiFkMpkODw/pZBcWPjo6qqurQwjZ7fZgMHh+fg6auM/na2pqQghVV1cLd7XDw8OVlZWfPn2K106O41IQ3XilpRkfjUa7uroQQo8fP06zKJiVPT09dXV1mWKcQCBQVlYmXCQgRqPRbG5uYowjkYjZbIZInU5XUlKSl5eHELp9+7boSpx+T78n92GMgaHMZrNw+R0bG0MI6fV63uyamZnRarWAV7z+n52d2Ww2hFBnZydv6eY47t69ewih+vr6jGtPou3Z2dkpLCw0Go1HR0eiCZKNHBsbKyoqypTquri4WF1dTfSyWCzW398PCxK9+E9MTOj1eqJrn52dtbW1IYR4Y0e4D4Q4Ly/P6XQKB1dOl/1+f/rr08ePH4uLixUKxfz8PK/SYDBoMBgQQoODg/Sr/f19vV7/7NkzOlIYTkF0hYVkJCYajTY1NSmVyqWlpYwUuLW1VVhYODExkZHSNjc3NRpNPO6z2+2g6NHcB4nVavXQ0FD6mmy8XnxP7iP7U6fTKWzf3NwcQEBPgHA4XF9f39jYKI1IMBgsLy9HCIluMx8/fowQIguOsOrMxrhcLoSQzWaTUFSTqhHmM2/GJlUCSQyLhFar/eWXX8giQUihra0N2gyzi7cUPXv2DGCk9dmOjo729vaBgQGn0+l2u4PBIKkr2YDH4+no6Eg2Fy89bAkLCwuFxtZIJGIymYT0PTg4qNPptra2eEXRjymILp09s2GQh+Li4o8fP2akZJCKTCkHXq/32rVrX/iUt98dGxurqakhEgLcd//+/Ydff16v91urJt+T+yTWZKISqtXqlZUVMqKrq6v5+fmijEbSYIxXVlbUarUouxGVMIOyQlctDDudzngsLEwsJwa6kBFFEtYShFBJSQl9cATqW3l5OYgmx3GdnZ3xuI/WwTs6OhJqTHL6iDHOCPdJaGcgfrxlCQBJaDhLQXRl9jqFZEtLS0qlMmGbkyrZ5XJlSpEcGRnp6+vj1f7FEmUwGOiNBXAfrejwsmT88Xtyn/SaDJt/3uLz7NkzOYazkZERhJAoO/z1119gfSBKTcYxpQs8Pj6ura3lMTidILXws2fPMlIm2brycAbuKysrCwQC0MJIJOLxeMjWmLChwWAgSzfGOKu4T1o7m5+fV3z9zczMkFGADVpCw1kKokuqyHgA+F3IL+lUBDhkpEy32/3mzRu6MeFw+Pr160NDQ2SrQex9V4X7JNbkxcVF1dcf7WQAOy96QtKAkjDR7ITGPozxxMSEQqHQ6XRkzfH7/SaTSaVSNTQ0+P3+N2/eGI1GrVZbWVnp8/lIsXAUNT09bTQaNRpNQUGBwWCgt3uQMhKJ9Pb26nQ6jUZTUVHhcrkKCwuJAkWXlk4Y5t7IyEg6hUDeWCz2ZZNL2xAIgLW1tV+4W7SKvb29kpISlUpFDxDhvpOTk8XFxenp6Tdv3pBjO9FyJCLT1/sktLNoNHrz5k2EEO/QfHJyEiGUcAYmJbocx42Pj+t0uvz8/PHx8Ugk0tPTo9VqNRpNb28vD5/3799/8eLUarU6nU6tVvf29tJDgzE+Pz//z3/+U1VVpfn6Gx4evnHjhkKh4J1NSQAr5xVYjSwWy+npqZz08tNwHDc0NNTa2srrONH7QqHQ77//7nK5RB0J5FeUMOV30/uICUlo7Hv37l15eblarZ6enqZXhqOjI6PRyDOuC3sIyYTbTI7jFhYWdDpdUVHRq1evIOPZ2Zndbne5XBsbGxqNRqfT1dbWvn//fnFxsbi4uL29nTRgZ2fHYDCUlpYuLi7CceGLFy9qamro4zBIYzKZ/H4/x3Gzs7Nw0JlBYx80G5bl7u5uYffTjwFjv/AQANg/EAgsLy/X1NSo1erx8XGCD9Tb0dHR0NBgMBh6e3unpqZqampotJNqW/rcB5tBobEvGo0ODAwoFAqLxcI7gHY6naKmErrlyYru5uam1Wr9/Plze3u7SqUqKip6+vTp0dFRV1dXQUEBWT5jsdijR4+USqXD4QChgkPqqakpUvvJyUlnZ6dOp1tYWOA4bm9vr7KyEiGUcQMOMFHG12yM8fr6+pc2C82pUKPZbK6urn7y5Mno6GhZWZnBYBAaagkaaQa+G/cRa4vZbLb//evq6qqqqsrLy7NarcJzTL/fr9frE9o1wNiXl5d38+bNvwu2d3R06PX6vLw83tWInZ0ds9l8dHQE80Sn0719+5awJyGXg4ODyspKWlvEGG9sbPz4449kVwhpSkpKyMYwGo02NjYihOIpaHt7e+Au9+jRo0Ag4PP5eLuDeKMLUGScUsHFAc55eQoRtGRpaam0tFSv12s0mp9++on0nbSzo6PDYrGQ9SAUCtXV1QGqJI3MQPrcB9qZTqfr7OwkktDc3KxWq7Va7ejoKE+l4jiuvb1dyJW8Bicruk6nc3JykjDm3bt3z87OQMHUarWwtwBtSKFQkHNPGIv29nZiP43FYna7XaFQuFwu0iRwh4inoBG3zYcPH75//97v97vdbpJXIgBQZJxSQd0WNTcB93V3d5NBgb2FwWAQOiFJtFz+q+/GfbBry8/PHx4edlO/xcXFeOc7oOwkPPsDY19RUdHU1BRVsPv169cEVgKQy+UCxRNy3bt3j+O4s7Oz/v5+s9m8u7uLMY7FYrdu3eLpQZFIpL29HeQYY3x2dnb37l2EEG0igZNEUcMcx3FjY2P19fU+ny8ajS4sLNTV1ZWVldEHO6SRwgD4TEmrwKB41tfXLy4uCkuIF7O2tqbRaL7s6+mjD2Hiw8PD+vp6oW7+JTsvIxCQqLgLi6Vj0uQ+YuyzWCy0GLjd7p2dHaFXNjE5JTSqJCW6x8fHN27c2NnZgV0kOUHe2tqqr68fHh6Grd/y8nJ+fj7t0QXblMrKyrdv3wIs8/PzKpWKZ4gApwVa6giGf/75548//riwsBCNRn0+n9ls1uv1NG+SlKKBjo6OhCrw7u7u9evXf/75Z94GVrRAjDHYskTbcHZ2try8TPuBEdtLRlwahE36btwHU4I3kML20TFyuI/glZROBLlEvcAwxnC4jBCyWq2gPlgsFo1G09PTc/L3/YetrS0w0NDkBZ59ohuH+fl53p08l8slejhDI0DCcriPOPrILxZUV5muyC9fvlQqlSqVSppbQcGR0CACgYDZbC4V/ABPQfT/i/j1118JFPECRDsTnWmiuUD1SMh9KYgu8T0QXa7IiVNRURGoqLBNMRgMZB9A9hA0zYEuKWrse/v2bWVlJTFqQwPKysrkbyHlcB9ccZF5IgzdlHNWSUYHfCSSYgmSN2Hg+3AfWZNFjyPiNVoO95EJT3YK8Uqj42GTG2+zA7OXKJIej+fTp0+8hU70ZBlcFIUsDCLLM3Rubm52dXXJ9AGUw31wAQYhdPPmTaHCS3cfwoeHhyaTyWazxdO7eVkIuRArRDQaff36NW8j7PF4pL0pz8/Pg8Egz/krEAhMT0/bbDZhfCAQkNMd0M4Sai50p+RwX2qiizEGKeINOtRObCydnZ2goq6vr/NOmeCKHo9lwPQhuq44nU4yLlBLIBCw2Wy8Yunu88JyuG94eFihUMj0tAc7smhrQeleWFjgucGDD2nC1YjXcpmP34f7yLSRvyZjjEGNos8fhJ0EY5/oNlOYmMRALtE1GWMMA8CTJJIXAuAUwmsbrFpCYx8wV0tLC02gr1+/lo8GlBDPykPaBme4dC3kFS8AN1hpa0swGGxtbQX/lXA4/MXUUFtbSx98QxvgWhgY+O7fvw+uRbTXS0Lu47WEPKa5501BO4M1Sa/XSxiYUhNd6Y0FIMnjNYIDBABGXtvASC0UAyDxa9euff78mZSzvb09NDREHhMGOjo6iDkyXmK4IMgjrHiJwalIlMii0WhLS4twnc5B7gMUklqTMcYgIvEYChAnYP3111/xxkAYL7EmE+6TtjMC99HKJm3si0Qi3d3d5PQGHGgVCoXZbHa5XDRTCNsmGgPLgHSTRDOKRsZisTt37ty9e5dmyc3NzaamJhBrwAchRNdIWADmHljHEUJlZWU0+KmNSJq+zTD5RS81iiJAIhMqO6mJrvTGAgRbejoA9/GEnzb2jY6OkhNhsok2Go2Tk5P7+/u843jS33gBWAZEeSpeloTxsBqJWmDi3bGBacXrdcKKZCb4PnpfCmsyaMUmk0kUO+htOsY+hBDPVY0gCKsrT6fDGB8eHra2tn748IHwI819cGgAxr7Nzc3GxkZ6Lzk3N6dWq8klR3AtJDUmDIBHTkIX3ITlwEnO4OCgyWSanZ398OHD+vo6bLscDgfZrcOE5532gLJMRw4ODlqtVgAEqiYu0D09PclOv3T0PsLL8lVpaPDjx4+l9a/URBewMplMoioSEI3QEMZx3IsXL8DSDwYfmgXC4bDJZAJjXyQSaWpqWl1dJSO+sbFRVFREBKyiooLW2UmyeAEgo3gNjpdLOl6CyICs7XY7bTCBBUyhUGTqZjGveRfKfdFoFL5kV11djRBqaWkJBALwdQ1es0QfYSKJWuXgE2YrKysw3r29vYFA4PPnz3Lmm/SaDJxrtVpp5xWO4169emU0GsfGxqCK7e3toqIicpq5uroKLjUmkykcDvf394+NjfE6FQqFXC5XY2MjkCCxBHEct7GxIX2A4HK54p3M8GqRfiSuFWSS0AFiVoePx3R2dp78fbYTi8XglhvtCvPlhLe2tpZ2DF5ZWdFoNJWVlbzDX+lWwdsUuI98LfH58+cKhSI/P9/r9QYCAVHGEW0DsLzw0mSaoiu9scAYwxku/XmeSCTidDrr6+thAw7eIeQgOBQK3bhxQ6VSAWMuLy/bbDaeGfTk5MTj8bS2thYUFCCEiNHG7/f39fU5HI5434jDGMPikZQ5XhRPEknspDR9k7fg91ddXU0OtTmOm5mZUSqVtIDR6dMPXyj3gT2Inl0IIdFj0HgdE53zsVisubmZVyz66rIvxysdjmilv49weHhotVoLCgpaW1ubm5t1Ot0XZ3qyh4XWer1enU5nMplqa2sbGhrev38/NDSkVCpramqsViut9PF6t7+/X15eDjLx22+/NTU1GY1GWoXkpccYO53OeDZjYWKJGLhyJ4QOYmgK2N3dBU898qkrhULR0tLC8w1eXV0tLi4Gn83m5ma4LcP7Eo9Ee+hXKXDf7u4ureyQfglNrnRFdDjenE9TdO/cuaNUKl++fEnXRYfho1gFBQU1NTVdXV1fNjclJSU8D0S/39/Q0FBWVtbU1KTX62dnZ9fW1nQ6XUVFBe9Ily4ZYwwaImxg/X7/4OBgNBr98OFDZWXlb7/9xksMj7DXSVZrFi0KIsmeTGidhAQcx7ndbq1W29zcbLfbzWazUqm8desW8RWVKDy1VxfKfak1kc4FoklUJPpVymFQFnhrpmhpx8fHcOwYLzGcLdD65vHxMfk6I5Tp9Xqf//8fJQTdnt5TS9+KBcIiOqZoU79F5Pn5+c7Ozvj4uMPhmJ6ejvd5O1A3nE7n0NBQPE86Oc1LgfvkFCudBqaohF1FOnu8t9FolJaKeMlAfiS2LCCrtESBQkortj6f78GDB7wqOjo6YAPr8XjICUZfX188Jurr6yM6Jq+olB/39vaePHlCPP9Fy4HNkMPhSM1MKVpmvMhLxn1nZ2dfziJ59+fj9S074/v6+mh9CmMMO0r6Rr0098FGUkKJyM6OJ9sqr9drt9uTzZV+ejDFXl54ibs+gQJ8A8FueHJysrKyAodaQj8YyAKLK/j5k0JyL3DJuA9jvLm5qdVqM6iNX+SggtWDNmGcn58/evSI54InwX1gFbZarfRSf5FdyPm6QA2/desWfep9iXrd3d1NG1jBcHbt2jWeO8GnT5+MRqPwk64Y45mZmdSuIV4ilDDGl4/7wDxfXV3NG8tLgfvHjx8tFsuDBw+MRuOTJ0/grKOtrY1nDZTgvuXl5dLSUtpf/1J0/HI1cn19vbi4WPq4KTt7dHx83NjYODg4WFlZ2dvbOzs7e/v2bfi4Bt3gWCzW09PjdruFh4GhUKi+vp73gSk6b86ELx/3ge3WYrGk4Dbx3YctEonAjcVwOLy4uOjxeEQZPB73hcNhs9l8FeTy+47U5V1fwfwHX9x5/fr1H3/8IXTui8Vijx8/hk8Zffjwgb5K9O3+Gdb3HVDR2i8l9wH9tbS0vHjxQrhwifbzckWKcl8sFrt79+7w8HBOdjnbBojjuOHhYdqtJ9tamFp74CMaHo8nEAi8f//+6dOntDjNzc21tLTwdiGpVZT9uS4r94FTbigUokcu++FO2EKfz9fV1VVcXFxVVdXb20vfvozFYrnX34SAfMcEHMeFQqFLavWLh9vr16/hm5LgAES7x+dkf+PhcCntfRKdYa8YAgwBhoBMBC6x3iezhywZQ4AhwBAQIsC4T4gJi2EIMARyHwHGfbk/xqyHDAGGgBABxn1CTFgMQ4AhkPsIMO7L/TFmPWQIMASECDDuE2LCYhgCDIHcR4BxX+6PMeshQ4AhIESAcZ8QExbDEGAI5D4CjPtyf4xZDxkCDAEhAoz7hJiwGIYAQyD3EWDcl/tjzHrIEGAICBFg3CfEhMUwBBgCuY8A477cH2PWQ4YAQ0CIAOM+ISYshiHAEMh9BBj35f4Ysx4yBBgCQgQY9wkxYTEMAYZA7iPAuC/3x5j1kCHAEBAiwLhPiAmLYQgwBHIfAcZ9uT/GrIcMAYaAEAHGfUJMWAxDgCGQ+wgw7sv9MWY9ZAgwBIQIMO4TYsJiGAIMgdxHgHFf7o8x6yFDgCEgRIBxnxATFsMQYAjkPgKM+3J/jFkPGQIMASECjPuEmLAYhgBDIPcRYNyX+2PMesgQYAgIEWDcJ8SExTAEGAK5jwDjvtwfY9ZDhgBDQIjAVeG+aDTqdrsdDofdbne5XCcnJ0IsRGM4jtvd3R0YGLDb7QMDA5ubm+fn56IpMcaRSGRqasputzscjj///FMiZbwSROPPz8+XlpacTie0YXd3l+M4YcqTkxPoo8PhcLlcoVCIlyYajU5OTr579y4Wi8ErjuP29/dHR0eFiXl5M/sYCASGh4ftdrvT6fzvf/+bLFBJ4RwKhf7xj3+MjIyk34XT09MbN248f/7c7/cHBL9gMAjAZg/OvC7v7++Pj49Ho1FePDwmlB9IRsbO4XC43W75Uwmy0zPxt99+i9cY0RZmNvJKcN/BwYHRaKypqfF4PAsLC01NTaWlpT6fLyGUsVjswYMHZWVlo6Ojbrfbbrfn5eXV1tbu7+/z8nIc5/F4dDqd1Wp1uVxTU1O1tbX3798XJSleXunHw8PD69ev19TU2O12m82mVqsVCkVra2s4HKYz+ny+8vLy27dvz87OTk5OVlRUqFSqf/3rXzStRCIRs9mMvv50Ol1JSUleXh5C6Pbt28lKMF11suG5ubn8/Pyurq6VlZXp6enS0lKbzcbrTrwyk8WZ47ienh6E0LNnz+KVKT8+EAiUlZUBgMK/Go1mc3MTlsBswJn0KxKJbG1tOZ1OtVptNpsjkQh5RQJy5IfjuOnp6eLi4tbWVrvdbjQaEUJardbr9ZJypAMbGxsVFRU1NTVTU1Mul8tqtdpstu9Ff7nPfZFIxGq1VlZWHhwcwMCEw2GTyWQwGPx+v/RQTUxM6PX65eVlSHZ2dtbW1oYQEgrQ3NycWq0eGhoCsltaWlKr1cXFxR8/fpSuQvptNBptbm5++vQpobDt7W2Yfna7nahvwWDQaDTeu3ePUNjq6mp+fr5SqZybmyNV0NwHUxfanILwcRz3xx9/BAIBUrjMwNu3b3U6Hd34tbU1jUZz9+7ds7OzhIUki/Py8nJ+fn6muG9zc1Oj0QhZD2JIpzKIc0JAEibo6OhACOl0urq6OlHRxRjLlJ/FxcXq6uq9vT2oNBaL9ff3Q+Hr6+sJW7K+vk4P/c7OTnFxsVqtXllZSZj3WyTIfe6bmZlRKBR9fX00fC6XCyE0NjZGR/LC0Wi0qakJIaTX64mi9+zZM4SQRqPZ2Ngg6WE+NzY2EhIZGRlBCBUWFu7s7JBkKQRWVlby8/Nv3LhB0/TY2BhCKD8/f3V1FcpcWlpSKpUIocHBQYghGkp7ezvRPWFO3r9//+HXn9frlaltQZn030gk0tzcDGoOHS8dhsWDJ+5nZ2c2m02n021tbUlnTxbnUChksViKiooyxX1er/fatWtbW1u8/e7Y2FhNTU0wGIT2ZxBnaUCSeuvxeOJxnxz5gWHSarW//PILkahgMGgwGBBCbW1t0kuX3+83fP0RlLxer0KhUCqVS0tLSXUkU4lznPtgwBBCtPqDMV5ZWZHQ/wFcjuM6OzvjcR+Z9kQZdLlcZFQODw/7+vpcLheREvIqqcDs7CzoFITUMMZE+yA2LBJDkhHu6+joIDXCnPR4PCQm5UBq3Pfx48fi4mK9Xk9TOca4r68vIT0lizPHcf39/T09Pbdv305YuEwcRkZGeIsoxnh7e9tgMNCKTwZxltkwOckkuE+O/ITD4fr6eoRQSUkJ2UJhjEGvLC8vJ6Qm2pjBwUGEEI3eycnJ06dPnz9/TrYvohm/XWSOc9/R0RFYJXgTHgY74Z40Eol4PB6i5BM2NBgMZKR3dnYKCwt5mmCmBgy2rgqFYmZmhpRJJJXYsDiO8/l8i4uLRPEkaWjdNoNzMjXuA/2irKyMt1kGbdpms0noDsnivLy83NDQEAwGYXISrAiMKQTcbvebN2/ojOFw+Pr168TWAa8yiDNdV5phCe6TIz9k7amvr6e3CwCvcEzp1pJpyFNB6DQXH85x7oMJgxAS5T5inJaJ+97eXklJiUqloodwbm4OdMOPHz+OjY1VVVWVl5ffv3+fN71lViFMdnx8/PnzZ1p/BKUVIURrmnRGUHkQQhaLhRZTMidDodDvv//ucrmkj63pMnnh1LhvcnISISScJ8B9QisqXWlSOIdCIZPJtLi4SBSTjHAf3R6MMcdxQ0NDra2tPM0lgzjzakznUYL7eMXGk59YLPZlk0vWV4wx2VfV1tYeHx/zyiGPGxsbmq+/tbW1ubm56urq0tLSzs7O9+/fkzQXH8g67otEIjxjivSjBOL09lCU+4ScKDoA0Wg0EAgsLy/X1NSo1erx8XGaiWDeFhcX//Of/xwZGTk9PX337l1NTY3Mo2TRGqUjYftAWyEhPcdxnz9/Pjg4GBwcVKlUDQ0NvK0lzEmz2VxdXf3kyZPR0dGysjKDwZCCUTI17gOs4nGfMJ7GQT7OHMc9ffq0p6cHhimDeh/dHozx+vp6ZWWl0EyZMs4wgtICz3tLMxGvebzHhNyXUH54BWKM9/f39Xo9bWgWpsEYQ9UajcZms92/fz8cDu/v7zc3N2s0mj///FM0ywVEZhf3nZ+fOxyO0mR+nZ2dEsNPtn7pcN/S0lJpaaler9doND/99BNPoevu7gaTXHd3N9mywV7VZDLRaldGhlNU94SST09PW1tbS0tLdTpddXW1x+Mhp8OQAOZkd3c3QQxKk3PkzWv8xXOffJzX1tZMJhMxSnwj7otGozdv3hS18aeMs9/vr6+vT0b8S3/99Vfe0MR7TMh9CeWHV3I89ZCXDGMMR3+8kxbgzfLycnKQKMz4TWOyi/sy3tWMcB9p1eHhYX19vVqtnp6eJqofTC3ecVUwGCwvL+fZ6Ug5EDg8PGxra3M4HPL5MRaLdXZ25uXlDQ8PkwbwioW92NTUlFKp/HLKeXh4SBKcnZ0tLy8fHR3RMTabLeG6TdKTwMVzn0ycw+Gw1Wqdn58nTZXJfbu7u9evX//55595G1hSDi+wuLioUqlEzQ4ZxJlXaTqPCbmPFM5xnPOyDDcAAAf+SURBVKj8kAQQAOcko9FIH33w0sAj6OwIocnJSZLg9PTUYrGkIHukhDQDjPuSO/R8+fKlUqlUqVRgSyJnlDx3Flj5EULd3d3xRogshrRAxEtMrEtqtfrFixcSxAclRKPRxsZGhNDNmzeJlidauNPpRAhJ2GsmJiaEmoher//hhx+KioqEr65fvx7vlkg6e144C5bGGQxwDoeDKODy7X2gV/LWMFHEwM7V1taW1AFXQpzj1ZWpePnchzFOKD8HBweVlZUmk4leXOM1FVzKhNjCsmSxWE5PT+Pl/XbxOc594FQhtOuBPpjsWQfGmBTY1NQEnAIUxrNVEe6jXUx4ozg/P6/6+iM0yktAP3Ic9+LFi8LCQvn2ESALWuAikcjCwgLPrT8eH5HaRS2we3t7Vqt1YWGBZ34KBAK8kxlSDsYY5gAPK4wxtEH6rEMOzm/fvi0vL5+YmDg4OCANA8W2v79fum3Dw8MKhaKoqGh7e5tus2gY9mvx/ARSw1m0ogxGJsV9ZFGn5Yc05vDw0GQyyb+NA658wukG3Cc97qTSjAeyjvu2trbcyfx8Pp+EEvTlJKS2tjYe98WTXUA5HA5/Ya7a2lr69hvxm/tyVgXaDYwrbz7L4T6M8fHXn5xBnZubKy4uJs7MGOOJrz/I6/V6q6qq+vr66P0a2Wj88ssvsJK3tLQINcGE3CfavNT2vHBCzcOKcJ+0j4scnMEyS6uier1epVIhhAoKCkpLS1tbW+OpGGDp5y0Mon3HGM/PzysUCmFH0sQ5FostLS3JF/+krtZIcJ8c+SFQhMNhi8VCW42DwWBraysxsJKUJODz+bRaLeM+AohIgOO4yclJezK/oaEhiT0d8cjj7SthIkkvOOCQgRCidTei9xFFHVQArVZLU2QkEjGZTDxnTpEOy4taX183GAz0TRLYyoGrDXGe4skW6H0KhQKuW5Im8Xqd2tqbGvf99ddfX/iCt2/FGMN+U9oNJTWcySIkXbi8cfi/VICt0WikjafwOh2cQ6FQb29vMuJvl3+XNh73yZQf6F0sFrtz587du3fpVXZzc7OpqUli2QC/aCKKUBTHce3t7Qgh6TXv/0DPdCjr9L5MdxCDhc7pdNIlw7WwMepO28bGRlFRUVVV1e7uLqSEtZ1niyW+deQGBfh8KpXKly9fkir8fj+cC5PrH+RVsoGdnR2j0fjo0aPXr18fHBx4PB632/3ixQuDwQAXIcn0pr1eiOMViYR22u12+pwa8ioUiomJiaQalhr3cRx379493jYKTEv0nbZYLHb37l2lUvnzzz8TpT41nAk4meU+iQUjszgnNSjSieNxH4GIiArtuEdHxmKxwcFBk8k0Ozv74cOH9fV1UFEdDgfNX3Dn2mw202ZfcMyiZxwsErwr59JdyOzb3Oc+8EUoKSnZ+/sO9uHhofHrj9bSyQ6RXBSDC96dnZ0nf3/wCo5ZhT7DcM+UOBKDxT0vL4/n7p/CyIFFWfTyPL1hn5iY0Gq19JUDOIPjuWGvr69XV1e/ffsWWsJx3MzMDBwHyz9rhrypcR/cACsqKrp16xZRHF6+fKlSqYg7HsaYGBZ4N6WSwhm8Mt+9ewcXe8A5ScIWKX90yAElT4MmJWQQZ1JmygFirh0eHgbH8rW1tUAgEAwGiQuUHPkBqVYoFKLSSF9Wg4WBp+X5v97npT8pMjc3p1KpyAcgUu5gyhlzn/swxn6//4ujr1arHRkZge87CR16hXofxnh3d7eurk6n05GP9igUipaWFuHZltfr1Wq1RqPRbrebzWaVSvXo0SMyvVMeHjgcEJU2esMVi8WGhoY0Gk1tbS351JVWq52dnSV6E5wUu91urVbb3NwM7VQqlbdu3aLXZ5lNTZn7MMaAVV1dncvl6uvry8/PpxcYjLGo3gcNk48zqDk86OKxlcxeQzKiUxO7By87x3GZwplXcgqPZFHnQUEbK+XIDzGd88qBR9qmJKr3YYx9Pl9FRUVZWVlXV1dzc/MPP/zAG/cUepdOlivBfRjj8/Pzzc3Nga+/pC5ynZ+f7+zsjI+POxyO6enpT58+xYP75OTE4/E4nc7JyUmJZPGypx8fDoe9Xu/Dhw8HBgbevHkTj3lDoZDL5XI4HJOTk/v7+zQ5ym9DOtyHMU4Hq3Tyyu+gdMq9vb0nT56QnYRo4ozgLFryN4qUKT/p1B6LxV69evXw4cOhoaF4n+BNp/yk8l4V7ksKFJY4IQKnp6c2m40+3kmYhSVgCGQVAoz7smo4WGMYAgyBC0KAcd8FAc2qYQgwBLIKAcZ9WTUcrDEMAYbABSHAuO+CgGbVMAQYAlmFAOO+rBoO1hiGAEPgghBg3HdBQLNqGAIMgaxCgHFfVg0HawxDgCFwQQgw7rsgoFk1DAGGQFYhwLgvq4aDNYYhwBC4IAQY910Q0KwahgBDIKsQYNyXVcPBGsMQYAhcEAKM+y4IaFYNQ4AhkFUIMO7LquFgjWEIMAQuCAHGfRcENKuGIcAQyCoEGPdl1XCwxjAEGAIXhADjvgsCmlXDEGAIZBUCjPuyajhYYxgCDIELQoBx3wUBzaphCDAEsgoBxn1ZNRysMQwBhsAFIcC474KAZtUwBBgCWYUA476sGg7WGIYAQ+CCEGDcd0FAs2oYAgyBrEKAcV9WDQdrDEOAIXBBCDDuuyCgWTUMAYZAViHAuC+rhoM1hiHAELggBBj3XRDQrBqGAEMgqxBg3JdVw8EawxBgCFwQAv8LPV8UeWTeZlUAAAAASUVORK5CYII=;" vertex="1" parent="1">
          <mxGeometry x="221" y="430" width="203.72" height="58" as="geometry" />
        </mxCell>
        <mxCell id="WOx4rIqFdnK--00V2V1H-376" value="&lt;font style=&quot;font-size: 10px;&quot;&gt;235&lt;/font&gt;" style="text;html=1;align=center;verticalAlign=middle;whiteSpace=wrap;rounded=0;fontColor=#143642;" vertex="1" parent="1">
          <mxGeometry x="230.12" y="338" width="60" height="30" as="geometry" />
        </mxCell>
        <mxCell id="WOx4rIqFdnK--00V2V1H-377" value="&lt;h1 style=&quot;margin-top: 0px;&quot;&gt;Decision&lt;/h1&gt;&lt;p&gt;Since 100 &amp;gt; 32.6, the optimal policy is choosing &lt;b&gt;N&lt;/b&gt;ot to&amp;nbsp;&lt;b&gt;H&lt;/b&gt;ave &lt;b&gt;R&lt;/b&gt;easeach then choose &lt;b&gt;A1 &lt;/b&gt;as the alternative of choice.&lt;/p&gt;" style="text;html=1;whiteSpace=wrap;overflow=hidden;rounded=0;fontColor=#143642;" vertex="1" parent="1">
          <mxGeometry x="34.77" y="107" width="180" height="121" as="geometry" />
        </mxCell>
        <mxCell id="WOx4rIqFdnK--00V2V1H-378" value="" style="group" vertex="1" connectable="0" parent="1">
          <mxGeometry x="1310" y="60" width="349" height="778" as="geometry" />
        </mxCell>
        <mxCell id="WOx4rIqFdnK--00V2V1H-92" style="rounded=0;orthogonalLoop=1;jettySize=auto;html=1;exitX=1;exitY=0.5;exitDx=0;exitDy=0;labelBackgroundColor=none;strokeColor=#A8201A;fontColor=default;" edge="1" parent="WOx4rIqFdnK--00V2V1H-378" source="WOx4rIqFdnK--00V2V1H-93" target="WOx4rIqFdnK--00V2V1H-94">
          <mxGeometry relative="1" as="geometry" />
        </mxCell>
        <mxCell id="WOx4rIqFdnK--00V2V1H-93" value="&lt;font style=&quot;font-size: 24px;&quot;&gt;1&lt;/font&gt;" style="whiteSpace=wrap;html=1;aspect=fixed;labelBackgroundColor=none;fillColor=#FAE5C7;strokeColor=#0F8B8D;fontColor=#143642;" vertex="1" parent="WOx4rIqFdnK--00V2V1H-378">
          <mxGeometry x="30" y="120" width="40" height="40" as="geometry" />
        </mxCell>
        <mxCell id="WOx4rIqFdnK--00V2V1H-94" value="&lt;font style=&quot;font-size: 24px;&quot;&gt;2&lt;/font&gt;" style="ellipse;whiteSpace=wrap;html=1;aspect=fixed;labelBackgroundColor=none;fillColor=#FAE5C7;strokeColor=#0F8B8D;fontColor=#143642;" vertex="1" parent="WOx4rIqFdnK--00V2V1H-378">
          <mxGeometry x="135" y="70" width="40" height="40" as="geometry" />
        </mxCell>
        <mxCell id="WOx4rIqFdnK--00V2V1H-95" value="&lt;font style=&quot;font-size: 24px;&quot;&gt;3&lt;/font&gt;" style="ellipse;whiteSpace=wrap;html=1;aspect=fixed;labelBackgroundColor=none;fillColor=#FAE5C7;strokeColor=#0F8B8D;fontColor=#143642;" vertex="1" parent="WOx4rIqFdnK--00V2V1H-378">
          <mxGeometry x="135" y="150" width="40" height="40" as="geometry" />
        </mxCell>
        <mxCell id="WOx4rIqFdnK--00V2V1H-96" value="&lt;font style=&quot;font-size: 9px;&quot;&gt;A1&lt;/font&gt;" style="text;html=1;align=center;verticalAlign=middle;whiteSpace=wrap;rounded=0;labelBackgroundColor=none;fontColor=#143642;" vertex="1" parent="WOx4rIqFdnK--00V2V1H-378">
          <mxGeometry x="75" y="110" width="25" height="20" as="geometry" />
        </mxCell>
        <mxCell id="WOx4rIqFdnK--00V2V1H-97" style="rounded=0;orthogonalLoop=1;jettySize=auto;html=1;exitX=1;exitY=0.5;exitDx=0;exitDy=0;entryX=0;entryY=0.5;entryDx=0;entryDy=0;labelBackgroundColor=none;strokeColor=#A8201A;fontColor=default;" edge="1" parent="WOx4rIqFdnK--00V2V1H-378" source="WOx4rIqFdnK--00V2V1H-93" target="WOx4rIqFdnK--00V2V1H-95">
          <mxGeometry relative="1" as="geometry">
            <mxPoint x="80" y="150" as="sourcePoint" />
            <mxPoint x="128" y="121" as="targetPoint" />
          </mxGeometry>
        </mxCell>
        <mxCell id="WOx4rIqFdnK--00V2V1H-98" value="&lt;font style=&quot;font-size: 9px;&quot;&gt;A2&lt;/font&gt;" style="text;html=1;align=center;verticalAlign=middle;whiteSpace=wrap;rounded=0;labelBackgroundColor=none;fontColor=#143642;" vertex="1" parent="WOx4rIqFdnK--00V2V1H-378">
          <mxGeometry x="75" y="150" width="25" height="20" as="geometry" />
        </mxCell>
        <mxCell id="WOx4rIqFdnK--00V2V1H-99" value="" style="endArrow=none;html=1;rounded=0;exitX=1;exitY=0;exitDx=0;exitDy=0;labelBackgroundColor=none;strokeColor=#A8201A;fontColor=default;" edge="1" parent="WOx4rIqFdnK--00V2V1H-378" source="WOx4rIqFdnK--00V2V1H-94">
          <mxGeometry width="50" height="50" relative="1" as="geometry">
            <mxPoint x="175" y="90" as="sourcePoint" />
            <mxPoint x="235" y="60" as="targetPoint" />
            <Array as="points">
              <mxPoint x="195" y="60" />
            </Array>
          </mxGeometry>
        </mxCell>
        <mxCell id="WOx4rIqFdnK--00V2V1H-100" value="" style="endArrow=none;html=1;rounded=0;exitX=1;exitY=1;exitDx=0;exitDy=0;labelBackgroundColor=none;strokeColor=#A8201A;fontColor=default;" edge="1" parent="WOx4rIqFdnK--00V2V1H-378" source="WOx4rIqFdnK--00V2V1H-94">
          <mxGeometry width="50" height="50" relative="1" as="geometry">
            <mxPoint x="175" y="104" as="sourcePoint" />
            <mxPoint x="235" y="120" as="targetPoint" />
            <Array as="points">
              <mxPoint x="195" y="120" />
            </Array>
          </mxGeometry>
        </mxCell>
        <mxCell id="WOx4rIqFdnK--00V2V1H-101" value="" style="endArrow=none;html=1;rounded=0;exitX=1;exitY=0;exitDx=0;exitDy=0;labelBackgroundColor=none;strokeColor=#A8201A;fontColor=default;" edge="1" parent="WOx4rIqFdnK--00V2V1H-378" source="WOx4rIqFdnK--00V2V1H-95">
          <mxGeometry width="50" height="50" relative="1" as="geometry">
            <mxPoint x="175" y="156" as="sourcePoint" />
            <mxPoint x="235" y="140" as="targetPoint" />
            <Array as="points">
              <mxPoint x="201" y="140" />
            </Array>
          </mxGeometry>
        </mxCell>
        <mxCell id="WOx4rIqFdnK--00V2V1H-102" value="" style="endArrow=none;html=1;rounded=0;exitX=1;exitY=1;exitDx=0;exitDy=0;labelBackgroundColor=none;strokeColor=#A8201A;fontColor=default;" edge="1" parent="WOx4rIqFdnK--00V2V1H-378" source="WOx4rIqFdnK--00V2V1H-95">
          <mxGeometry width="50" height="50" relative="1" as="geometry">
            <mxPoint x="175" y="184" as="sourcePoint" />
            <mxPoint x="235" y="200" as="targetPoint" />
            <Array as="points">
              <mxPoint x="201" y="200" />
            </Array>
          </mxGeometry>
        </mxCell>
        <mxCell id="WOx4rIqFdnK--00V2V1H-103" value="&lt;font style=&quot;font-size: 6px; line-height: 110%;&quot;&gt;P(S1)=0.4&lt;/font&gt;" style="text;html=1;align=center;verticalAlign=middle;whiteSpace=wrap;rounded=0;labelBackgroundColor=none;fontColor=#143642;" vertex="1" parent="WOx4rIqFdnK--00V2V1H-378">
          <mxGeometry x="195" y="58" width="40" height="10" as="geometry" />
        </mxCell>
        <mxCell id="WOx4rIqFdnK--00V2V1H-104" value="&lt;font style=&quot;font-size: 6px; line-height: 110%;&quot;&gt;P(S2)=0.6&lt;/font&gt;" style="text;html=1;align=center;verticalAlign=middle;whiteSpace=wrap;rounded=0;labelBackgroundColor=none;fontColor=#143642;" vertex="1" parent="WOx4rIqFdnK--00V2V1H-378">
          <mxGeometry x="195" y="108" width="40" height="10" as="geometry" />
        </mxCell>
        <mxCell id="WOx4rIqFdnK--00V2V1H-105" value="&lt;font style=&quot;font-size: 6px; line-height: 110%;&quot;&gt;P(S1)=0.4&lt;/font&gt;" style="text;html=1;align=center;verticalAlign=middle;whiteSpace=wrap;rounded=0;labelBackgroundColor=none;fontColor=#143642;" vertex="1" parent="WOx4rIqFdnK--00V2V1H-378">
          <mxGeometry x="195" y="138" width="40" height="10" as="geometry" />
        </mxCell>
        <mxCell id="WOx4rIqFdnK--00V2V1H-106" value="&lt;font style=&quot;font-size: 6px; line-height: 110%;&quot;&gt;P(S2)=0.6&lt;/font&gt;" style="text;html=1;align=center;verticalAlign=middle;whiteSpace=wrap;rounded=0;labelBackgroundColor=none;fontColor=#143642;" vertex="1" parent="WOx4rIqFdnK--00V2V1H-378">
          <mxGeometry x="195" y="188" width="40" height="10" as="geometry" />
        </mxCell>
        <mxCell id="WOx4rIqFdnK--00V2V1H-107" value="&lt;font style=&quot;font-size: 9px;&quot;&gt;400&lt;/font&gt;" style="text;html=1;align=center;verticalAlign=middle;whiteSpace=wrap;rounded=0;labelBackgroundColor=none;fontColor=#143642;" vertex="1" parent="WOx4rIqFdnK--00V2V1H-378">
          <mxGeometry x="235" y="48" width="20" height="20" as="geometry" />
        </mxCell>
        <mxCell id="WOx4rIqFdnK--00V2V1H-108" value="&lt;font style=&quot;font-size: 9px;&quot;&gt;-100&lt;/font&gt;" style="text;html=1;align=center;verticalAlign=middle;whiteSpace=wrap;rounded=0;labelBackgroundColor=none;fontColor=#143642;" vertex="1" parent="WOx4rIqFdnK--00V2V1H-378">
          <mxGeometry x="235" y="108" width="20" height="20" as="geometry" />
        </mxCell>
        <mxCell id="WOx4rIqFdnK--00V2V1H-109" value="&lt;font style=&quot;font-size: 9px;&quot;&gt;0&lt;/font&gt;" style="text;html=1;align=center;verticalAlign=middle;whiteSpace=wrap;rounded=0;labelBackgroundColor=none;fontColor=#143642;" vertex="1" parent="WOx4rIqFdnK--00V2V1H-378">
          <mxGeometry x="235" y="128" width="20" height="20" as="geometry" />
        </mxCell>
        <mxCell id="WOx4rIqFdnK--00V2V1H-110" value="&lt;font style=&quot;font-size: 9px;&quot;&gt;100&lt;/font&gt;" style="text;html=1;align=center;verticalAlign=middle;whiteSpace=wrap;rounded=0;labelBackgroundColor=none;fontColor=#143642;" vertex="1" parent="WOx4rIqFdnK--00V2V1H-378">
          <mxGeometry x="235" y="188" width="20" height="20" as="geometry" />
        </mxCell>
        <mxCell id="WOx4rIqFdnK--00V2V1H-111" value="" style="shape=link;html=1;rounded=0;strokeColor=#A8201A;fontColor=#143642;fillColor=#FAE5C7;" edge="1" parent="WOx4rIqFdnK--00V2V1H-378">
          <mxGeometry width="100" relative="1" as="geometry">
            <mxPoint x="255" y="58" as="sourcePoint" />
            <mxPoint x="285" y="58" as="targetPoint" />
          </mxGeometry>
        </mxCell>
        <mxCell id="WOx4rIqFdnK--00V2V1H-112" value="&lt;font style=&quot;font-size: 5px;&quot;&gt;400 x 0.4 =160&amp;nbsp;&lt;/font&gt;" style="text;html=1;align=center;verticalAlign=middle;whiteSpace=wrap;rounded=0;labelBackgroundColor=none;fontColor=#143642;" vertex="1" parent="WOx4rIqFdnK--00V2V1H-378">
          <mxGeometry x="284" y="51" width="40" height="10" as="geometry" />
        </mxCell>
        <mxCell id="WOx4rIqFdnK--00V2V1H-114" value="" style="shape=link;html=1;rounded=0;strokeColor=#A8201A;fontColor=#143642;fillColor=#FAE5C7;" edge="1" parent="WOx4rIqFdnK--00V2V1H-378">
          <mxGeometry width="100" relative="1" as="geometry">
            <mxPoint x="255" y="120" as="sourcePoint" />
            <mxPoint x="285" y="120" as="targetPoint" />
          </mxGeometry>
        </mxCell>
        <mxCell id="WOx4rIqFdnK--00V2V1H-115" value="&lt;font style=&quot;font-size: 5px;&quot;&gt;-100x 0.6 =-60&lt;/font&gt;" style="text;html=1;align=center;verticalAlign=middle;whiteSpace=wrap;rounded=0;labelBackgroundColor=none;fontColor=#143642;" vertex="1" parent="WOx4rIqFdnK--00V2V1H-378">
          <mxGeometry x="284" y="113" width="40" height="10" as="geometry" />
        </mxCell>
        <mxCell id="WOx4rIqFdnK--00V2V1H-116" value="" style="shape=link;html=1;rounded=0;strokeColor=#A8201A;fontColor=#143642;fillColor=#FAE5C7;" edge="1" parent="WOx4rIqFdnK--00V2V1H-378">
          <mxGeometry width="100" relative="1" as="geometry">
            <mxPoint x="255" y="141" as="sourcePoint" />
            <mxPoint x="285" y="141" as="targetPoint" />
          </mxGeometry>
        </mxCell>
        <mxCell id="WOx4rIqFdnK--00V2V1H-117" value="&lt;font style=&quot;font-size: 5px;&quot;&gt;0 x 0.4 =0&lt;/font&gt;" style="text;html=1;align=center;verticalAlign=middle;whiteSpace=wrap;rounded=0;labelBackgroundColor=none;fontColor=#143642;" vertex="1" parent="WOx4rIqFdnK--00V2V1H-378">
          <mxGeometry x="284" y="134" width="40" height="10" as="geometry" />
        </mxCell>
        <mxCell id="WOx4rIqFdnK--00V2V1H-118" value="" style="shape=link;html=1;rounded=0;strokeColor=#A8201A;fontColor=#143642;fillColor=#FAE5C7;" edge="1" parent="WOx4rIqFdnK--00V2V1H-378">
          <mxGeometry width="100" relative="1" as="geometry">
            <mxPoint x="255" y="203" as="sourcePoint" />
            <mxPoint x="285" y="203" as="targetPoint" />
          </mxGeometry>
        </mxCell>
        <mxCell id="WOx4rIqFdnK--00V2V1H-119" value="&lt;font style=&quot;font-size: 5px;&quot;&gt;100x 0.6 =60&lt;/font&gt;" style="text;html=1;align=center;verticalAlign=middle;whiteSpace=wrap;rounded=0;labelBackgroundColor=none;fontColor=#143642;" vertex="1" parent="WOx4rIqFdnK--00V2V1H-378">
          <mxGeometry x="284" y="196" width="40" height="10" as="geometry" />
        </mxCell>
        <mxCell id="WOx4rIqFdnK--00V2V1H-123" value="&lt;font style=&quot;font-size: 10px;&quot;&gt;160-60=100&lt;/font&gt;" style="text;html=1;align=center;verticalAlign=middle;whiteSpace=wrap;rounded=0;fontColor=#143642;" vertex="1" parent="WOx4rIqFdnK--00V2V1H-378">
          <mxGeometry x="274" y="68" width="60" height="30" as="geometry" />
        </mxCell>
        <mxCell id="WOx4rIqFdnK--00V2V1H-124" value="&lt;font style=&quot;font-size: 10px;&quot;&gt;0+60=60&lt;/font&gt;" style="text;html=1;align=center;verticalAlign=middle;whiteSpace=wrap;rounded=0;fontColor=#143642;" vertex="1" parent="WOx4rIqFdnK--00V2V1H-378">
          <mxGeometry x="274" y="155" width="60" height="30" as="geometry" />
        </mxCell>
        <mxCell id="WOx4rIqFdnK--00V2V1H-127" value="&lt;h1 style=&quot;margin-top: 0px;&quot;&gt;Decision/EVWOI&lt;/h1&gt;&lt;p&gt;Since 100 &amp;gt; 60, &lt;b&gt;you should choose A1&lt;/b&gt;&lt;/p&gt;" style="text;html=1;whiteSpace=wrap;overflow=hidden;rounded=0;fontColor=#143642;" vertex="1" parent="WOx4rIqFdnK--00V2V1H-378">
          <mxGeometry width="190" height="120" as="geometry" />
        </mxCell>
        <mxCell id="WOx4rIqFdnK--00V2V1H-158" style="rounded=0;orthogonalLoop=1;jettySize=auto;html=1;exitX=1;exitY=0.5;exitDx=0;exitDy=0;labelBackgroundColor=none;strokeColor=#A8201A;fontColor=default;" edge="1" parent="WOx4rIqFdnK--00V2V1H-378" source="WOx4rIqFdnK--00V2V1H-159" target="WOx4rIqFdnK--00V2V1H-165">
          <mxGeometry relative="1" as="geometry" />
        </mxCell>
        <mxCell id="WOx4rIqFdnK--00V2V1H-159" value="&lt;font style=&quot;font-size: 24px;&quot;&gt;2&lt;/font&gt;" style="whiteSpace=wrap;html=1;aspect=fixed;labelBackgroundColor=none;fillColor=#FAE5C7;strokeColor=#0F8B8D;fontColor=#143642;" vertex="1" parent="WOx4rIqFdnK--00V2V1H-378">
          <mxGeometry x="124" y="340" width="40" height="40" as="geometry" />
        </mxCell>
        <mxCell id="WOx4rIqFdnK--00V2V1H-163" style="rounded=0;orthogonalLoop=1;jettySize=auto;html=1;exitX=1;exitY=0.5;exitDx=0;exitDy=0;entryX=0;entryY=0.5;entryDx=0;entryDy=0;labelBackgroundColor=none;strokeColor=#A8201A;fontColor=default;" edge="1" parent="WOx4rIqFdnK--00V2V1H-378" target="WOx4rIqFdnK--00V2V1H-159">
          <mxGeometry relative="1" as="geometry">
            <mxPoint x="69" y="430" as="sourcePoint" />
          </mxGeometry>
        </mxCell>
        <mxCell id="WOx4rIqFdnK--00V2V1H-165" value="&lt;font style=&quot;font-size: 24px;&quot;&gt;4&lt;/font&gt;" style="ellipse;whiteSpace=wrap;html=1;aspect=fixed;labelBackgroundColor=none;fillColor=#FAE5C7;strokeColor=#0F8B8D;fontColor=#143642;" vertex="1" parent="WOx4rIqFdnK--00V2V1H-378">
          <mxGeometry x="229" y="290" width="40" height="40" as="geometry" />
        </mxCell>
        <mxCell id="WOx4rIqFdnK--00V2V1H-166" value="&lt;font style=&quot;font-size: 24px;&quot;&gt;5&lt;/font&gt;" style="ellipse;whiteSpace=wrap;html=1;aspect=fixed;labelBackgroundColor=none;fillColor=#FAE5C7;strokeColor=#0F8B8D;fontColor=#143642;" vertex="1" parent="WOx4rIqFdnK--00V2V1H-378">
          <mxGeometry x="229" y="370" width="40" height="40" as="geometry" />
        </mxCell>
        <mxCell id="WOx4rIqFdnK--00V2V1H-167" value="&lt;font style=&quot;font-size: 9px;&quot;&gt;A1&lt;/font&gt;" style="text;html=1;align=center;verticalAlign=middle;whiteSpace=wrap;rounded=0;labelBackgroundColor=none;fontColor=#143642;" vertex="1" parent="WOx4rIqFdnK--00V2V1H-378">
          <mxGeometry x="169" y="330" width="25" height="20" as="geometry" />
        </mxCell>
        <mxCell id="WOx4rIqFdnK--00V2V1H-168" style="rounded=0;orthogonalLoop=1;jettySize=auto;html=1;exitX=1;exitY=0.5;exitDx=0;exitDy=0;entryX=0;entryY=0.5;entryDx=0;entryDy=0;labelBackgroundColor=none;strokeColor=#A8201A;fontColor=default;" edge="1" parent="WOx4rIqFdnK--00V2V1H-378" source="WOx4rIqFdnK--00V2V1H-159" target="WOx4rIqFdnK--00V2V1H-166">
          <mxGeometry relative="1" as="geometry">
            <mxPoint x="174" y="370" as="sourcePoint" />
            <mxPoint x="222" y="341" as="targetPoint" />
          </mxGeometry>
        </mxCell>
        <mxCell id="WOx4rIqFdnK--00V2V1H-169" value="&lt;font style=&quot;font-size: 9px;&quot;&gt;A2&lt;/font&gt;" style="text;html=1;align=center;verticalAlign=middle;whiteSpace=wrap;rounded=0;labelBackgroundColor=none;fontColor=#143642;" vertex="1" parent="WOx4rIqFdnK--00V2V1H-378">
          <mxGeometry x="169" y="370" width="25" height="20" as="geometry" />
        </mxCell>
        <mxCell id="WOx4rIqFdnK--00V2V1H-170" value="" style="endArrow=none;html=1;rounded=0;exitX=1;exitY=0;exitDx=0;exitDy=0;labelBackgroundColor=none;strokeColor=#A8201A;fontColor=default;" edge="1" parent="WOx4rIqFdnK--00V2V1H-378" source="WOx4rIqFdnK--00V2V1H-165">
          <mxGeometry width="50" height="50" relative="1" as="geometry">
            <mxPoint x="269" y="310" as="sourcePoint" />
            <mxPoint x="329" y="280" as="targetPoint" />
            <Array as="points">
              <mxPoint x="289" y="280" />
            </Array>
          </mxGeometry>
        </mxCell>
        <mxCell id="WOx4rIqFdnK--00V2V1H-171" value="" style="endArrow=none;html=1;rounded=0;exitX=1;exitY=1;exitDx=0;exitDy=0;labelBackgroundColor=none;strokeColor=#A8201A;fontColor=default;" edge="1" parent="WOx4rIqFdnK--00V2V1H-378" source="WOx4rIqFdnK--00V2V1H-165">
          <mxGeometry width="50" height="50" relative="1" as="geometry">
            <mxPoint x="269" y="324" as="sourcePoint" />
            <mxPoint x="329" y="340" as="targetPoint" />
            <Array as="points">
              <mxPoint x="289" y="340" />
            </Array>
          </mxGeometry>
        </mxCell>
        <mxCell id="WOx4rIqFdnK--00V2V1H-172" value="" style="endArrow=none;html=1;rounded=0;exitX=1;exitY=0;exitDx=0;exitDy=0;labelBackgroundColor=none;strokeColor=#A8201A;fontColor=default;" edge="1" parent="WOx4rIqFdnK--00V2V1H-378" source="WOx4rIqFdnK--00V2V1H-166">
          <mxGeometry width="50" height="50" relative="1" as="geometry">
            <mxPoint x="269" y="376" as="sourcePoint" />
            <mxPoint x="329" y="360" as="targetPoint" />
            <Array as="points">
              <mxPoint x="295" y="360" />
            </Array>
          </mxGeometry>
        </mxCell>
        <mxCell id="WOx4rIqFdnK--00V2V1H-173" value="" style="endArrow=none;html=1;rounded=0;exitX=1;exitY=1;exitDx=0;exitDy=0;labelBackgroundColor=none;strokeColor=#A8201A;fontColor=default;" edge="1" parent="WOx4rIqFdnK--00V2V1H-378" source="WOx4rIqFdnK--00V2V1H-166">
          <mxGeometry width="50" height="50" relative="1" as="geometry">
            <mxPoint x="269" y="404" as="sourcePoint" />
            <mxPoint x="329" y="420" as="targetPoint" />
            <Array as="points">
              <mxPoint x="295" y="420" />
            </Array>
          </mxGeometry>
        </mxCell>
        <mxCell id="WOx4rIqFdnK--00V2V1H-174" value="&lt;font style=&quot;font-size: 6px; line-height: 110%;&quot;&gt;P(S1)=1&lt;/font&gt;" style="text;html=1;align=center;verticalAlign=middle;whiteSpace=wrap;rounded=0;labelBackgroundColor=none;fontColor=#143642;" vertex="1" parent="WOx4rIqFdnK--00V2V1H-378">
          <mxGeometry x="289" y="278" width="40" height="10" as="geometry" />
        </mxCell>
        <mxCell id="WOx4rIqFdnK--00V2V1H-176" value="&lt;font style=&quot;font-size: 6px; line-height: 110%;&quot;&gt;P(S2)=0&lt;/font&gt;" style="text;html=1;align=center;verticalAlign=middle;whiteSpace=wrap;rounded=0;labelBackgroundColor=none;fontColor=#143642;" vertex="1" parent="WOx4rIqFdnK--00V2V1H-378">
          <mxGeometry x="289" y="328" width="40" height="10" as="geometry" />
        </mxCell>
        <mxCell id="WOx4rIqFdnK--00V2V1H-177" value="&lt;font style=&quot;font-size: 6px; line-height: 110%;&quot;&gt;P(S1)=1&lt;/font&gt;" style="text;html=1;align=center;verticalAlign=middle;whiteSpace=wrap;rounded=0;labelBackgroundColor=none;fontColor=#143642;" vertex="1" parent="WOx4rIqFdnK--00V2V1H-378">
          <mxGeometry x="289" y="358" width="40" height="10" as="geometry" />
        </mxCell>
        <mxCell id="WOx4rIqFdnK--00V2V1H-178" value="&lt;font style=&quot;font-size: 6px; line-height: 110%;&quot;&gt;P(S2)=0&lt;/font&gt;" style="text;html=1;align=center;verticalAlign=middle;whiteSpace=wrap;rounded=0;labelBackgroundColor=none;fontColor=#143642;" vertex="1" parent="WOx4rIqFdnK--00V2V1H-378">
          <mxGeometry x="289" y="408" width="40" height="10" as="geometry" />
        </mxCell>
        <mxCell id="WOx4rIqFdnK--00V2V1H-179" value="&lt;font style=&quot;font-size: 9px;&quot;&gt;400&lt;/font&gt;" style="text;html=1;align=center;verticalAlign=middle;whiteSpace=wrap;rounded=0;labelBackgroundColor=none;fontColor=#143642;" vertex="1" parent="WOx4rIqFdnK--00V2V1H-378">
          <mxGeometry x="329" y="268" width="20" height="20" as="geometry" />
        </mxCell>
        <mxCell id="WOx4rIqFdnK--00V2V1H-180" value="&lt;font style=&quot;font-size: 9px;&quot;&gt;-100&lt;/font&gt;" style="text;html=1;align=center;verticalAlign=middle;whiteSpace=wrap;rounded=0;labelBackgroundColor=none;fontColor=#143642;" vertex="1" parent="WOx4rIqFdnK--00V2V1H-378">
          <mxGeometry x="329" y="328" width="20" height="20" as="geometry" />
        </mxCell>
        <mxCell id="WOx4rIqFdnK--00V2V1H-181" value="&lt;font style=&quot;font-size: 9px;&quot;&gt;0&lt;/font&gt;" style="text;html=1;align=center;verticalAlign=middle;whiteSpace=wrap;rounded=0;labelBackgroundColor=none;fontColor=#143642;" vertex="1" parent="WOx4rIqFdnK--00V2V1H-378">
          <mxGeometry x="329" y="348" width="20" height="20" as="geometry" />
        </mxCell>
        <mxCell id="WOx4rIqFdnK--00V2V1H-182" value="&lt;font style=&quot;font-size: 9px;&quot;&gt;100&lt;/font&gt;" style="text;html=1;align=center;verticalAlign=middle;whiteSpace=wrap;rounded=0;labelBackgroundColor=none;fontColor=#143642;" vertex="1" parent="WOx4rIqFdnK--00V2V1H-378">
          <mxGeometry x="329" y="408" width="20" height="20" as="geometry" />
        </mxCell>
        <mxCell id="WOx4rIqFdnK--00V2V1H-223" value="&lt;font size=&quot;1&quot;&gt;Certain S1&lt;/font&gt;&lt;div&gt;&lt;font size=&quot;1&quot;&gt;40%&lt;/font&gt;&lt;/div&gt;" style="text;html=1;align=center;verticalAlign=middle;whiteSpace=wrap;rounded=0;labelBackgroundColor=none;fontColor=#143642;" vertex="1" parent="WOx4rIqFdnK--00V2V1H-378">
          <mxGeometry x="49" y="379" width="65" height="20" as="geometry" />
        </mxCell>
        <mxCell id="WOx4rIqFdnK--00V2V1H-269" style="rounded=0;orthogonalLoop=1;jettySize=auto;html=1;entryX=0;entryY=0.5;entryDx=0;entryDy=0;strokeColor=#A8201A;fontColor=#143642;fillColor=#FAE5C7;exitX=1;exitY=0.5;exitDx=0;exitDy=0;" edge="1" parent="WOx4rIqFdnK--00V2V1H-378" source="WOx4rIqFdnK--00V2V1H-227" target="WOx4rIqFdnK--00V2V1H-250">
          <mxGeometry relative="1" as="geometry" />
        </mxCell>
        <mxCell id="WOx4rIqFdnK--00V2V1H-227" value="&lt;font style=&quot;font-size: 24px;&quot;&gt;1&lt;/font&gt;" style="ellipse;whiteSpace=wrap;html=1;aspect=fixed;labelBackgroundColor=none;fillColor=#FAE5C7;strokeColor=#0F8B8D;fontColor=#143642;" vertex="1" parent="WOx4rIqFdnK--00V2V1H-378">
          <mxGeometry x="29" y="410" width="40" height="40" as="geometry" />
        </mxCell>
        <mxCell id="WOx4rIqFdnK--00V2V1H-229" value="&lt;font size=&quot;1&quot;&gt;Certain S2&lt;/font&gt;&lt;div&gt;&lt;font size=&quot;1&quot;&gt;60%&lt;/font&gt;&lt;/div&gt;" style="text;html=1;align=center;verticalAlign=middle;whiteSpace=wrap;rounded=0;labelBackgroundColor=none;fontColor=#143642;" vertex="1" parent="WOx4rIqFdnK--00V2V1H-378">
          <mxGeometry x="49" y="473" width="65" height="20" as="geometry" />
        </mxCell>
        <mxCell id="WOx4rIqFdnK--00V2V1H-249" style="rounded=0;orthogonalLoop=1;jettySize=auto;html=1;exitX=1;exitY=0.5;exitDx=0;exitDy=0;labelBackgroundColor=none;strokeColor=#A8201A;fontColor=default;" edge="1" parent="WOx4rIqFdnK--00V2V1H-378" source="WOx4rIqFdnK--00V2V1H-250" target="WOx4rIqFdnK--00V2V1H-251">
          <mxGeometry relative="1" as="geometry" />
        </mxCell>
        <mxCell id="WOx4rIqFdnK--00V2V1H-250" value="&lt;font style=&quot;font-size: 24px;&quot;&gt;2&lt;/font&gt;" style="whiteSpace=wrap;html=1;aspect=fixed;labelBackgroundColor=none;fillColor=#FAE5C7;strokeColor=#0F8B8D;fontColor=#143642;" vertex="1" parent="WOx4rIqFdnK--00V2V1H-378">
          <mxGeometry x="124" y="500" width="40" height="40" as="geometry" />
        </mxCell>
        <mxCell id="WOx4rIqFdnK--00V2V1H-251" value="&lt;font style=&quot;font-size: 24px;&quot;&gt;4&lt;/font&gt;" style="ellipse;whiteSpace=wrap;html=1;aspect=fixed;labelBackgroundColor=none;fillColor=#FAE5C7;strokeColor=#0F8B8D;fontColor=#143642;" vertex="1" parent="WOx4rIqFdnK--00V2V1H-378">
          <mxGeometry x="229" y="450" width="40" height="40" as="geometry" />
        </mxCell>
        <mxCell id="WOx4rIqFdnK--00V2V1H-252" value="&lt;font style=&quot;font-size: 24px;&quot;&gt;5&lt;/font&gt;" style="ellipse;whiteSpace=wrap;html=1;aspect=fixed;labelBackgroundColor=none;fillColor=#FAE5C7;strokeColor=#0F8B8D;fontColor=#143642;" vertex="1" parent="WOx4rIqFdnK--00V2V1H-378">
          <mxGeometry x="229" y="530" width="40" height="40" as="geometry" />
        </mxCell>
        <mxCell id="WOx4rIqFdnK--00V2V1H-253" value="&lt;font style=&quot;font-size: 9px;&quot;&gt;A1&lt;/font&gt;" style="text;html=1;align=center;verticalAlign=middle;whiteSpace=wrap;rounded=0;labelBackgroundColor=none;fontColor=#143642;" vertex="1" parent="WOx4rIqFdnK--00V2V1H-378">
          <mxGeometry x="169" y="490" width="25" height="20" as="geometry" />
        </mxCell>
        <mxCell id="WOx4rIqFdnK--00V2V1H-254" style="rounded=0;orthogonalLoop=1;jettySize=auto;html=1;exitX=1;exitY=0.5;exitDx=0;exitDy=0;entryX=0;entryY=0.5;entryDx=0;entryDy=0;labelBackgroundColor=none;strokeColor=#A8201A;fontColor=default;" edge="1" parent="WOx4rIqFdnK--00V2V1H-378" source="WOx4rIqFdnK--00V2V1H-250" target="WOx4rIqFdnK--00V2V1H-252">
          <mxGeometry relative="1" as="geometry">
            <mxPoint x="174" y="530" as="sourcePoint" />
            <mxPoint x="222" y="501" as="targetPoint" />
          </mxGeometry>
        </mxCell>
        <mxCell id="WOx4rIqFdnK--00V2V1H-255" value="&lt;font style=&quot;font-size: 9px;&quot;&gt;A2&lt;/font&gt;" style="text;html=1;align=center;verticalAlign=middle;whiteSpace=wrap;rounded=0;labelBackgroundColor=none;fontColor=#143642;" vertex="1" parent="WOx4rIqFdnK--00V2V1H-378">
          <mxGeometry x="169" y="530" width="25" height="20" as="geometry" />
        </mxCell>
        <mxCell id="WOx4rIqFdnK--00V2V1H-256" value="" style="endArrow=none;html=1;rounded=0;exitX=1;exitY=0;exitDx=0;exitDy=0;labelBackgroundColor=none;strokeColor=#A8201A;fontColor=default;" edge="1" parent="WOx4rIqFdnK--00V2V1H-378" source="WOx4rIqFdnK--00V2V1H-251">
          <mxGeometry width="50" height="50" relative="1" as="geometry">
            <mxPoint x="269" y="470" as="sourcePoint" />
            <mxPoint x="329" y="440" as="targetPoint" />
            <Array as="points">
              <mxPoint x="289" y="440" />
            </Array>
          </mxGeometry>
        </mxCell>
        <mxCell id="WOx4rIqFdnK--00V2V1H-257" value="" style="endArrow=none;html=1;rounded=0;exitX=1;exitY=1;exitDx=0;exitDy=0;labelBackgroundColor=none;strokeColor=#A8201A;fontColor=default;" edge="1" parent="WOx4rIqFdnK--00V2V1H-378" source="WOx4rIqFdnK--00V2V1H-251">
          <mxGeometry width="50" height="50" relative="1" as="geometry">
            <mxPoint x="269" y="484" as="sourcePoint" />
            <mxPoint x="329" y="500" as="targetPoint" />
            <Array as="points">
              <mxPoint x="289" y="500" />
            </Array>
          </mxGeometry>
        </mxCell>
        <mxCell id="WOx4rIqFdnK--00V2V1H-258" value="" style="endArrow=none;html=1;rounded=0;exitX=1;exitY=0;exitDx=0;exitDy=0;labelBackgroundColor=none;strokeColor=#A8201A;fontColor=default;" edge="1" parent="WOx4rIqFdnK--00V2V1H-378" source="WOx4rIqFdnK--00V2V1H-252">
          <mxGeometry width="50" height="50" relative="1" as="geometry">
            <mxPoint x="269" y="536" as="sourcePoint" />
            <mxPoint x="329" y="520" as="targetPoint" />
            <Array as="points">
              <mxPoint x="295" y="520" />
            </Array>
          </mxGeometry>
        </mxCell>
        <mxCell id="WOx4rIqFdnK--00V2V1H-259" value="" style="endArrow=none;html=1;rounded=0;exitX=1;exitY=1;exitDx=0;exitDy=0;labelBackgroundColor=none;strokeColor=#A8201A;fontColor=default;" edge="1" parent="WOx4rIqFdnK--00V2V1H-378" source="WOx4rIqFdnK--00V2V1H-252">
          <mxGeometry width="50" height="50" relative="1" as="geometry">
            <mxPoint x="269" y="564" as="sourcePoint" />
            <mxPoint x="329" y="580" as="targetPoint" />
            <Array as="points">
              <mxPoint x="295" y="580" />
            </Array>
          </mxGeometry>
        </mxCell>
        <mxCell id="WOx4rIqFdnK--00V2V1H-260" value="&lt;span style=&quot;font-size: 6px;&quot;&gt;P(S1)=0&lt;/span&gt;" style="text;html=1;align=center;verticalAlign=middle;whiteSpace=wrap;rounded=0;labelBackgroundColor=none;fontColor=#143642;" vertex="1" parent="WOx4rIqFdnK--00V2V1H-378">
          <mxGeometry x="289" y="438" width="40" height="10" as="geometry" />
        </mxCell>
        <mxCell id="WOx4rIqFdnK--00V2V1H-261" value="&lt;span style=&quot;font-size: 6px;&quot;&gt;P(S2)=1&lt;/span&gt;" style="text;html=1;align=center;verticalAlign=middle;whiteSpace=wrap;rounded=0;labelBackgroundColor=none;fontColor=#143642;" vertex="1" parent="WOx4rIqFdnK--00V2V1H-378">
          <mxGeometry x="289" y="488" width="40" height="10" as="geometry" />
        </mxCell>
        <mxCell id="WOx4rIqFdnK--00V2V1H-262" value="&lt;span style=&quot;font-size: 6px;&quot;&gt;P(S1)=0&lt;/span&gt;" style="text;html=1;align=center;verticalAlign=middle;whiteSpace=wrap;rounded=0;labelBackgroundColor=none;fontColor=#143642;" vertex="1" parent="WOx4rIqFdnK--00V2V1H-378">
          <mxGeometry x="289" y="518" width="40" height="10" as="geometry" />
        </mxCell>
        <mxCell id="WOx4rIqFdnK--00V2V1H-263" value="&lt;span style=&quot;font-size: 6px;&quot;&gt;P(S2)=1&lt;/span&gt;" style="text;html=1;align=center;verticalAlign=middle;whiteSpace=wrap;rounded=0;labelBackgroundColor=none;fontColor=#143642;" vertex="1" parent="WOx4rIqFdnK--00V2V1H-378">
          <mxGeometry x="289" y="568" width="40" height="10" as="geometry" />
        </mxCell>
        <mxCell id="WOx4rIqFdnK--00V2V1H-264" value="&lt;font style=&quot;font-size: 9px;&quot;&gt;400&lt;/font&gt;" style="text;html=1;align=center;verticalAlign=middle;whiteSpace=wrap;rounded=0;labelBackgroundColor=none;fontColor=#143642;" vertex="1" parent="WOx4rIqFdnK--00V2V1H-378">
          <mxGeometry x="329" y="428" width="20" height="20" as="geometry" />
        </mxCell>
        <mxCell id="WOx4rIqFdnK--00V2V1H-265" value="&lt;font style=&quot;font-size: 9px;&quot;&gt;-100&lt;/font&gt;" style="text;html=1;align=center;verticalAlign=middle;whiteSpace=wrap;rounded=0;labelBackgroundColor=none;fontColor=#143642;" vertex="1" parent="WOx4rIqFdnK--00V2V1H-378">
          <mxGeometry x="329" y="488" width="20" height="20" as="geometry" />
        </mxCell>
        <mxCell id="WOx4rIqFdnK--00V2V1H-266" value="&lt;font style=&quot;font-size: 9px;&quot;&gt;0&lt;/font&gt;" style="text;html=1;align=center;verticalAlign=middle;whiteSpace=wrap;rounded=0;labelBackgroundColor=none;fontColor=#143642;" vertex="1" parent="WOx4rIqFdnK--00V2V1H-378">
          <mxGeometry x="329" y="508" width="20" height="20" as="geometry" />
        </mxCell>
        <mxCell id="WOx4rIqFdnK--00V2V1H-267" value="&lt;font style=&quot;font-size: 9px;&quot;&gt;100&lt;/font&gt;" style="text;html=1;align=center;verticalAlign=middle;whiteSpace=wrap;rounded=0;labelBackgroundColor=none;fontColor=#143642;" vertex="1" parent="WOx4rIqFdnK--00V2V1H-378">
          <mxGeometry x="329" y="568" width="20" height="20" as="geometry" />
        </mxCell>
        <mxCell id="WOx4rIqFdnK--00V2V1H-276" value="&lt;font style=&quot;font-size: 10px;&quot;&gt;400&lt;/font&gt;" style="text;html=1;align=center;verticalAlign=middle;whiteSpace=wrap;rounded=0;fontColor=#143642;" vertex="1" parent="WOx4rIqFdnK--00V2V1H-378">
          <mxGeometry x="114" y="316" width="60" height="30" as="geometry" />
        </mxCell>
        <mxCell id="WOx4rIqFdnK--00V2V1H-278" value="&lt;font style=&quot;font-size: 10px;&quot;&gt;100&lt;/font&gt;" style="text;html=1;align=center;verticalAlign=middle;whiteSpace=wrap;rounded=0;fontColor=#143642;" vertex="1" parent="WOx4rIqFdnK--00V2V1H-378">
          <mxGeometry x="114" y="478" width="60" height="30" as="geometry" />
        </mxCell>
        <mxCell id="WOx4rIqFdnK--00V2V1H-282" value="&lt;h1 style=&quot;margin-top: 0px;&quot;&gt;EVWPI&lt;/h1&gt;&lt;p&gt;= 400 x 0.4 +&amp;nbsp;&lt;span style=&quot;background-color: transparent; color: light-dark(rgb(20, 54, 66), rgb(173, 202, 213));&quot;&gt;100 x 0.6&amp;nbsp;&lt;/span&gt;&lt;/p&gt;&lt;p&gt;= 220&lt;/p&gt;&lt;p&gt;&lt;br&gt;&lt;/p&gt;" style="text;html=1;whiteSpace=wrap;overflow=hidden;rounded=0;fontColor=#143642;" vertex="1" parent="WOx4rIqFdnK--00V2V1H-378">
          <mxGeometry x="29" y="515" width="135" height="120" as="geometry" />
        </mxCell>
        <mxCell id="WOx4rIqFdnK--00V2V1H-283" value="&lt;h1 style=&quot;forced-color-adjust: none; margin-top: 0px;&quot;&gt;EVPI&lt;/h1&gt;&lt;p style=&quot;forced-color-adjust: none;&quot;&gt;= EVWPI -&amp;nbsp;&lt;span style=&quot;background-color: transparent; color: light-dark(rgb(20, 54, 66), rgb(173, 202, 213));&quot;&gt;EVWOI&lt;/span&gt;&lt;span style=&quot;background-color: transparent; color: light-dark(rgb(20, 54, 66), rgb(173, 202, 213));&quot;&gt;&amp;nbsp;&lt;/span&gt;&lt;/p&gt;&lt;p style=&quot;forced-color-adjust: none;&quot;&gt;= 220 - 100&lt;/p&gt;&lt;p style=&quot;forced-color-adjust: none;&quot;&gt;= 120&lt;/p&gt;&lt;p style=&quot;forced-color-adjust: none;&quot;&gt;If you know for certain which of the alternatives will happen, the expected payoff will be $120 greater.&lt;/p&gt;&lt;p style=&quot;forced-color-adjust: none;&quot;&gt;&lt;br&gt;&lt;/p&gt;" style="text;whiteSpace=wrap;html=1;fontColor=#143642;" vertex="1" parent="WOx4rIqFdnK--00V2V1H-378">
          <mxGeometry x="30" y="628" width="180" height="150" as="geometry" />
        </mxCell>
      </root>
    </mxGraphModel>
  </diagram>
</mxfile>
